<?xml version="1.0" standalone="no"?>
<!DOCTYPE svg PUBLIC "-//W3C//DTD SVG 1.1//EN" "http://www.w3.org/Graphics/SVG/1.1/DTD/svg11.dtd" >
<svg xmlns="http://www.w3.org/2000/svg">
<metadata>
Created by FontPrep 20130207 at Tue Mar 10 13:13:20 2015
 By Joseba Alonso
Digitized data copyright (c) 2011, Google Corporation.
</metadata>
<defs>
<font id="b96880fafbf6b051ff49d9fe8a31137c" horiz-adv-x='1024' >
  <font-face 
    font-family="OpenSans-Semibold"
    font-weight="600"
    font-stretch="normal"
    units-per-em="2048"
    panose-1="2 11 7 6 3 8 4 2 2 4"
    ascent="1638"
    descent="-410"
    x-height="1106"
    cap-height="1462"
    bbox="-1196 -578 2583 2148"
    underline-thickness="102"
    underline-position="-103"
    unicode-range="U+0020-FFFD"
  />
<missing-glyph horiz-adv-x="1229" 
d="M297 104h633v1254h-633v-1254zM193 1462h841v-1462h-841v1462z" />
    <glyph glyph-name="ff" unicode="ff" horiz-adv-x="1487" 
d="M723 928h-270v-928h-236v928h-182v110l182 72v72q0 196 92 290t281 95q124 0 244 -41l-62 -178q-86 28 -166 28t-116 -50t-37 -148v-72h270v-178zM1466 928h-270v-928h-236v928h-182v110l182 72v72q0 196 92 290t281 95q124 0 244 -41l-62 -178q-87 28 -167 28t-116 -50
t-36 -148v-72h270v-178z" />
    <glyph glyph-name="uniFB01" unicode="fi" horiz-adv-x="1315" 
d="M723 928h-270v-928h-236v928h-182v110l182 72v72q0 196 92 290t281 95q124 0 244 -41l-62 -178q-86 28 -166 28t-116 -50t-37 -148v-72h270v-178zM897 1400q1 62 35 96t97 34t97 -34t35 -96q-1 -62 -35 -96t-97 -34t-97 34t-35 96zM1146 0h-235v1106h235v-1106z" />
    <glyph glyph-name="uniFB02" unicode="fl" horiz-adv-x="1315" 
d="M723 928h-270v-928h-236v928h-182v110l182 72v72q0 196 92 290t281 95q124 0 244 -41l-62 -178q-86 28 -166 28t-116 -50t-37 -148v-72h270v-178zM1146 0h-235v1556h235v-1556z" />
    <glyph glyph-name="uniFB03" unicode="ffi" horiz-adv-x="2058" 
d="M723 928h-270v-928h-236v928h-182v110l182 72v72q0 196 92 290t281 95q124 0 244 -41l-62 -178q-86 28 -166 28t-116 -50t-37 -148v-72h270v-178zM1466 928h-270v-928h-236v928h-182v110l182 72v72q0 196 92 290t281 95q124 0 244 -41l-62 -178q-87 28 -167 28t-116 -50
t-36 -148v-72h270v-178zM1641 1400q1 62 35 96t97 34t97 -34t35 -96q-1 -62 -35 -96t-97 -34t-97 34t-35 96zM1890 0h-235v1106h235v-1106z" />
    <glyph glyph-name="uniFB04" unicode="ffl" horiz-adv-x="2058" 
d="M723 928h-270v-928h-236v928h-182v110l182 72v72q0 196 92 290t281 95q124 0 244 -41l-62 -178q-86 28 -166 28t-116 -50t-37 -148v-72h270v-178zM1466 928h-270v-928h-236v928h-182v110l182 72v72q0 196 92 290t281 95q124 0 244 -41l-62 -178q-87 28 -167 28t-116 -50
t-36 -148v-72h270v-178zM1890 0h-235v1556h235v-1556z" />
    <glyph glyph-name=".notdef" horiz-adv-x="1229" 
d="M297 104h633v1254h-633v-1254zM193 1462h841v-1462h-841v1462z" />
    <glyph glyph-name=".null" horiz-adv-x="0" 
 />
    <glyph glyph-name="nonmarkingreturn" horiz-adv-x="1044" 
 />
    <glyph glyph-name="space" unicode=" " horiz-adv-x="532" 
 />
    <glyph glyph-name="exclam" unicode="!" horiz-adv-x="565" 
d="M133 125q0 74 38.5 112.5t110.5 38.5t110 -40t38 -111t-39 -112.5t-109 -41.5t-109.5 40t-39.5 114zM371 444h-174l-52 1018h277z" />
    <glyph glyph-name="quotedbl" unicode="&#x22;" horiz-adv-x="893" 
d="M760 1462l-41 -528h-150l-41 528h232zM365 1462l-41 -528h-150l-41 528h232z" />
    <glyph glyph-name="numbersign" unicode="#" horiz-adv-x="1323" 
d="M506 586h250l57 284h-250zM1204 586v-168h-303l-80 -418h-178l80 418h-248l-80 -418h-174l76 418h-250v168h283l57 284h-264v168h293l80 422h180l-80 -422h252l80 422h174l-80 -422h252v-168h-285l-55 -284h270z" />
    <glyph glyph-name="dollar" unicode="$" 
d="M354 1052q0 -56 35.5 -94t128.5 -75v311q-80 -12 -122 -49t-42 -93zM827 438q0 58 -40.5 95.5t-135.5 72.5v-319q176 27 176 151zM1063 439q0 -131 -106 -225t-306 -116v-217h-133v211q-248 4 -407 76v211q86 -42 201 -70.5t206 -29.5v374l-84 31q-164 63 -239.5 150.5
t-75.5 221.5t107.5 222.5t291.5 107.5v168h133v-165q203 -7 385 -82l-73 -183q-157 62 -312 74v-364l76 -29q190 -73 263 -154t73 -212z" />
    <glyph glyph-name="percent" unicode="%" horiz-adv-x="1765" 
d="M1384 1462l-811 -1462h-194l811 1462h194zM1681 436q0 -226 -82.5 -341t-238.5 -115t-240 118.5t-84 341.5q0 457 320 457q154 0 239.5 -117.5t85.5 -343.5zM1231 440q0 -149 29.5 -223t95.5 -74q131 0 131 295t-131 295q-66 0 -95.5 -72t-29.5 -221zM729 1026
q0 -461 -326 -461q-152 0 -235.5 119.5t-83.5 341.5q0 457 319 457q157 0 241.5 -118.5t84.5 -338.5zM279 1024q0 -149 29 -222t95 -73q132 0 132 295t-132 295q-66 0 -95 -73t-29 -222z" />
    <glyph glyph-name="ampersand" unicode="&#x26;" horiz-adv-x="1516" 
d="M96 387q0 131 64 228.5t231 193.5q-95 111 -129.5 187.5t-34.5 158.5q0 152 108.5 240t288.5 88t281 -85.5t101 -215.5t-67.5 -222.5t-225.5 -185.5l346 -334q81 107 135 314h242q-70 -284 -224 -463l301 -291h-303l-149 145q-205 -165 -454 -165t-380 109t-131 298z
M600 182q183 0 313 107l-383 377q-106 -68 -146 -127.5t-40 -146.5t69.5 -148.5t186.5 -61.5zM451 1150q0 -66 33.5 -122t93.5 -119q113 64 158.5 119.5t45.5 122.5t-43 106t-119 39t-122.5 -40t-46.5 -106z" />
    <glyph glyph-name="quotesingle" unicode="'" horiz-adv-x="498" 
d="M365 1462l-41 -528h-150l-41 528h232z" />
    <glyph glyph-name="parenleft" unicode="(" horiz-adv-x="649" 
d="M82 563q0 263 77.5 494t223.5 405h205q-139 -188 -213 -421.5t-74 -477.5t74 -473t211 -414h-203q-147 170 -224 397t-77 490z" />
    <glyph glyph-name="parenright" unicode=")" horiz-adv-x="649" 
d="M567 561q0 -263 -77.5 -490t-223.5 -395h-203q138 187 211.5 415.5t73.5 472.5t-74 476.5t-213 421.5h205q147 -175 224 -406.5t77 -494.5z" />
    <glyph glyph-name="asterisk" unicode="*" horiz-adv-x="1122" 
d="M672 1556l-41 -382l385 108l28 -217l-360 -29l236 -311l-199 -107l-166 338l-149 -338l-205 107l231 311l-358 29l35 217l376 -108l-41 382h228z" />
    <glyph glyph-name="plus" unicode="+" 
d="M494 633h-398v178h398v408h180v-408h399v-178h-399v-406h-180v406z" />
    <glyph glyph-name="comma" unicode="," horiz-adv-x="547" 
d="M412 215q-48 -186 -176 -479h-173q69 270 103 502h231z" />
    <glyph glyph-name="hyphen" unicode="-" horiz-adv-x="659" 
d="M72 449v200h514v-200h-514z" />
    <glyph glyph-name="period" unicode="." horiz-adv-x="563" 
d="M133 126q0 72 38.5 111t110.5 39t110 -41t38 -111t-38.5 -111.5t-110.5 -41.5t-110 41.5t-38 113.5z" />
    <glyph glyph-name="slash" unicode="/" horiz-adv-x="799" 
d="M782 1462l-544 -1462h-222l545 1462h221z" />
    <glyph glyph-name="zero" unicode="0" 
d="M326 731q0 -299 61.5 -427t196.5 -128t197.5 130t62.5 424t-62.5 426t-197.5 132t-196.5 -129t-61.5 -428zM588 -20q-500 0 -500 760q0 378 122.5 561.5t370.5 183.5t374 -191.5t126 -567.5q0 -746 -493 -746z" />
    <glyph glyph-name="one" unicode="1" 
d="M780 0h-235v944q0 169 8 268q-39 -40 -281 -237l-118 149l430 338h196v-1462z" />
    <glyph glyph-name="two" unicode="2" 
d="M1081 0h-991v178l377 379q167 171 246.5 275.5t79.5 219.5q0 116 -59.5 173t-153.5 57t-173 -31t-182 -112l-127 155q122 103 237 146t245 43q204 0 327 -106.5t123 -289.5t-109 -323t-280 -301l-254 -246v-10h694v-207z" />
    <glyph glyph-name="three" unicode="3" 
d="M821 422q0 124 -93 179.5t-292 55.5h-127v191h129q350 0 350 242q0 94 -61 145t-162 51t-178 -23.5t-182 -91.5l-115 164q201 148 467 148q221 0 345 -95t124 -248t-81 -245.5t-228 -124.5v-8q176 -22 264 -109.5t88 -232.5q0 -211 -149 -325.5t-408 -114.5t-426 79v209
q194 -96 381 -96q186 0 270 63t84 187z" />
    <glyph glyph-name="four" unicode="4" 
d="M707 514v367q0 196 10 321h-8q-28 -66 -88 -160l-363 -528h449zM1133 319h-197v-319h-229v319h-668v181l668 966h229v-952h197v-195z" />
    <glyph glyph-name="five" unicode="5" 
d="M586 913q221 0 350 -117t129 -335t-146.5 -349.5t-404.5 -131.5t-397 79v213q81 -46 186 -71t195 -25q159 0 242 71t83 208q0 262 -334 262q-103 0 -237 -31l-105 62l56 714h760v-209h-553l-33 -362q128 22 209 22z" />
    <glyph glyph-name="six" unicode="6" 
d="M605 174q120 0 185.5 78t65.5 214q0 280 -246 279q-76 0 -140 -32.5t-101 -89t-37 -115.5q0 -141 76.5 -237.5t196.5 -96.5zM1087 466q0 -220 -128.5 -353t-350.5 -133q-157 0 -273 75.5t-178.5 220t-62.5 347.5q0 858 699 858q110 0 186 -17v-196q-76 22 -176 22
q-235 0 -353 -126t-128 -404h12q99 170 332 170q199 0 310 -122t111 -342z" />
    <glyph glyph-name="seven" unicode="7" 
d="M74 1253v207h1011v-164l-575 -1296h-254l578 1253h-760z" />
    <glyph glyph-name="eight" unicode="8" 
d="M583 1300q-101 0 -162 -49.5t-61 -141.5t64 -143t164 -98q120 53 169.5 111.5t49.5 140.5t-61.5 131t-162.5 49zM313 372q0 -97 73 -154.5t200 -57.5t198.5 59t71.5 151t-66 159t-200 124l-29 13q-132 -58 -190 -127.5t-58 -166.5zM588 1481q204 0 325 -95.5t121 -255.5
q0 -225 -270 -358q172 -86 244.5 -181t72.5 -212q0 -181 -133.5 -290t-365.5 -109t-363 102t-131 289q0 122 68.5 219.5t224.5 173.5q-134 80 -191 169t-57 200q0 159 125.5 253.5t329.5 94.5z" />
    <glyph glyph-name="nine" unicode="9" 
d="M569 1286q-122 0 -187 -80t-65 -214q0 -278 244 -277q119 0 200 71t81 163t-34.5 169.5t-96.5 122.5t-142 45zM502 528q-194 0 -305 121t-111 341t128.5 355.5t350.5 135.5q156 0 272 -76t179 -220.5t63 -346.5q0 -858 -698 -858q-133 0 -191 16v197q89 -25 179 -25
q238 0 355 128t128 402h-12q-111 -170 -338 -170z" />
    <glyph glyph-name="colon" unicode=":" horiz-adv-x="563" 
d="M133 979q1 151 149 151t148 -111t-38.5 -152.5t-110.5 -41.5t-110 41t-38 113zM133 126q0 72 38.5 111t110.5 39t110 -41t38 -111t-38.5 -111.5t-110.5 -41.5t-110 41.5t-38 113.5z" />
    <glyph glyph-name="semicolon" unicode=";" horiz-adv-x="569" 
d="M131 979q1 151 149 151t148 -111t-38.5 -152.5t-110.5 -41.5t-110 41t-38 113zM397 238l15 -23q-48 -186 -176 -479h-173q69 270 103 502h231z" />
    <glyph glyph-name="less" unicode="&#x3c;" 
d="M1073 221l-977 430v121l977 488v-195l-733 -344l733 -303v-197z" />
    <glyph glyph-name="equal" unicode="=" 
d="M102 432v178h963v-178h-963zM102 831v179h963v-179h-963z" />
    <glyph glyph-name="greater" unicode="&#x3e;" 
d="M96 418l733 303l-733 344v195l977 -488v-121l-977 -430v197z" />
    <glyph glyph-name="question" unicode="?" horiz-adv-x="928" 
d="M242 125q0 151 147 151q72 0 110 -39t38 -111t-38.5 -113.5t-109.5 -41.5t-109 40.5t-38 113.5zM651 1112q0 174 -238 174q-126 0 -313 -92l-84 176q203 113 417 113t329 -96t115 -250t-66.5 -233.5t-167.5 -158.5t-132.5 -127t-31.5 -129v-45h-196v64q0 110 39.5 183
t149.5 159t144.5 138t34.5 124z" />
    <glyph glyph-name="at" unicode="@" horiz-adv-x="1839" 
d="M698 612q0 -233 183 -233q193 0 211 293l12 239q-63 17 -135 17q-128 0 -199.5 -85t-71.5 -231zM948 1079q194 0 348 -51l-22 -465v-24q0 -160 104 -160q79 0 125.5 102.5t46.5 266.5t-70 293.5t-199 199.5t-319 70t-347.5 -88t-240.5 -251.5t-83 -379.5q0 -290 155 -446
t445 -156q221 0 461 90v-164q-210 -86 -457 -86q-370 0 -577 199.5t-207 556.5q0 261 112 464.5t310.5 311.5t432.5 108t403.5 -90t263 -256.5t93.5 -384.5q0 -143 -45 -261.5t-126.5 -184.5t-174.5 -66t-151 42t-78 114h-12q-98 -156 -272 -156t-267.5 105.5t-93.5 297.5
t124 320.5t318 128.5z" />
    <glyph glyph-name="A" unicode="A" horiz-adv-x="1354" 
d="M891 612l-137 398q-45 120 -78 252q-27 -123 -79 -269l-132 -381h426zM1100 0l-146 406h-559l-143 -406h-252l547 1468h260l547 -1468h-254z" />
    <glyph glyph-name="B" unicode="B" horiz-adv-x="1352" 
d="M989 440q0 224 -315 224h-242v-463h254q150 0 226.5 57.5t76.5 181.5zM432 858h230q150 0 219 48t69 156t-74.5 154t-236.5 46h-207v-404zM193 1462h434q302 0 436.5 -88t134.5 -278q0 -128 -66 -213t-190 -107v-10q154 -29 226.5 -114.5t72.5 -231.5
q0 -197 -137.5 -308.5t-382.5 -111.5h-528v1462z" />
    <glyph glyph-name="C" unicode="C" horiz-adv-x="1298" 
d="M373 723q0 -263 113.5 -401t328.5 -138q147 0 361 66v-205q-172 -65 -390 -65q-321 0 -493 194.5t-172 556.5q0 228 83.5 399t241.5 262t376 91t409 -94l-86 -199q-186 88 -330 88q-206 0 -324 -146t-118 -409z" />
    <glyph glyph-name="D" unicode="D" horiz-adv-x="1503" 
d="M602 201q528 1 528 531t-491 530h-207v-1061h170zM1382 734q0 -352 -201 -543t-579 -191h-409v1462h452q349 0 543 -188t194 -540z" />
    <glyph glyph-name="E" unicode="E" horiz-adv-x="1143" 
d="M1020 0h-827v1462h827v-202h-588v-398h551v-200h-551v-459h588v-203z" />
    <glyph glyph-name="F" unicode="F" horiz-adv-x="1090" 
d="M430 0h-237v1462h825v-202h-588v-457h551v-203h-551v-600z" />
    <glyph glyph-name="G" unicode="G" horiz-adv-x="1487" 
d="M121 728q0 356 203 555.5t559 199.5q229 0 434 -88l-84 -199q-178 82 -356 82q-234 0 -370 -147t-136 -409t122.5 -401t352.5 -139q116 0 248 29v377h-303v205h538v-734q-243 -79 -516 -79q-332 0 -512 196t-180 552z" />
    <glyph glyph-name="H" unicode="H" horiz-adv-x="1538" 
d="M1346 0h-240v659h-674v-659h-239v1462h239v-598h674v598h240v-1462z" />
    <glyph glyph-name="I" unicode="I" horiz-adv-x="625" 
d="M193 0v1462h239v-1462h-239z" />
    <glyph glyph-name="J" unicode="J" horiz-adv-x="612" 
d="M8 -408q-98 0 -164 25v201q84 -21 146 -21q196 0 196 248v1417h240v-1409q0 -224 -106.5 -342.5t-311.5 -118.5z" />
    <glyph glyph-name="K" unicode="K" horiz-adv-x="1309" 
d="M432 0h-239v1462h239v-698q98 120 195 231l395 467h272q-383 -450 -549 -641l564 -821h-277l-459 662l-141 -115v-547z" />
    <glyph glyph-name="L" unicode="L" horiz-adv-x="1110" 
d="M193 0v1462h239v-1257h619v-205h-858z" />
    <glyph glyph-name="M" unicode="M" horiz-adv-x="1890" 
d="M410 711v-711h-217v1462h337l406 -1163h6l418 1163h338v-1462h-230v723q0 109 5.5 284t9.5 212h-8l-439 -1219h-211l-424 1221h-8q17 -272 17 -510z" />
    <glyph glyph-name="N" unicode="N" horiz-adv-x="1604" 
d="M1411 0h-293l-719 1165h-8l5 -65q14 -186 14 -340v-760h-217v1462h290l717 -1159h6q-2 23 -8 167.5t-6 225.5v766h219v-1462z" />
    <glyph glyph-name="O" unicode="O" horiz-adv-x="1612" 
d="M807 184q430 0 430 548t-429 548q-214 0 -323.5 -139t-109.5 -409t109 -409t323 -139zM1491 734q0 -358 -178.5 -556t-507.5 -198t-506.5 196.5t-177.5 558.5t178.5 556t506.5 194t506.5 -196.5t178.5 -554.5z" />
    <glyph glyph-name="P" unicode="P" horiz-adv-x="1260" 
d="M432 748h127q184 0 270 64t86 195t-77 193t-240 62h-166v-514zM614 1462q547 0 547 -442q0 -229 -150 -351t-427 -122h-152v-547h-239v1462h421z" />
    <glyph glyph-name="Q" unicode="Q" horiz-adv-x="1612" 
d="M807 184q430 0 430 548t-429 548q-214 0 -323.5 -139t-109.5 -409t109 -409t323 -139zM1491 733q0 -266 -101.5 -448t-295.5 -256l350 -377h-322l-276 328h-39q-331 0 -508.5 196.5t-177.5 558.5t178.5 556t506.5 194t506.5 -197t178.5 -555z" />
    <glyph glyph-name="R" unicode="R" horiz-adv-x="1309" 
d="M432 584v-584h-239v1462h413q283 0 419 -106t136 -320q0 -273 -284 -389l413 -647h-272l-350 584h-236zM432 782h166q167 0 242 62t75 185t-81 177t-244 54h-158v-478z" />
    <glyph glyph-name="S" unicode="S" horiz-adv-x="1126" 
d="M522 182q142 0 209.5 54t67.5 140t-62 143t-259 137t-279 184t-82 250q0 183 130.5 288t344.5 105t422 -92l-76 -195q-196 82 -330 82t-194 -50.5t-60 -120.5t24 -110.5t79 -76.5t207 -99t262 -148t110 -278t-141 -304t-389 -111t-406 77v226q215 -101 422 -101z" />
    <glyph glyph-name="T" unicode="T" horiz-adv-x="1159" 
d="M698 0h-239v1257h-430v205h1099v-205h-430v-1257z" />
    <glyph glyph-name="U" unicode="U" horiz-adv-x="1520" 
d="M1339 1462v-946q0 -162 -69.5 -283.5t-201 -187t-314.5 -65.5q-272 0 -423 144t-151 396v942h240v-925q0 -181 84 -267t258 -86q338 0 338 355v923h239z" />
    <glyph glyph-name="V" unicode="V" horiz-adv-x="1274" 
d="M1026 1462h248l-512 -1462h-252l-510 1462h246l305 -909q24 -65 51 -167.5t35 -152.5q29 168 84 324z" />
    <glyph glyph-name="W" unicode="W" horiz-adv-x="1937" 
d="M1542 0h-260l-248 872q-16 57 -40 164.5t-29 149.5q-28 -177 -70 -318l-242 -868h-260l-381 1462h244l209 -852q49 -205 70 -362q23 181 73 360l238 854h237l244 -858q35 -119 74 -356q15 143 72 364l208 850h242z" />
    <glyph glyph-name="X" unicode="X" horiz-adv-x="1274" 
d="M1270 0h-275l-366 598l-369 -598h-256l485 758l-454 704h266l338 -553l338 553h258l-457 -708z" />
    <glyph glyph-name="Y" unicode="Y" horiz-adv-x="1212" 
d="M725 0h-240v559l-485 903h260l346 -667l346 667h260l-487 -895v-567z" />
    <glyph glyph-name="Z" unicode="Z" horiz-adv-x="1178" 
d="M1112 0h-1046v166l737 1091h-717v205h1006v-168l-740 -1089h760v-205z" />
    <glyph glyph-name="bracketleft" unicode="[" horiz-adv-x="676" 
d="M625 -324h-471v1786h471v-176h-256v-1433h256v-177z" />
    <glyph glyph-name="backslash" unicode="\" horiz-adv-x="799" 
d="M238 1462l544 -1462h-221l-545 1462h222z" />
    <glyph glyph-name="bracketright" unicode="]" horiz-adv-x="676" 
d="M51 -147h256v1433h-256v176h469v-1786h-469v177z" />
    <glyph glyph-name="asciicircum" unicode="^" horiz-adv-x="1100" 
d="M29 535l436 935h121l485 -935h-194l-349 694l-307 -694h-192z" />
    <glyph glyph-name="underscore" unicode="_" horiz-adv-x="879" 
d="M883 -319h-887v135h887v-135z" />
    <glyph glyph-name="grave" unicode="`" horiz-adv-x="1212" 
d="M362 1569h273q38 -70 103.5 -161t109.5 -142v-25h-158q-69 52 -174.5 150.5t-153.5 156.5v21z" />
    <glyph glyph-name="a" unicode="a" horiz-adv-x="1188" 
d="M530 160q108 0 185.5 71.5t77.5 200.5v96l-142 -6q-317 -11 -317 -193q0 -88 44 -128.5t152 -40.5zM600 1126q213 0 320.5 -92t107.5 -289v-745h-168l-47 154h-8q-80 -101 -161 -137.5t-226 -36.5t-236.5 88t-91.5 254q0 332 514 348l191 6v59q0 211 -203 211
q-135 0 -313 -84l-76 168q184 96 397 96z" />
    <glyph glyph-name="b" unicode="b" horiz-adv-x="1276" 
d="M672 934q-142 0 -204.5 -83.5t-64.5 -279.5v-16q0 -202 64 -292.5t199 -90.5q264 0 264 381t-258 381zM403 1186q0 -115 -10 -225h10q113 165 325 165t327.5 -150t115.5 -422t-117 -423t-326 -151t-325 151h-16l-43 -131h-176v1556h235v-370z" />
    <glyph glyph-name="c" unicode="c" horiz-adv-x="1014" 
d="M102 550q0 276 136.5 426t394.5 150q175 0 315 -65l-71 -189q-149 58 -246 58q-287 0 -287 -377t281 -377q157 0 297 78v-205q-117 -69 -308 -69q-251 0 -381.5 147t-130.5 423z" />
    <glyph glyph-name="d" unicode="d" horiz-adv-x="1276" 
d="M344 547q0 -377 260 -377q145 0 211 81.5t68 264.5v33q0 209 -68.5 297t-202.5 88t-201 -100.5t-67 -286.5zM546 -20q-212 0 -328 150t-116 422t117.5 423t330.5 151t327 -161h12q-17 119 -17 188v403h236v-1556h-184l-41 145h-11q-114 -165 -326 -165z" />
    <glyph glyph-name="e" unicode="e" horiz-adv-x="1180" 
d="M608 948q-112 0 -179.5 -71t-80.5 -207h502q-2 137 -66 207.5t-176 70.5zM102 548q0 268 135 423t363 155t354.5 -133t126.5 -366v-127h-737q5 -161 87 -247.5t248 -86.5t347 80v-191q-157 -75 -375 -75q-258 0 -403.5 150t-145.5 418z" />
    <glyph glyph-name="f" unicode="f" horiz-adv-x="743" 
d="M723 928h-270v-928h-236v928h-182v110l182 72v72q0 196 92 290.5t281 94.5q124 0 244 -41l-62 -178q-86 28 -166 28t-116.5 -49.5t-36.5 -148.5v-72h270v-178z" />
    <glyph glyph-name="g" unicode="g" horiz-adv-x="1139" 
d="M541 532q204 0 204 222q1 222 -205 221q-206 0 -206 -227q0 -104 53.5 -160t153.5 -56zM233 -170q0 -78 68.5 -119t226.5 -41t252 55t94 137t-51.5 112t-191.5 30h-178q-101 0 -160.5 -48t-59.5 -126zM543 1126q102 0 176 -20h383v-129l-189 -35q60 -81 60 -194
q0 -171 -118 -269t-325 -98q-53 0 -96 8q-76 -47 -76 -110q0 -38 35.5 -57t130.5 -19h193q183 0 278 -78t95 -225q0 -188 -155 -290t-448 -102q-226 0 -345 80t-119 228q0 102 64.5 171.5t180.5 96.5q-47 20 -77.5 64t-30.5 100t35 99t104 85q-86 37 -139.5 120.5
t-53.5 195.5q0 180 113.5 279t323.5 99z" />
    <glyph glyph-name="h" unicode="h" horiz-adv-x="1300" 
d="M739 1126q402 0 402 -405v-721h-236v680q0 128 -51.5 191t-163.5 63q-148 0 -217.5 -88.5t-69.5 -296.5v-549h-235v1556h235v-395q0 -95 -12 -203h15q101 168 333 168z" />
    <glyph glyph-name="i" unicode="i" horiz-adv-x="571" 
d="M154 1400q0 62 34.5 96t97.5 34t97.5 -34t34.5 -96t-34.5 -96t-97.5 -34t-97.5 34t-34.5 96zM403 0h-235v1106h235v-1106z" />
    <glyph glyph-name="j" unicode="j" horiz-adv-x="571" 
d="M154 1400q0 62 34.5 96t97.5 34t97.5 -34t34.5 -96t-34.5 -96t-97.5 -34t-97.5 34t-34.5 96zM55 -492q-106 0 -176 25v186q68 -18 139 -18q150 0 150 170v1235h235v-1251q0 -171 -89.5 -259t-258.5 -88z" />
    <glyph glyph-name="k" unicode="k" horiz-adv-x="1171" 
d="M401 0h-233v1556h233v-759l-12 -213h6l133 166l334 356h271l-445 -475l473 -631h-276l-355 485l-129 -106v-379z" />
    <glyph glyph-name="l" unicode="l" horiz-adv-x="571" 
d="M403 0h-235v1556h235v-1556z" />
    <glyph glyph-name="m" unicode="m" horiz-adv-x="1958" 
d="M1563 682q0 252 -199 252q-137 0 -200.5 -85.5t-63.5 -262.5v-586h-236v682q0 127 -48 189.5t-150 62.5q-136 0 -199.5 -88.5t-63.5 -294.5v-551h-235v1106h184l33 -145h12q46 79 133.5 122t192.5 43q255 0 338 -174h16q49 82 138 128t204 46q198 0 288.5 -100t90.5 -305
v-721h-235v682z" />
    <glyph glyph-name="n" unicode="n" horiz-adv-x="1300" 
d="M1141 0h-236v680q0 128 -51.5 191t-163.5 63q-149 0 -218 -88t-69 -295v-551h-235v1106h184l33 -145h12q50 79 142 122t204 43q398 0 398 -405v-721z" />
    <glyph glyph-name="o" unicode="o" horiz-adv-x="1251" 
d="M344 555q0 -383 282 -383t281 381q0 381 -282 381q-148 0 -214.5 -98t-66.5 -281zM1149 550q0 -266 -139 -418t-387 -152q-155 0 -274 70t-183 201t-64 304q0 269 138 420t384 151t385.5 -155t139.5 -421z" />
    <glyph glyph-name="p" unicode="p" horiz-adv-x="1276" 
d="M930 557q0 377 -264 377q-134 0 -198.5 -82t-64.5 -262v-35q0 -202 63.5 -292.5t197.5 -90.5t200 100t66 285zM728 -20q-208 0 -325 151h-14q14 -140 14 -170v-453h-235v1598h190q8 -31 33 -148h12q109 168 323 168t329.5 -150t115.5 -421t-117.5 -423t-325.5 -152z" />
    <glyph glyph-name="q" unicode="q" horiz-adv-x="1276" 
d="M872 -23q0 73 11 168h-13q-104 -165 -320 -165t-332 150.5t-116 420.5t118 422.5t328 152.5t331 -165h8l26 145h195v-1598h-236v469zM606 168q148 0 212.5 85.5t64.5 258.5v37q0 205 -66.5 295t-203.5 90q-269 0 -269 -383t262 -383z" />
    <glyph glyph-name="r" unicode="r" horiz-adv-x="883" 
d="M714 1126q86 0 132 -10l-23 -219q-50 12 -104 12q-141 0 -228.5 -92t-87.5 -239v-578h-235v1106h184l31 -195h12q55 99 144 157t175 58z" />
    <glyph glyph-name="s" unicode="s" horiz-adv-x="997" 
d="M454 -20q-220 0 -354 67v203q195 -90 363 -90q217 0 217 131q0 42 -35 83t-224 114q-188 73 -255.5 147t-67.5 204t114.5 208.5t310.5 78.5t370 -79l-76 -177q-179 74 -301 74q-186 0 -186 -106q0 -52 48.5 -88t198.5 -94t242 -123.5t92 -222.5t-118.5 -243.5
t-338.5 -86.5z" />
    <glyph glyph-name="t" unicode="t" horiz-adv-x="805" 
d="M426 336q0 -166 162 -166q78 0 164 27v-177q-92 -40 -228 -40q-334 0 -334 352v596h-151v104l162 86l80 234h145v-246h315v-178h-315v-592z" />
    <glyph glyph-name="u" unicode="u" horiz-adv-x="1300" 
d="M557 -20q-399 0 -399 403v723h237v-682q0 -127 52 -190.5t163 -63.5q148 0 217.5 88.5t69.5 296.5v551h236v-1106h-185l-33 145h-12q-49 -77 -139.5 -121t-206.5 -44z" />
    <glyph glyph-name="v" unicode="v" horiz-adv-x="1096" 
d="M420 0l-420 1106h248l225 -643q58 -162 70 -262h8q9 72 70 262l225 643h250l-422 -1106h-254z" />
    <glyph glyph-name="w" unicode="w" horiz-adv-x="1673" 
d="M1075 0l-143 516q-26 82 -94 381h-9q-58 -270 -92 -383l-147 -514h-260l-310 1106h240l141 -545q48 -202 68 -346h6q25 179 66 309l168 582h258l163 -582q15 -49 37.5 -150t26.5 -157h8q15 123 70 344l143 545h236l-312 -1106h-264z" />
    <glyph glyph-name="x" unicode="x" horiz-adv-x="1128" 
d="M414 565l-371 541h268l252 -387l254 387h266l-372 -541l391 -565h-266l-273 414l-272 -414h-266z" />
    <glyph glyph-name="y" unicode="y" horiz-adv-x="1098" 
d="M195 -492q-78 0 -152 17v186q53 -12 121 -12q170 0 239 197l41 104l-444 1106h256l225 -627q51 -134 68 -252h8q9 55 33 133.5t254 745.5h254l-473 -1253q-129 -345 -430 -345z" />
    <glyph glyph-name="z" unicode="z" horiz-adv-x="979" 
d="M907 0h-839v145l559 781h-525v180h789v-164l-547 -762h563v-180z" />
    <glyph glyph-name="braceleft" unicode="{" horiz-adv-x="791" 
d="M45 664q266 0 266 184v311q0 156 108.5 229.5t325.5 73.5v-182q-114 -5 -165.5 -46.5t-51.5 -123.5v-297q0 -199 -229 -238v-12q229 -36 229 -237v-299q0 -82 51 -124t166 -44v-183q-231 2 -332.5 78.5t-101.5 247.5v285q0 186 -266 186v191z" />
    <glyph glyph-name="bar" unicode="|" horiz-adv-x="1128" 
d="M473 1552h180v-2033h-180v2033z" />
    <glyph glyph-name="braceright" unicode="}" horiz-adv-x="760" 
d="M463 -20q0 -156 -99.5 -229t-318.5 -75v183q95 1 148 38.5t53 129.5v262q0 121 53 187t176 87v12q-229 39 -229 238v297q0 82 -45.5 123.5t-155.5 46.5v182q223 0 320.5 -76.5t97.5 -250.5v-287q0 -100 63.5 -142t188.5 -42v-191q-123 0 -187.5 -42.5t-64.5 -143.5v-307z
" />
    <glyph glyph-name="asciitilde" unicode="~" 
d="M851 752q102 0 222 120v-190q-105 -111 -235 -111q-130 1 -273 61t-245 60t-224 -121v191q99 108 250 108q66 0 125 -13t169 -59t211 -46z" />
    <glyph glyph-name="nonbreakingspace" unicode="&#xa0;" horiz-adv-x="532" 
 />
    <glyph glyph-name="exclamdown" unicode="&#xa1;" horiz-adv-x="565" 
d="M430 965q0 -152 -149 -152q-72 0 -110 39.5t-38 110.5t38 113t110 42t110.5 -40.5t38.5 -112.5zM193 645h174l51 -1016h-277z" />
    <glyph glyph-name="cent" unicode="&#xa2;" 
d="M690 371q139 0 297 67v-200q-119 -59 -258 -64v-194h-156v200q-407 61 -407 565t407 568v170h158v-162q152 -5 283 -66l-70 -188q-146 59 -250 59q-146 0 -216 -95t-70 -288q0 -372 282 -372z" />
    <glyph glyph-name="sterling" unicode="&#xa3;" 
d="M688 1481q196 0 377 -82l-76 -182q-162 71 -284 71q-205 0 -205 -219v-244h397v-172h-397v-182q0 -91 -33 -155t-113 -109h756v-207h-1038v195q98 30 145 96t47 178v184h-188v172h188v256q0 188 114 294t310 106z" />
    <glyph glyph-name="currency" unicode="&#xa4;" 
d="M354 722q0 -98 68 -164t164 -66t163.5 66t67.5 164t-68 166t-163 68t-163.5 -68t-68.5 -166zM186 720q0 112 64 216l-133 133l121 119l131 -129q100 63 215 63t213 -65l133 131l121 -117l-131 -133q63 -100 63 -217t-63 -215l129 -129l-119 -119l-133 129
q-99 -61 -219 -61t-209 61l-131 -127l-119 119l131 129q-64 100 -64 212z" />
    <glyph glyph-name="yen" unicode="&#xa5;" 
d="M977 702v-151h-281v-154h281v-153h-281v-244h-225v244h-283v153h283v154h-283v151h224l-394 760h246l320 -665l321 665h244l-399 -760h227z" />
    <glyph glyph-name="brokenbar" unicode="&#xa6;" horiz-adv-x="1128" 
d="M473 315h180v-796h-180v796zM473 1552h180v-794h-180v794z" />
    <glyph glyph-name="section" unicode="&#xa7;" horiz-adv-x="1026" 
d="M313 831q0 -49 24 -84t78.5 -69t194.5 -90q109 65 109 168q0 75 -62 126.5t-221 104.5q-54 -16 -88.5 -61.5t-34.5 -94.5zM133 1284q0 140 109.5 213.5t290.5 73.5t360 -76l-68 -162q-116 50 -176 63t-121 13q-194 0 -194 -109q0 -54 55 -93t211 -99t230.5 -138.5
t74.5 -187.5q0 -177 -139 -266q139 -80 139 -222t-118 -225t-328 -83t-344 71v179q77 -40 173 -65.5t177 -25.5q235 0 235 131q0 43 -29.5 80.5t-189.5 100.5q-161 63 -256.5 131.5t-95.5 226.5t150 246q-146 83 -146 223z" />
    <glyph glyph-name="dieresis" unicode="&#xa8;" horiz-adv-x="1212" 
d="M686 1400q0 60 34 88t84 28t82 -31t32 -85t-33 -86t-83 -32t-83 29t-33 89zM293 1400q0 60 33.5 88t83.5 28t82 -31t32 -85t-32 -86t-82 -32t-83.5 29t-33.5 89z" />
    <glyph glyph-name="copyright" unicode="&#xa9;" horiz-adv-x="1704" 
d="M223 732q0 -170 84.5 -316t230.5 -230t315 -84t315 85.5t229.5 230t83.5 312.5t-84.5 315t-230.5 231t-314 84t-312.5 -83t-230.5 -229t-86 -316zM100 732q0 199 100 374t275 276t376 101t376 -100t276 -274.5t101 -374.5t-97 -373t-272 -277t-383 -104t-382.5 103.5
t-272 276.5t-97.5 372zM662 731q0 -305 227 -305q119 0 231 51v-158q-115 -51 -235 -51q-197 0 -305.5 120.5t-108.5 338.5t110 341.5t306 123.5q138 0 274 -70l-65 -143q-106 55 -210 55t-164 -80.5t-60 -222.5z" />
    <glyph glyph-name="ordfeminine" unicode="&#xaa;" horiz-adv-x="754" 
d="M317 895q183 0 183 164v43l-99 -4q-71 -2 -125.5 -34t-54.5 -81q0 -88 96 -88zM283 770q-226 0 -226 210t336 222l107 4q0 144 -138 144q-90 0 -210 -56l-54 115q144 70 285 70q276 0 276 -250v-447h-112l-29 97q-91 -109 -235 -109z" />
    <glyph glyph-name="guillemotleft" unicode="&#xab;" horiz-adv-x="1139" 
d="M532 561l357 432l168 -94l-283 -350l283 -348l-168 -97l-357 431v26zM82 561l356 432l168 -94l-282 -350l282 -348l-168 -97l-356 431v26z" />
    <glyph glyph-name="logicalnot" unicode="&#xac;" 
d="M1073 256h-178v377h-799v178h977v-555z" />
    <glyph glyph-name="uni00AD" unicode="&#xad;" horiz-adv-x="659" 
d="M72 449v200h514v-200h-514z" />
    <glyph glyph-name="registered" unicode="&#xae;" horiz-adv-x="1704" 
d="M223 732q0 -170 84.5 -316t230.5 -230t315 -84t315 85.5t229.5 230t83.5 312.5t-84.5 315t-230.5 231t-314 84t-312.5 -83t-230.5 -229t-86 -316zM100 732q0 199 100 374t275 276t376 101t376 -100t276 -274.5t101 -374.5t-97 -373t-272 -277t-383 -104t-382.5 103.5
t-272 276.5t-97.5 372zM1157 909q0 -171 -153 -233l237 -397h-211l-192 346h-90v-346h-189v903h262q174 0 255 -68t81 -205zM817 770q150 0 150 138q0 68 -36.5 97t-115.5 29h-67v-264h69z" />
    <glyph glyph-name="overscore" unicode="&#xaf;" horiz-adv-x="1024" 
d="M1030 1556h-1036v164h1036v-164z" />
    <glyph glyph-name="degree" unicode="&#xb0;" horiz-adv-x="877" 
d="M262 1155q0 -72 51 -124t125 -52t125 51.5t51 125.5t-52 124.5t-124 50.5t-124 -52t-52 -124zM109 1153q0 135 95.5 232.5t233.5 97.5t233 -96.5t95 -234.5t-96 -232.5t-232 -94.5q-88 0 -164.5 43.5t-120.5 119.5t-44 165z" />
    <glyph glyph-name="plusminus" unicode="&#xb1;" 
d="M96 0v178h977v-178h-977zM494 664h-398v178h398v407h180v-407h399v-178h-399v-406h-180v406z" />
    <glyph glyph-name="twosuperior" unicode="&#xb2;" horiz-adv-x="743" 
d="M678 586h-627v135l230 225q117 112 149.5 165t32.5 109t-32 82.5t-83 26.5q-93 0 -201 -88l-94 121q139 119 292 119t228.5 -66.5t75.5 -164.5t-46 -173.5t-183 -202.5l-139 -129h397v-159z" />
    <glyph glyph-name="threesuperior" unicode="&#xb3;" horiz-adv-x="743" 
d="M338 1481q150 0 228.5 -61.5t78.5 -168.5q0 -75 -40.5 -122.5t-119.5 -86.5q94 -21 141.5 -76t47.5 -132q0 -127 -93 -196t-253 -69t-283 62v157q145 -79 270 -79q179 0 179 135q0 125 -199 125h-115v133h105q184 0 184 129q0 52 -34.5 80t-90.5 28q-92 0 -211 -77
l-84 114q139 105 289 105z" />
    <glyph glyph-name="acute" unicode="&#xb4;" horiz-adv-x="1212" 
d="M848 1569v-21q-52 -61 -155.5 -157.5t-174.5 -149.5h-156v25q133 163 213 303h273z" />
    <glyph glyph-name="mu" unicode="&#xb5;" horiz-adv-x="1309" 
d="M403 -172v-320h-235v1598h235v-684q0 -252 218 -252q146 0 215 88.5t69 296.5v551h236v-1106h-183l-34 147h-13q-97 -167 -295 -167q-140 0 -219 90h-4q10 -93 10 -242z" />
    <glyph glyph-name="paragraph" unicode="&#xb6;" horiz-adv-x="1341" 
d="M1143 -260h-137v1663h-191v-1663h-137v819q-62 -18 -146 -18q-216 0 -317.5 124.5t-101.5 380.5t109 383t341 127h580v-1816z" />
    <glyph glyph-name="periodcentered" unicode="&#xb7;" horiz-adv-x="563" 
d="M133 724q0 72 38.5 111t110.5 39t110 -41t38 -111t-38.5 -111.5t-110.5 -41.5t-110 41.5t-38 113.5z" />
    <glyph glyph-name="cedilla" unicode="&#xb8;" horiz-adv-x="442" 
d="M426 -270q0 -222 -305 -222q-66 0 -121 15v137q54 -14 116 -14t93 16.5t31 61.5q0 85 -179 110l84 166h152l-41 -88q80 -21 125 -68.5t45 -113.5z" />
    <glyph glyph-name="onesuperior" unicode="&#xb9;" horiz-adv-x="743" 
d="M532 586h-186v512l3 103l5 91q-45 -48 -182 -151l-88 112l281 209h167v-876z" />
    <glyph glyph-name="ordmasculine" unicode="&#xba;" horiz-adv-x="780" 
d="M223 1125q0 -112 39 -167t127 -55t127 55t39 167t-39 166.5t-127 54.5t-127 -54.5t-39 -166.5zM719 1125q0 -165 -87.5 -260t-241.5 -95t-241.5 95.5t-87.5 261.5t88.5 259t240.5 93t240.5 -94.5t88.5 -259.5z" />
    <glyph glyph-name="guillemotright" unicode="&#xbb;" horiz-adv-x="1139" 
d="M606 535l-358 -431l-168 97l282 348l-282 350l168 94l358 -432v-26zM1057 535l-359 -431l-168 97l283 348l-283 350l168 94l359 -432v-26z" />
    <glyph glyph-name="onequarter" unicode="&#xbc;" horiz-adv-x="1700" 
d="M1333 1462l-856 -1462h-192l858 1462h190zM508 586h-186v512l3 103l5 91q-45 -48 -182 -151l-88 112l281 209h167v-876zM1268 320v178q0 97 6 197q-52 -104 -88 -158l-148 -217h230zM1585 177h-125v-176h-192v176h-392v127l396 579h188v-563h125v-143z" />
    <glyph glyph-name="onehalf" unicode="&#xbd;" horiz-adv-x="1700" 
d="M1298 1462l-856 -1462h-192l858 1462h190zM494 586h-186v512l3 103l5 91q-45 -48 -182 -151l-88 112l281 209h167v-876zM1608 1h-627v135l230 225q117 112 149 165q32 52 33 108q0 56 -32 83t-83 27q-93 0 -201 -88l-94 121q139 119 292 119t229 -66t75 -164
q0 -98 -46 -174t-183 -203l-139 -129h397v-159z" />
    <glyph glyph-name="threequarters" unicode="&#xbe;" horiz-adv-x="1700" 
d="M1415 1462l-856 -1462h-192l858 1462h190zM1323 320v178q0 97 6 197q-52 -104 -88 -158l-148 -217h230zM1640 177h-125v-176h-192v176h-392v127l396 579h188v-563h125v-143zM348 1481q150 1 228 -61t79 -169q-1 -75 -41 -123t-119 -86q93 -21 141 -76t48 -132
q0 -127 -93 -196t-253 -69t-283 62v157q145 -79 270 -79q179 0 179 135q0 125 -199 125h-115v133h105q184 0 184 129q-1 52 -35 80t-90 28q-92 0 -211 -77l-84 114q139 105 289 105z" />
    <glyph glyph-name="questiondown" unicode="&#xbf;" horiz-adv-x="928" 
d="M692 965q0 -152 -149 -152q-72 0 -110 39.5t-38 110.5t38 113t110 42t110.5 -40.5t38.5 -112.5zM512 -197q123 0 324 93l82 -179q-220 -110 -426 -110t-321.5 95.5t-115.5 248.5t64 230t168 160t135 131.5t31 127.5v45h198v-63q0 -106 -41 -181t-154 -164t-144 -138
t-31 -125t54 -123.5t177 -47.5z" />
    <glyph glyph-name="Agrave" unicode="&#xc0;" horiz-adv-x="1354" 
d="M891 612l-137 398q-45 120 -78 252q-27 -123 -79 -269l-132 -381h426zM1100 0l-146 406h-559l-143 -406h-252l547 1468h260l547 -1468h-254zM334 1907h273q37 -70 103 -161t110 -142v-25h-158q-68 53 -174 151t-154 156v21z" />
    <glyph glyph-name="Aacute" unicode="&#xc1;" horiz-adv-x="1354" 
d="M891 612l-137 398q-45 120 -78 252q-27 -123 -79 -269l-132 -381h426zM1100 0l-146 406h-559l-143 -406h-252l547 1468h260l547 -1468h-254zM1018 1907v-21q-52 -62 -156 -158t-174 -149h-156v25q133 163 213 303h273z" />
    <glyph glyph-name="Acircumflex" unicode="&#xc2;" horiz-adv-x="1354" 
d="M891 612l-137 398q-45 120 -78 252q-27 -123 -79 -269l-132 -381h426zM1100 0l-146 406h-559l-143 -406h-252l547 1468h260l547 -1468h-254zM286 1579v25q191 198 254 303h260q63 -110 256 -303v-25h-159q-123 73 -228 180q-103 -103 -225 -180h-158z" />
    <glyph glyph-name="Atilde" unicode="&#xc3;" horiz-adv-x="1354" 
d="M891 612l-137 398q-45 120 -78 252q-27 -123 -79 -269l-132 -381h426zM1100 0l-146 406h-559l-143 -406h-252l547 1468h260l547 -1468h-254zM821 1579q-60 0 -130 39q-71 38 -108 56t-71 18q-81 0 -109 -115h-122q11 139 77 212t168 73q62 0 164 -56q40 -22 76 -40
t70 -17q79 0 106 115h125q-12 -134 -77 -210t-169 -75z" />
    <glyph glyph-name="Adieresis" unicode="&#xc4;" horiz-adv-x="1354" 
d="M891 612l-137 398q-45 120 -78 252q-27 -123 -79 -269l-132 -381h426zM1100 0l-146 406h-559l-143 -406h-252l547 1468h260l547 -1468h-254zM756 1738q0 60 34 88t84 28t82 -31t32 -85t-33 -86t-83 -32t-82 29q-34 29 -34 89zM363 1738q-1 60 33 88t84 28t82 -31t32 -85
t-32 -86t-82 -32t-84 29t-33 89z" />
    <glyph glyph-name="Aring" unicode="&#xc5;" horiz-adv-x="1354" 
d="M891 612l-137 398q-45 120 -78 252q-27 -123 -79 -269l-132 -381h426zM438 1567q0 109 64 171t170 63q106 0 174 -62t67 -169q0 -107 -80 -171l521 -1399h-254l-146 406h-559l-143 -406h-252l520 1395q-82 63 -82 172zM780 1574q0 50 -30 80q-30 28 -76 28t-77 -28
q-30 -28 -30 -79q0 -106 107 -106q46 -1 76 27t30 78z" />
    <glyph glyph-name="AE" unicode="&#xc6;" horiz-adv-x="1868" 
d="M936 612v641h-123l-291 -641h414zM1747 0h-811v406h-504l-188 -406h-246l678 1462h1071v-202h-571v-398h532v-200h-532v-459h571v-203z" />
    <glyph glyph-name="Ccedilla" unicode="&#xc7;" horiz-adv-x="1298" 
d="M373 723q-1 -263 113 -401t329 -138q147 0 361 66v-205q-161 -61 -362 -65l-32 -68q80 -20 125 -68t45 -114q0 -222 -305 -222q-66 0 -121 15v137q54 -14 116 -14t92 16q32 16 32 62q0 85 -179 110l78 154q-234 30 -372 186q-172 194 -172 557q-1 228 83 399t242 262
t376 91t409 -94l-86 -199q-186 88 -330 88q-206 0 -324 -146t-118 -409z" />
    <glyph glyph-name="Egrave" unicode="&#xc8;" horiz-adv-x="1143" 
d="M1020 0h-827v1462h827v-202h-588v-398h551v-200h-551v-459h588v-203zM289 1907h273q38 -70 104 -161t109 -142v-25h-158q-69 53 -175 151t-153 156v21z" />
    <glyph glyph-name="Eacute" unicode="&#xc9;" horiz-adv-x="1143" 
d="M1020 0h-827v1462h827v-202h-588v-398h551v-200h-551v-459h588v-203zM926 1907v-21q-52 -62 -156 -158t-174 -149h-156v25q133 163 213 303h273z" />
    <glyph glyph-name="Ecircumflex" unicode="&#xca;" horiz-adv-x="1143" 
d="M1020 0h-827v1462h827v-202h-588v-398h551v-200h-551v-459h588v-203zM220 1579v25q191 198 254 303h260q63 -110 256 -303v-25h-159q-123 73 -228 180q-103 -103 -225 -180h-158z" />
    <glyph glyph-name="Edieresis" unicode="&#xcb;" horiz-adv-x="1143" 
d="M1020 0h-827v1462h827v-202h-588v-398h551v-200h-551v-459h588v-203zM690 1738q0 60 34 88t84 28t82 -31t32 -85t-33 -86t-83 -32t-82 29q-34 29 -34 89zM297 1738q-1 60 33 88t84 28t82 -31t32 -85t-32 -86t-82 -32t-84 29t-33 89z" />
    <glyph glyph-name="Igrave" unicode="&#xcc;" horiz-adv-x="625" 
d="M193 0v1462h239v-1462h-239zM-6 1907h273q37 -70 103 -161t110 -142v-25h-158q-68 53 -174 151t-154 156v21z" />
    <glyph glyph-name="Iacute" unicode="&#xcd;" horiz-adv-x="625" 
d="M193 0v1462h239v-1462h-239zM665 1907v-21q-51 -62 -155 -158t-175 -149h-156v25q133 163 213 303h273z" />
    <glyph glyph-name="Icircumflex" unicode="&#xce;" horiz-adv-x="625" 
d="M193 0v1462h239v-1462h-239zM-75 1579v25q191 198 254 303h260q63 -110 256 -303v-25h-159q-123 73 -228 180q-103 -103 -225 -180h-158z" />
    <glyph glyph-name="Idieresis" unicode="&#xcf;" horiz-adv-x="625" 
d="M193 0v1462h239v-1462h-239zM394 1738q0 60 34 88t84 28t82 -31t32 -85t-33 -86t-83 -32t-82 29q-34 29 -34 89zM1 1738q-1 60 33 88t84 28t82 -31t32 -85t-32 -86t-82 -32t-84 29t-33 89z" />
    <glyph glyph-name="Eth" unicode="&#xd0;" horiz-adv-x="1497" 
d="M1122 737q0 260 -124.5 392.5t-368.5 132.5h-197v-439h307v-200h-307v-422h160q530 0 530 536zM1374 735q0 -350 -201 -542.5t-579 -192.5h-401v623h-146v200h146v639h446q347 0 541 -188.5t194 -538.5z" />
    <glyph glyph-name="Ntilde" unicode="&#xd1;" horiz-adv-x="1604" 
d="M1411 0h-293l-719 1165h-8l5 -65q14 -186 14 -340v-760h-217v1462h290l717 -1159h6q-2 23 -8 167t-6 226v766h219v-1462zM954 1579q-60 0 -130 39q-71 38 -108 56t-71 18q-81 0 -109 -115h-122q12 139 78 212t167 73q62 0 164 -56q39 -22 75 -40t71 -17q79 0 106 115h125
q-12 -134 -77 -210t-169 -75z" />
    <glyph glyph-name="Ograve" unicode="&#xd2;" horiz-adv-x="1612" 
d="M807 184q430 0 430 548t-429 548q-214 0 -324 -139t-109 -409q0 -270 109 -408q109 -140 323 -140zM1491 734q-1 -358 -179 -556t-507 -198t-507 196t-177 559q1 362 179 556t506 194t507 -197q178 -196 178 -554zM481 1907h273q38 -70 104 -161t109 -142v-25h-158
q-69 53 -175 151t-153 156v21z" />
    <glyph glyph-name="Oacute" unicode="&#xd3;" horiz-adv-x="1612" 
d="M807 184q430 0 430 548t-429 548q-214 0 -324 -139t-109 -409q0 -270 109 -408q109 -140 323 -140zM1491 734q-1 -358 -179 -556t-507 -198t-507 196t-177 559q1 362 179 556t506 194t507 -197q178 -196 178 -554zM1143 1907v-21q-51 -62 -155 -158t-175 -149h-156v25
q133 163 213 303h273z" />
    <glyph glyph-name="Ocircumflex" unicode="&#xd4;" horiz-adv-x="1612" 
d="M807 184q430 0 430 548t-429 548q-214 0 -324 -139t-109 -409q0 -270 109 -408q109 -140 323 -140zM1491 734q-1 -358 -179 -556t-507 -198t-507 196t-177 559q1 362 179 556t506 194t507 -197q178 -196 178 -554zM413 1579v25q191 198 254 303h260q63 -110 256 -303v-25
h-159q-123 73 -228 180q-103 -103 -225 -180h-158z" />
    <glyph glyph-name="Otilde" unicode="&#xd5;" horiz-adv-x="1612" 
d="M807 184q430 0 430 548t-429 548q-214 0 -324 -139t-109 -409q0 -270 109 -408q109 -140 323 -140zM1491 734q-1 -358 -179 -556t-507 -198t-507 196t-177 559q1 362 179 556t506 194t507 -197q178 -196 178 -554zM950 1579q-60 0 -130 39q-71 38 -108 56t-71 18
q-81 0 -109 -115h-122q12 139 78 212t167 73q62 0 164 -56q39 -22 75 -40t71 -17q79 0 106 115h125q-12 -134 -77 -210t-169 -75z" />
    <glyph glyph-name="Odieresis" unicode="&#xd6;" horiz-adv-x="1612" 
d="M807 184q430 0 430 548t-429 548q-214 0 -324 -139t-109 -409q0 -270 109 -408q109 -140 323 -140zM1491 734q-1 -358 -179 -556t-507 -198t-507 196t-177 559q1 362 179 556t506 194t507 -197q178 -196 178 -554zM889 1738q-1 60 33 88t84 28t83 -31q32 -31 32 -85
t-33 -86q-32 -32 -82 -32t-84 29t-33 89zM496 1738q0 60 34 88t84 28t82 -31t31 -85q0 -54 -32 -86t-82 -32q-49 0 -83 29t-34 89z" />
    <glyph glyph-name="multiply" unicode="&#xd7;" 
d="M457 723l-326 326l125 127l328 -326l329 326l125 -123l-329 -330l325 -328l-123 -125l-329 326l-324 -326l-125 125z" />
    <glyph glyph-name="Oslash" unicode="&#xd8;" horiz-adv-x="1612" 
d="M375 752q0 -250 78 -381l587 850q-92 59 -231 59q-215 0 -324.5 -139t-109.5 -389zM807 184q430 0 430 549q0 225 -80 361l-586 -850q97 -60 236 -60zM1491 738q0 -362 -178.5 -560t-505.5 -198q-213 0 -361 81l-94 -137l-141 94l98 144q-188 196 -188 566t178.5 563.5
t509.5 193.5q199 0 354 -82l90 129l142 -92l-99 -140q195 -200 195 -562z" />
    <glyph glyph-name="Ugrave" unicode="&#xd9;" horiz-adv-x="1520" 
d="M1339 1462v-946q1 -162 -69 -284t-202 -186q-132 -66 -314 -66q-272 0 -423 144t-151 396v942h240v-925q0 -181 84 -267t258 -86q338 0 338 355v923h239zM417 1907h273q38 -70 104 -161t109 -142v-25h-158q-69 53 -175 151t-153 156v21z" />
    <glyph glyph-name="Uacute" unicode="&#xda;" horiz-adv-x="1520" 
d="M1339 1462v-946q1 -162 -69 -284t-202 -186q-132 -66 -314 -66q-272 0 -423 144t-151 396v942h240v-925q0 -181 84 -267t258 -86q338 0 338 355v923h239zM1086 1907v-21q-52 -62 -156 -158t-174 -149h-156v25q133 163 213 303h273z" />
    <glyph glyph-name="Ucircumflex" unicode="&#xdb;" horiz-adv-x="1520" 
d="M1339 1462v-946q1 -162 -69 -284t-202 -186q-132 -66 -314 -66q-272 0 -423 144t-151 396v942h240v-925q0 -181 84 -267t258 -86q338 0 338 355v923h239zM366 1579v25q191 198 254 303h260q63 -110 256 -303v-25h-159q-123 73 -228 180q-103 -103 -225 -180h-158z" />
    <glyph glyph-name="Udieresis" unicode="&#xdc;" horiz-adv-x="1520" 
d="M1339 1462v-946q1 -162 -69 -284t-202 -186q-132 -66 -314 -66q-272 0 -423 144t-151 396v942h240v-925q0 -181 84 -267t258 -86q338 0 338 355v923h239zM838 1738q0 60 34 88t84 28t82 -31t32 -85t-33 -86t-83 -32t-82 29q-34 29 -34 89zM445 1738q-1 60 33 88t84 28
t82 -31t32 -85t-32 -86t-82 -32t-84 29t-33 89z" />
    <glyph glyph-name="Yacute" unicode="&#xdd;" horiz-adv-x="1212" 
d="M725 0h-240v559l-485 903h260l346 -667l346 667h260l-487 -895v-567zM936 1907v-21q-52 -62 -156 -158t-174 -149h-156v25q133 163 213 303h273z" />
    <glyph glyph-name="Thorn" unicode="&#xde;" horiz-adv-x="1268" 
d="M432 504h133q187 0 273 63t86 197t-78 195t-250 61h-164v-516zM629 1219q540 0 540 -447q0 -223 -146 -345t-423 -122h-168v-305h-239v1462h239v-243h197z" />
    <glyph glyph-name="germandbls" unicode="&#xdf;" horiz-adv-x="1364" 
d="M862 839q0 -29 22.5 -54.5t79.5 -63.5l95 -64q92 -62 157.5 -133.5t65.5 -221.5t-107 -236t-304 -86t-306 65v199q58 -37 139 -61.5t148 -24.5q192 0 192 151q0 61 -34.5 105t-154.5 118t-172 135t-52 135t34 126.5t107 106.5t105 96.5t32 104.5t-67 102t-186 40
t-186 -54t-67 -159v-1165h-235v1169q0 193 128.5 295.5t360.5 102.5t362 -84t130 -231t-143 -257q-90 -69 -117 -98t-27 -58z" />
    <glyph glyph-name="agrave" unicode="&#xe0;" horiz-adv-x="1188" 
d="M530 160q108 0 186 72t77 200v96l-142 -6q-317 -11 -317 -193q0 -89 44 -129t152 -40zM600 1126q212 0 320 -92t108 -289v-745h-168l-47 154h-8q-80 -102 -161 -138t-226 -36q-144 0 -236 88t-92 254q0 332 514 348l191 6v59q0 211 -203 211q-135 0 -313 -84l-76 168
q184 96 397 96zM259 1569h273q38 -70 104 -161t109 -142v-25h-158q-69 53 -175 151t-153 156v21z" />
    <glyph glyph-name="aacute" unicode="&#xe1;" horiz-adv-x="1188" 
d="M530 160q108 0 186 72t77 200v96l-142 -6q-317 -11 -317 -193q0 -89 44 -129t152 -40zM600 1126q212 0 320 -92t108 -289v-745h-168l-47 154h-8q-80 -102 -161 -138t-226 -36q-144 0 -236 88t-92 254q0 332 514 348l191 6v59q0 211 -203 211q-135 0 -313 -84l-76 168
q184 96 397 96zM924 1569v-21q-52 -62 -156 -158t-174 -149h-156v25q133 163 213 303h273z" />
    <glyph glyph-name="acircumflex" unicode="&#xe2;" horiz-adv-x="1188" 
d="M530 160q108 0 186 72t77 200v96l-142 -6q-317 -11 -317 -193q0 -89 44 -129t152 -40zM600 1126q212 0 320 -92t108 -289v-745h-168l-47 154h-8q-80 -102 -161 -138t-226 -36q-144 0 -236 88t-92 254q0 332 514 348l191 6v59q0 211 -203 211q-135 0 -313 -84l-76 168
q184 96 397 96zM203 1241v25q191 198 254 303h260q63 -110 256 -303v-25h-159q-123 73 -228 180q-103 -103 -225 -180h-158z" />
    <glyph glyph-name="atilde" unicode="&#xe3;" horiz-adv-x="1188" 
d="M530 160q108 0 186 72t77 200v96l-142 -6q-317 -11 -317 -193q0 -89 44 -129t152 -40zM600 1126q212 0 320 -92t108 -289v-745h-168l-47 154h-8q-80 -102 -161 -138t-226 -36q-144 0 -236 88t-92 254q0 332 514 348l191 6v59q0 211 -203 211q-135 0 -313 -84l-76 168
q184 96 397 96zM748 1241q-60 0 -130 39q-71 38 -108 56t-71 18q-81 0 -109 -115h-122q12 139 78 212t167 73q62 0 164 -56q39 -22 75 -40t71 -17q79 0 106 115h125q-12 -134 -77 -210t-169 -75z" />
    <glyph glyph-name="adieresis" unicode="&#xe4;" horiz-adv-x="1188" 
d="M530 160q108 0 186 72t77 200v96l-142 -6q-317 -11 -317 -193q0 -89 44 -129t152 -40zM600 1126q212 0 320 -92t108 -289v-745h-168l-47 154h-8q-80 -102 -161 -138t-226 -36q-144 0 -236 88t-92 254q0 332 514 348l191 6v59q0 211 -203 211q-135 0 -313 -84l-76 168
q184 96 397 96zM675 1400q-1 60 33 88t84 28t83 -31q32 -31 32 -85t-33 -86q-32 -32 -82 -32t-84 29t-33 89zM282 1400q0 60 34 88t84 28t82 -31t31 -85q0 -54 -32 -86t-82 -32q-49 0 -83 29t-34 89z" />
    <glyph glyph-name="aring" unicode="&#xe5;" horiz-adv-x="1188" 
d="M530 160q108 0 186 72t77 200v96l-142 -6q-317 -11 -317 -193q0 -89 44 -129t152 -40zM600 1126q212 0 320 -92t108 -289v-745h-168l-47 154h-8q-80 -102 -161 -138t-226 -36q-144 0 -236 88t-92 254q0 332 514 348l191 6v59q0 211 -203 211q-135 0 -313 -84l-76 168
q184 96 397 96zM708 1466q0 50 -30 78t-76 29q-46 -1 -77 -29q-30 -28 -30 -78q0 -106 107 -106q46 0 76 28t30 78zM841 1467q1 -101 -65 -165t-174 -63t-172 63t-64 164t64 164t170 62t174 -62t67 -163z" />
    <glyph glyph-name="ae" unicode="&#xe6;" horiz-adv-x="1817" 
d="M1262 948q-108 0 -173.5 -69.5t-74.5 -208.5h473q0 130 -58.5 204t-166.5 74zM334 315q0 -155 166 -155q124 0 196 72.5t72 199.5v96l-135 -6q-155 -6 -227 -54.5t-72 -152.5zM432 -20q-155 0 -248.5 90t-93.5 254q0 330 492 346l188 6v76q0 194 -201 194
q-141 0 -307 -82l-74 166q180 96 408 96q229 0 328 -155q120 155 336 155t338 -134.5t122 -362.5v-127h-712q10 -336 301 -336q184 0 356 80v-191q-157 -75 -367 -75q-291 0 -424 219q-94 -125 -190.5 -172t-251.5 -47z" />
    <glyph glyph-name="ccedilla" unicode="&#xe7;" horiz-adv-x="1014" 
d="M631 930q-287 0 -287 -377t281 -377q157 0 297 78v-205q-110 -65 -278 -69l-32 -68q80 -20 125 -68t45 -114q0 -222 -305 -222q-66 0 -121 15v137q54 -14 116 -14t92 16q32 16 32 62q0 85 -179 110l79 155q-166 27 -264 137q-130 146 -130 424q0 276 136 426t395 150
q175 0 315 -65l-71 -189q-149 58 -246 58z" />
    <glyph glyph-name="egrave" unicode="&#xe8;" horiz-adv-x="1180" 
d="M608 948q-112 0 -180 -71t-80 -207h502q-2 138 -66 208t-176 70zM102 548q0 268 135 423t363 155t354 -133q127 -133 127 -366v-127h-737q5 -162 87 -248t248 -86t347 80v-191q-157 -75 -375 -75q-257 0 -403 150t-146 418zM281 1569h273q38 -70 104 -161t109 -142v-25
h-158q-69 53 -175 151t-153 156v21z" />
    <glyph glyph-name="eacute" unicode="&#xe9;" horiz-adv-x="1180" 
d="M608 948q-112 0 -180 -71t-80 -207h502q-2 138 -66 208t-176 70zM102 548q0 268 135 423t363 155t354 -133q127 -133 127 -366v-127h-737q5 -162 87 -248t248 -86t347 80v-191q-157 -75 -375 -75q-257 0 -403 150t-146 418zM944 1569v-21q-52 -62 -156 -158t-174 -149
h-156v25q133 163 213 303h273z" />
    <glyph glyph-name="ecircumflex" unicode="&#xea;" horiz-adv-x="1180" 
d="M608 948q-112 0 -180 -71t-80 -207h502q-2 138 -66 208t-176 70zM102 548q0 268 135 423t363 155t354 -133q127 -133 127 -366v-127h-737q5 -162 87 -248t248 -86t347 80v-191q-157 -75 -375 -75q-257 0 -403 150t-146 418zM227 1241v25q191 198 254 303h260
q63 -110 256 -303v-25h-159q-123 73 -228 180q-103 -103 -225 -180h-158z" />
    <glyph glyph-name="edieresis" unicode="&#xeb;" horiz-adv-x="1180" 
d="M608 948q-112 0 -180 -71t-80 -207h502q-2 138 -66 208t-176 70zM102 548q0 268 135 423t363 155t354 -133q127 -133 127 -366v-127h-737q5 -162 87 -248t248 -86t347 80v-191q-157 -75 -375 -75q-257 0 -403 150t-146 418zM700 1400q0 60 34 88t84 28t82 -31t32 -85
t-33 -86t-83 -32t-82 29q-34 29 -34 89zM307 1400q-1 60 33 88t84 28t82 -31t32 -85t-32 -86t-82 -32t-84 29t-33 89z" />
    <glyph glyph-name="igrave" unicode="&#xec;" horiz-adv-x="571" 
d="M403 0h-235v1106h235v-1106zM-69 1569h273q38 -70 104 -161t109 -142v-25h-158q-69 53 -175 151t-153 156v21z" />
    <glyph glyph-name="iacute" unicode="&#xed;" horiz-adv-x="571" 
d="M403 0h-235v1106h235v-1106zM642 1569v-21q-52 -62 -156 -158t-174 -149h-156v25q133 163 213 303h273z" />
    <glyph glyph-name="icircumflex" unicode="&#xee;" horiz-adv-x="571" 
d="M403 0h-235v1106h235v-1106zM-100 1241v25q191 198 254 303h260q63 -110 256 -303v-25h-159q-123 73 -228 180q-103 -103 -225 -180h-158z" />
    <glyph glyph-name="idieresis" unicode="&#xef;" horiz-adv-x="571" 
d="M403 0h-235v1106h235v-1106zM368 1400q0 60 34 88t84 28t82 -31t32 -85t-33 -86t-83 -32t-82 29q-34 29 -34 89zM-25 1400q-1 60 33 88t84 28t82 -31t32 -85t-32 -86t-82 -32t-84 29t-33 89z" />
    <glyph glyph-name="eth" unicode="&#xf0;" horiz-adv-x="1243" 
d="M909 522q0 127 -75.5 202t-216.5 75q-275 0 -275 -322q0 -153 74 -234t216 -81t209.5 91t67.5 269zM1149 567q0 -279 -137.5 -433t-380.5 -154t-386 136t-143 366t131 364.5t348 134.5t304 -111l8 4q-62 189 -227 345l-250 -150l-88 133l204 119q-86 59 -167 102l84 146
q140 -63 258 -144l231 138l88 -129l-188 -113q311 -286 311 -754z" />
    <glyph glyph-name="ntilde" unicode="&#xf1;" horiz-adv-x="1300" 
d="M1141 0h-236v680q1 128 -51 191t-164 63q-149 0 -218 -88t-69 -295v-551h-235v1106h184l33 -145h12q50 79 142 122t204 43q398 0 398 -405v-721zM809 1241q-60 0 -130 39q-71 38 -108 56t-71 18q-81 0 -109 -115h-122q11 139 77 212t168 73q62 0 164 -56q40 -22 76 -40
t70 -17q79 0 106 115h125q-12 -134 -77 -210t-169 -75z" />
    <glyph glyph-name="ograve" unicode="&#xf2;" horiz-adv-x="1251" 
d="M344 555q0 -383 282 -383t281 381q0 381 -282 381q-149 0 -215 -98t-66 -281zM1149 550q0 -266 -139 -418t-387 -152q-155 0 -274 70t-183 201t-64 304q0 269 138 420t384 151t385 -154q140 -156 140 -422zM293 1569h273q38 -70 104 -161t109 -142v-25h-158
q-69 53 -175 151t-153 156v21z" />
    <glyph glyph-name="oacute" unicode="&#xf3;" horiz-adv-x="1251" 
d="M344 555q0 -383 282 -383t281 381q0 381 -282 381q-149 0 -215 -98t-66 -281zM1149 550q0 -266 -139 -418t-387 -152q-155 0 -274 70t-183 201t-64 304q0 269 138 420t384 151t385 -154q140 -156 140 -422zM959 1569v-21q-51 -62 -155 -158t-175 -149h-156v25
q133 163 213 303h273z" />
    <glyph glyph-name="ocircumflex" unicode="&#xf4;" horiz-adv-x="1251" 
d="M344 555q0 -383 282 -383t281 381q0 381 -282 381q-149 0 -215 -98t-66 -281zM1149 550q0 -266 -139 -418t-387 -152q-155 0 -274 70t-183 201t-64 304q0 269 138 420t384 151t385 -154q140 -156 140 -422zM239 1241v25q191 198 254 303h260q63 -110 256 -303v-25h-159
q-123 73 -228 180q-103 -103 -225 -180h-158z" />
    <glyph glyph-name="otilde" unicode="&#xf5;" horiz-adv-x="1251" 
d="M344 555q0 -383 282 -383t281 381q0 381 -282 381q-149 0 -215 -98t-66 -281zM1149 550q0 -266 -139 -418t-387 -152q-155 0 -274 70t-183 201t-64 304q0 269 138 420t384 151t385 -154q140 -156 140 -422zM775 1241q-60 0 -130 39q-71 38 -108 56t-71 18
q-81 0 -109 -115h-122q11 139 77 212t168 73q62 0 164 -56q40 -22 76 -40t70 -17q79 0 106 115h125q-12 -134 -77 -210t-169 -75z" />
    <glyph glyph-name="odieresis" unicode="&#xf6;" horiz-adv-x="1251" 
d="M344 555q0 -383 282 -383t281 381q0 381 -282 381q-149 0 -215 -98t-66 -281zM1149 550q0 -266 -139 -418t-387 -152q-155 0 -274 70t-183 201t-64 304q0 269 138 420t384 151t385 -154q140 -156 140 -422zM704 1400q0 60 34 88t84 28t82 -31t32 -85t-33 -86t-83 -32
t-82 29q-34 29 -34 89zM311 1400q-1 60 33 88t84 28t82 -31t32 -85t-32 -86t-82 -32t-84 29t-33 89z" />
    <glyph glyph-name="divide" unicode="&#xf7;" 
d="M457 1071q0 135 127 135q61 0 93 -36t32 -99t-34.5 -100t-92.5 -37t-91.5 35.5t-33.5 101.5zM457 373q0 135 127 135q61 0 93 -36t32 -99t-34.5 -100t-92.5 -37t-91.5 35.5t-33.5 101.5zM96 633v178h977v-178h-977z" />
    <glyph glyph-name="oslash" unicode="&#xf8;" horiz-adv-x="1251" 
d="M907 555q0 121 -33 203l-387 -553q54 -33 140 -33q280 0 280 383zM344 579q0 -159 37 -243l391 559q-60 39 -147 39q-148 0 -214.5 -98t-66.5 -257zM1149 548q0 -264 -139 -416t-387 -152q-144 0 -250 57l-76 -109l-135 90l82 117q-142 155 -142 422t138 418t389 151
q144 0 258 -63l69 100l136 -92l-78 -108q135 -151 135 -415z" />
    <glyph glyph-name="ugrave" unicode="&#xf9;" horiz-adv-x="1300" 
d="M557 -20q-399 0 -399 403v723h237v-682q0 -126 52 -190t163 -64q148 0 218 88t69 297v551h236v-1106h-185l-33 145h-12q-49 -77 -139 -121t-207 -44zM289 1569h273q38 -70 104 -161t109 -142v-25h-158q-69 53 -175 151t-153 156v21z" />
    <glyph glyph-name="uacute" unicode="&#xfa;" horiz-adv-x="1300" 
d="M557 -20q-399 0 -399 403v723h237v-682q0 -126 52 -190t163 -64q148 0 218 88t69 297v551h236v-1106h-185l-33 145h-12q-49 -77 -139 -121t-207 -44zM987 1569v-21q-51 -62 -155 -158t-175 -149h-156v25q133 163 213 303h273z" />
    <glyph glyph-name="ucircumflex" unicode="&#xfb;" horiz-adv-x="1300" 
d="M557 -20q-399 0 -399 403v723h237v-682q0 -126 52 -190t163 -64q148 0 218 88t69 297v551h236v-1106h-185l-33 145h-12q-49 -77 -139 -121t-207 -44zM260 1241v25q191 198 254 303h260q63 -110 256 -303v-25h-159q-123 73 -228 180q-103 -103 -225 -180h-158z" />
    <glyph glyph-name="udieresis" unicode="&#xfc;" horiz-adv-x="1300" 
d="M557 -20q-399 0 -399 403v723h237v-682q0 -126 52 -190t163 -64q148 0 218 88t69 297v551h236v-1106h-185l-33 145h-12q-49 -77 -139 -121t-207 -44zM725 1400q-1 60 33 88t84 28t83 -31q32 -31 32 -85t-33 -86q-32 -32 -82 -32t-84 29t-33 89zM332 1400q0 60 34 88
t84 28t82 -31t31 -85q0 -54 -32 -86t-82 -32q-49 0 -83 29t-34 89z" />
    <glyph glyph-name="yacute" unicode="&#xfd;" horiz-adv-x="1098" 
d="M195 -492q-78 0 -152 17v186q53 -12 121 -12q170 0 239 197l41 104l-444 1106h256l225 -627q51 -134 68 -252h8q9 55 33 133t254 746h254l-473 -1253q-129 -345 -430 -345zM887 1569v-21q-51 -62 -155 -158t-175 -149h-156v25q133 163 213 303h273z" />
    <glyph glyph-name="thorn" unicode="&#xfe;" horiz-adv-x="1276" 
d="M670 934q-138 0 -202.5 -82t-64.5 -260v-37q0 -202 64 -292.5t209 -90.5q254 0 254 385q0 190 -61 283.5t-199 93.5zM730 1126q209 0 325 -151t116 -421t-116.5 -422t-328.5 -152t-323 149h-14l8 -72l6 -92v-457h-235v2048h235v-430l-7 -138l-3 -27h10q118 165 327 165z
" />
    <glyph glyph-name="ydieresis" unicode="&#xff;" horiz-adv-x="1098" 
d="M195 -492q-78 0 -152 17v186q53 -12 121 -12q170 0 239 197l41 104l-444 1106h256l225 -627q51 -134 68 -252h8q9 55 33 133t254 746h254l-473 -1253q-129 -345 -430 -345zM632 1400q0 60 34 88t84 28t82 -31t32 -85t-33 -86t-83 -32t-82 29q-34 29 -34 89zM239 1400
q-1 60 33 88t84 28t82 -31t32 -85t-32 -86t-82 -32t-84 29t-33 89z" />
    <glyph glyph-name="Amacron" unicode="&#x100;" horiz-adv-x="1354" 
d="M891 612l-137 398q-45 120 -78 252q-27 -123 -79 -269l-132 -381h426zM1100 0l-146 406h-559l-143 -406h-252l547 1468h260l547 -1468h-254zM367 1753h639v-174h-639v174z" />
    <glyph glyph-name="amacron" unicode="&#x101;" horiz-adv-x="1188" 
d="M530 160q108 0 186 72t77 200v96l-142 -6q-317 -11 -317 -193q0 -89 44 -129t152 -40zM600 1126q212 0 320 -92t108 -289v-745h-168l-47 154h-8q-80 -102 -161 -138t-226 -36q-144 0 -236 88t-92 254q0 332 514 348l191 6v59q0 211 -203 211q-135 0 -313 -84l-76 168
q184 96 397 96zM291 1415h639v-174h-639v174z" />
    <glyph glyph-name="Abreve" unicode="&#x102;" horiz-adv-x="1354" 
d="M891 612l-137 398q-45 120 -78 252q-27 -123 -79 -269l-132 -381h426zM1100 0l-146 406h-559l-143 -406h-252l547 1468h260l547 -1468h-254zM673 1753q199 0 213 129h140q-12 -141 -108 -222t-251 -81q-155 -1 -245 79t-99 224h137q10 -93 90 -117q40 -12 123 -12z" />
    <glyph glyph-name="abreve" unicode="&#x103;" horiz-adv-x="1188" 
d="M530 160q108 0 186 72t77 200v96l-142 -6q-317 -11 -317 -193q0 -89 44 -129t152 -40zM600 1126q212 0 320 -92t108 -289v-745h-168l-47 154h-8q-80 -102 -161 -138t-226 -36q-144 0 -236 88t-92 254q0 332 514 348l191 6v59q0 211 -203 211q-135 0 -313 -84l-76 168
q184 96 397 96zM603 1415q199 0 213 129h140q-12 -141 -108 -222t-251 -81q-155 -1 -245 79t-99 224h137q10 -93 90 -117q40 -12 123 -12z" />
    <glyph glyph-name="Aogonek" unicode="&#x104;" horiz-adv-x="1354" 
d="M891 612l-137 398q-45 120 -78 252q-27 -123 -79 -269l-132 -381h426zM1108 -233q0 -89 88 -89q43 0 104 17v-144q-69 -20 -139 -20q-113 1 -171 57t-58 136t38 143q38 62 132 133h-2l-146 406h-559l-143 -406h-252l547 1468h260l547 -1468h-103q-69 -66 -106 -120
t-37 -113z" />
    <glyph glyph-name="aogonek" unicode="&#x105;" horiz-adv-x="1188" 
d="M530 160q108 0 186 72t77 200v96l-142 -6q-317 -11 -317 -193q0 -89 44 -129t152 -40zM600 1126q212 0 320 -92t108 -289v-745h-16q-69 -66 -106 -120t-37 -113q0 -89 88 -89q43 0 104 17v-144q-69 -20 -139 -20q-113 1 -171 57t-58 136t38 143q38 62 132 133h-3l-47 154
h-8q-80 -102 -161 -138t-226 -36q-144 0 -236 88t-92 254q0 332 514 348l191 6v59q0 211 -203 211q-135 0 -313 -84l-76 168q184 96 397 96z" />
    <glyph glyph-name="Cacute" unicode="&#x106;" horiz-adv-x="1298" 
d="M373 723q-1 -263 113 -401t329 -138q147 0 361 66v-205q-172 -65 -390 -65q-321 0 -493 194t-172 557q-1 228 83 399t242 262t376 91t409 -94l-86 -199q-186 88 -330 88q-206 0 -324 -146t-118 -409zM1112 1907v-21q-52 -62 -156 -158t-174 -149h-156v25q133 163 213 303
h273z" />
    <glyph glyph-name="cacute" unicode="&#x107;" horiz-adv-x="1014" 
d="M102 550q0 276 136 426t395 150q175 0 315 -65l-71 -189q-149 58 -246 58q-287 0 -287 -377t281 -377q157 0 297 78v-205q-117 -69 -308 -69q-252 0 -382 146q-130 148 -130 424zM936 1569v-21q-52 -62 -156 -158t-174 -149h-156v25q133 163 213 303h273z" />
    <glyph glyph-name="Ccircumflex" unicode="&#x108;" horiz-adv-x="1298" 
d="M373 723q-1 -263 113 -401t329 -138q147 0 361 66v-205q-172 -65 -390 -65q-321 0 -493 194t-172 557q-1 228 83 399t242 262t376 91t409 -94l-86 -199q-186 88 -330 88q-206 0 -324 -146t-118 -409zM397 1579v25q191 198 254 303h260q63 -110 256 -303v-25h-159
q-123 73 -228 180q-103 -103 -225 -180h-158z" />
    <glyph glyph-name="ccircumflex" unicode="&#x109;" horiz-adv-x="1014" 
d="M102 550q0 276 136 426t395 150q175 0 315 -65l-71 -189q-149 58 -246 58q-287 0 -287 -377t281 -377q157 0 297 78v-205q-117 -69 -308 -69q-252 0 -382 146q-130 148 -130 424zM197 1241v25q191 198 254 303h260q63 -110 256 -303v-25h-159q-123 73 -228 180
q-103 -103 -225 -180h-158z" />
    <glyph glyph-name="Cdot" unicode="&#x10a;" horiz-adv-x="1298" 
d="M373 723q-1 -263 113 -401t329 -138q147 0 361 66v-205q-172 -65 -390 -65q-321 0 -493 194t-172 557q-1 228 83 399t242 262t376 91t409 -94l-86 -199q-186 88 -330 88q-206 0 -324 -146t-118 -409zM660 1738q0 62 34 96t98 34t98 -34t34 -96t-34 -96t-98 -34t-98 34
t-34 96z" />
    <glyph glyph-name="cdot" unicode="&#x10b;" horiz-adv-x="1014" 
d="M102 550q0 276 136 426t395 150q175 0 315 -65l-71 -189q-149 58 -246 58q-287 0 -287 -377t281 -377q157 0 297 78v-205q-117 -69 -308 -69q-252 0 -382 146q-130 148 -130 424zM480 1400q0 62 34 96t98 34t98 -34t34 -96t-34 -96t-98 -34t-98 34t-34 96z" />
    <glyph glyph-name="Ccaron" unicode="&#x10c;" horiz-adv-x="1298" 
d="M373 723q-1 -263 113 -401t329 -138q147 0 361 66v-205q-172 -65 -390 -65q-321 0 -493 194t-172 557q-1 228 83 399t242 262t376 91t409 -94l-86 -199q-186 88 -330 88q-206 0 -324 -146t-118 -409zM409 1907h158q138 -90 225 -183q97 100 228 183h159v-27
q-204 -212 -256 -301h-260q-65 105 -254 301v27z" />
    <glyph glyph-name="ccaron" unicode="&#x10d;" horiz-adv-x="1014" 
d="M102 550q0 276 136 426t395 150q175 0 315 -65l-71 -189q-149 58 -246 58q-287 0 -287 -377t281 -377q157 0 297 78v-205q-117 -69 -308 -69q-252 0 -382 146q-130 148 -130 424zM222 1569h158q138 -90 225 -183q97 100 228 183h159v-27q-204 -212 -256 -301h-260
q-65 105 -254 301v27z" />
    <glyph glyph-name="Dcaron" unicode="&#x10e;" horiz-adv-x="1503" 
d="M602 201q528 1 528 531t-491 530h-207v-1061h170zM1382 734q0 -352 -201 -542q-201 -192 -579 -192h-409v1462h452q349 0 543 -188t194 -540zM323 1907h158q138 -90 225 -183q97 100 228 183h159v-27q-204 -212 -256 -301h-260q-65 105 -254 301v27z" />
    <glyph glyph-name="dcaron" unicode="&#x10f;" horiz-adv-x="1276" 
d="M344 547q0 -377 260 -377q145 0 211 82t68 264v33q0 209 -68 297q-69 88 -203 88t-201 -100t-67 -287zM546 -20q-212 0 -328 150t-116 422t118 422q118 152 330 152q213 0 327 -161h12q-17 119 -17 188v403h236v-1556h-184l-41 145h-11q-114 -165 -326 -165zM1200 1229
v24q47 158 65 303h226v-20q-58 -157 -156 -307h-135z" />
    <glyph glyph-name="Dcroat" unicode="&#x110;" horiz-adv-x="1497" 
d="M1122 737q0 261 -124 393t-369 132h-197v-439h307v-200h-307v-422h160q530 0 530 536zM1374 735q0 -351 -201 -543t-579 -192h-401v623h-146v200h146v639h446q347 0 541 -188t194 -539z" />
    <glyph glyph-name="dcroat" unicode="&#x111;" horiz-adv-x="1292" 
d="M610 170q142 0 207.5 79.5t65.5 252.5v33q0 204 -64.5 286t-202.5 82t-200 -88.5t-62 -282.5q0 -362 256 -362zM542 -20q-212 0 -326 148t-114 416t110.5 410t330.5 142t334 -162h12q-3 10 -10 79t-7 113v93h-383v163h383v174h236v-174h156v-163h-156v-1219h-193l-43 145
h-10q-108 -165 -320 -165z" />
    <glyph glyph-name="Emacron" unicode="&#x112;" horiz-adv-x="1143" 
d="M1020 0h-827v1462h827v-202h-588v-398h551v-200h-551v-459h588v-203zM295 1753h639v-174h-639v174z" />
    <glyph glyph-name="emacron" unicode="&#x113;" horiz-adv-x="1180" 
d="M608 948q-112 0 -180 -71t-80 -207h502q-2 138 -66 208t-176 70zM102 548q0 268 135 423t363 155t354 -133q127 -133 127 -366v-127h-737q5 -162 87 -248t248 -86t347 80v-191q-157 -75 -375 -75q-257 0 -403 150t-146 418zM293 1415h639v-174h-639v174z" />
    <glyph glyph-name="Ebreve" unicode="&#x114;" horiz-adv-x="1143" 
d="M1020 0h-827v1462h827v-202h-588v-398h551v-200h-551v-459h588v-203zM609 1753q199 0 213 129h140q-12 -141 -108 -222t-251 -81q-155 -1 -245 79t-99 224h137q10 -93 90 -117q40 -12 123 -12z" />
    <glyph glyph-name="ebreve" unicode="&#x115;" horiz-adv-x="1180" 
d="M608 948q-112 0 -180 -71t-80 -207h502q-2 138 -66 208t-176 70zM102 548q0 268 135 423t363 155t354 -133q127 -133 127 -366v-127h-737q5 -162 87 -248t248 -86t347 80v-191q-157 -75 -375 -75q-257 0 -403 150t-146 418zM609 1415q199 0 213 129h140
q-12 -141 -108 -222t-251 -81q-155 -1 -245 79t-99 224h137q10 -93 90 -117q40 -12 123 -12z" />
    <glyph glyph-name="Edotaccent" unicode="&#x116;" horiz-adv-x="1143" 
d="M1020 0h-827v1462h827v-202h-588v-398h551v-200h-551v-459h588v-203zM488 1710q0 62 34 95q34 34 98 34t98 -34q34 -33 34 -95t-34 -96t-98 -35q-64 1 -98 35t-34 96z" />
    <glyph glyph-name="edotaccent" unicode="&#x117;" horiz-adv-x="1180" 
d="M608 948q-112 0 -180 -71t-80 -207h502q-2 138 -66 208t-176 70zM102 548q0 268 135 423t363 155t354 -133q127 -133 127 -366v-127h-737q5 -162 87 -248t248 -86t347 80v-191q-157 -75 -375 -75q-257 0 -403 150t-146 418zM484 1400q0 62 34 96t98 34t98 -34t34 -96
t-34 -96t-98 -34t-98 34t-34 96z" />
    <glyph glyph-name="Eogonek" unicode="&#x118;" horiz-adv-x="1143" 
d="M795 -233q0 -89 88 -89q43 0 104 17v-144q-69 -20 -139 -20q-113 1 -171 57t-58 136t38 143q38 62 132 133h-596v1462h827v-202h-588v-398h551v-200h-551v-459h588v-203h-82q-69 -66 -106 -120t-37 -113z" />
    <glyph glyph-name="eogonek" unicode="&#x119;" horiz-adv-x="1180" 
d="M608 948q-112 0 -180 -71t-80 -207h502q-2 138 -66 208t-176 70zM617 -227q0 104 118 210q-40 -3 -84 -3q-257 0 -403 150t-146 418t135 423t363 155t354 -133q127 -133 127 -366v-127h-737q5 -162 87 -248t248 -86t347 80v-191q-49 -24 -100 -39q-62 -61 -97 -113
q-36 -53 -36 -111q0 -89 88 -89q43 0 104 17v-144q-69 -20 -139 -20q-113 0 -171 56t-58 161z" />
    <glyph glyph-name="Ecaron" unicode="&#x11a;" horiz-adv-x="1143" 
d="M1020 0h-827v1462h827v-202h-588v-398h551v-200h-551v-459h588v-203zM229 1907h158q138 -90 225 -183q97 100 228 183h159v-27q-204 -212 -256 -301h-260q-65 105 -254 301v27z" />
    <glyph glyph-name="ecaron" unicode="&#x11b;" horiz-adv-x="1180" 
d="M608 948q-112 0 -180 -71t-80 -207h502q-2 138 -66 208t-176 70zM102 548q0 268 135 423t363 155t354 -133q127 -133 127 -366v-127h-737q5 -162 87 -248t248 -86t347 80v-191q-157 -75 -375 -75q-257 0 -403 150t-146 418zM226 1569h158q138 -90 225 -183
q97 100 228 183h159v-27q-204 -212 -256 -301h-260q-65 105 -254 301v27z" />
    <glyph glyph-name="Gcircumflex" unicode="&#x11c;" horiz-adv-x="1487" 
d="M121 728q0 356 203 556t559 199q229 0 434 -88l-84 -199q-178 82 -356 82q-234 0 -370 -147t-136 -409q1 -262 123 -400q122 -140 352 -140q116 0 248 29v377h-303v205h538v-734q-243 -79 -516 -79q-332 0 -512 196t-180 552zM436 1579v25q191 198 254 303h260
q63 -110 256 -303v-25h-159q-123 73 -228 180q-103 -103 -225 -180h-158z" />
    <glyph glyph-name="gcircumflex" unicode="&#x11d;" horiz-adv-x="1139" 
d="M541 532q204 0 204 222q1 222 -205 221q-206 0 -206 -227q0 -104 54 -160t153 -56zM233 -170q1 -78 69 -119t226 -41t252 55t94 137t-52 112t-191 30h-178q-101 0 -161 -48t-59 -126zM543 1126q102 0 176 -20h383v-129l-189 -35q60 -81 60 -194q0 -171 -118 -269
t-325 -98q-53 0 -96 8q-76 -47 -76 -110q0 -38 36 -57t130 -19h193q183 0 278 -78t95 -225q0 -188 -155 -290t-448 -102q-226 0 -345 80t-119 228q1 102 65 172t180 96q-48 20 -78 64t-30 100t35 99t104 85q-85 36 -139 120t-54 196q0 180 114 279t323 99zM183 1241v25
q191 198 254 303h260q63 -110 256 -303v-25h-159q-123 73 -228 180q-103 -103 -225 -180h-158z" />
    <glyph glyph-name="Gbreve" unicode="&#x11e;" horiz-adv-x="1487" 
d="M121 728q0 356 203 556t559 199q229 0 434 -88l-84 -199q-178 82 -356 82q-234 0 -370 -147t-136 -409q1 -262 123 -400q122 -140 352 -140q116 0 248 29v377h-303v205h538v-734q-243 -79 -516 -79q-332 0 -512 196t-180 552zM833 1753q199 0 213 129h140
q-12 -141 -108 -222t-251 -81q-155 -1 -245 79t-99 224h137q10 -93 90 -117q40 -12 123 -12z" />
    <glyph glyph-name="gbreve" unicode="&#x11f;" horiz-adv-x="1139" 
d="M541 532q204 0 204 222q1 222 -205 221q-206 0 -206 -227q0 -104 54 -160t153 -56zM233 -170q1 -78 69 -119t226 -41t252 55t94 137t-52 112t-191 30h-178q-101 0 -161 -48t-59 -126zM543 1126q102 0 176 -20h383v-129l-189 -35q60 -81 60 -194q0 -171 -118 -269
t-325 -98q-53 0 -96 8q-76 -47 -76 -110q0 -38 36 -57t130 -19h193q183 0 278 -78t95 -225q0 -188 -155 -290t-448 -102q-226 0 -345 80t-119 228q1 102 65 172t180 96q-48 20 -78 64t-30 100t35 99t104 85q-85 36 -139 120t-54 196q0 180 114 279t323 99zM570 1415
q199 0 213 129h140q-12 -141 -108 -222t-251 -81q-156 -1 -246 79t-98 224h137q9 -93 89 -117q40 -12 124 -12z" />
    <glyph glyph-name="Gdot" unicode="&#x120;" horiz-adv-x="1487" 
d="M121 728q0 356 203 556t559 199q229 0 434 -88l-84 -199q-178 82 -356 82q-234 0 -370 -147t-136 -409q1 -262 123 -400q122 -140 352 -140q116 0 248 29v377h-303v205h538v-734q-243 -79 -516 -79q-332 0 -512 196t-180 552zM713 1738q1 62 35 96t97 34t97 -34t35 -96
q-1 -62 -35 -96t-97 -34t-97 34t-35 96z" />
    <glyph glyph-name="gdot" unicode="&#x121;" horiz-adv-x="1139" 
d="M541 532q204 0 204 222q1 222 -205 221q-206 0 -206 -227q0 -104 54 -160t153 -56zM233 -170q1 -78 69 -119t226 -41t252 55t94 137t-52 112t-191 30h-178q-101 0 -161 -48t-59 -126zM543 1126q102 0 176 -20h383v-129l-189 -35q60 -81 60 -194q0 -171 -118 -269
t-325 -98q-53 0 -96 8q-76 -47 -76 -110q0 -38 36 -57t130 -19h193q183 0 278 -78t95 -225q0 -188 -155 -290t-448 -102q-226 0 -345 80t-119 228q1 102 65 172t180 96q-48 20 -78 64t-30 100t35 99t104 85q-85 36 -139 120t-54 196q0 180 114 279t323 99zM428 1400
q0 62 34 96t98 34t98 -34t34 -96t-34 -96t-98 -34t-98 34t-34 96z" />
    <glyph glyph-name="Gcommaaccent" unicode="&#x122;" horiz-adv-x="1487" 
d="M121 728q0 356 203 556t559 199q229 0 434 -88l-84 -199q-178 82 -356 82q-234 0 -370 -147t-136 -409q1 -262 123 -400q122 -140 352 -140q116 0 248 29v377h-303v205h538v-734q-243 -79 -516 -79q-332 0 -512 196t-180 552zM944 -125v-20q-64 -175 -163 -308h-136v25
q56 157 74 303h225z" />
    <glyph glyph-name="gcommaaccent" unicode="&#x123;" horiz-adv-x="1139" 
d="M541 532q204 0 204 222q1 222 -205 221q-206 0 -206 -227q0 -104 54 -160t153 -56zM233 -170q1 -78 69 -119t226 -41t252 55t94 137t-52 112t-191 30h-178q-101 0 -161 -48t-59 -126zM543 1126q102 0 176 -20h383v-129l-189 -35q60 -81 60 -194q0 -171 -118 -269
t-325 -98q-53 0 -96 8q-76 -47 -76 -110q0 -38 36 -57t130 -19h193q183 0 278 -78t95 -225q0 -188 -155 -290t-448 -102q-226 0 -345 80t-119 228q1 102 65 172t180 96q-48 20 -78 64t-30 100t35 99t104 85q-85 36 -139 120t-54 196q0 180 114 279t323 99zM436 1241v19
q61 168 164 309h135v-27q-54 -150 -73 -301h-226z" />
    <glyph glyph-name="Hcircumflex" unicode="&#x124;" horiz-adv-x="1538" 
d="M1346 0h-240v659h-674v-659h-239v1462h239v-598h674v598h240v-1462zM381 1579v25q191 198 254 303h260q63 -110 256 -303v-25h-159q-123 73 -228 180q-103 -103 -225 -180h-158z" />
    <glyph glyph-name="hcircumflex" unicode="&#x125;" horiz-adv-x="1300" 
d="M739 1126q402 0 402 -405v-721h-236v680q1 128 -51 191t-164 63q-148 0 -218 -88t-69 -297v-549h-235v1556h235v-395q0 -95 -12 -203h15q101 168 333 168zM268 1634v25q191 198 254 303h260q63 -110 256 -303v-25h-159q-123 73 -228 180q-103 -103 -225 -180h-158z" />
    <glyph glyph-name="Hbar" unicode="&#x126;" horiz-adv-x="1538" 
d="M1106 864v207h-674v-207h674zM1346 1241h192v-170h-192v-1071h-240v659h-674v-659h-239v1071h-193v170h193v221h239v-221h674v221h240v-221z" />
    <glyph glyph-name="hbar" unicode="&#x127;" horiz-adv-x="1300" 
d="M741 1077q400 0 400 -405v-672h-236v631q0 127 -51.5 190.5t-163.5 63.5q-148 0 -217.5 -88.5t-69.5 -296.5v-500h-235v1219h-156v163h156v174h235v-174h381v-163h-381v-107q0 -64 -12 -203h15q104 168 335 168z" />
    <glyph glyph-name="Itilde" unicode="&#x128;" horiz-adv-x="625" 
d="M193 0v1462h239v-1462h-239zM462 1579q-60 0 -130 39q-71 38 -108 56t-71 18q-81 0 -109 -115h-122q12 139 78 212t167 73q62 0 164 -56q39 -22 75 -40t71 -17q79 0 106 115h125q-12 -134 -77 -210t-169 -75z" />
    <glyph glyph-name="itilde" unicode="&#x129;" horiz-adv-x="571" 
d="M403 0h-235v1106h235v-1106zM435 1241q-60 0 -130 39q-71 38 -108 56t-71 18q-81 0 -109 -115h-122q11 139 77 212t168 73q62 0 164 -56q40 -22 76 -40t70 -17q79 0 106 115h125q-12 -134 -77 -210t-169 -75z" />
    <glyph glyph-name="Imacron" unicode="&#x12a;" horiz-adv-x="625" 
d="M193 0v1462h239v-1462h-239zM-5 1753h639v-174h-639v174z" />
    <glyph glyph-name="imacron" unicode="&#x12b;" horiz-adv-x="571" 
d="M403 0h-235v1106h235v-1106zM-32 1415h639v-174h-639v174z" />
    <glyph glyph-name="Ibreve" unicode="&#x12c;" horiz-adv-x="625" 
d="M193 0v1462h239v-1462h-239zM312 1753q199 0 213 129h140q-12 -141 -108 -222t-251 -81q-156 -1 -246 79t-98 224h137q9 -93 89 -117q40 -12 124 -12z" />
    <glyph glyph-name="ibreve" unicode="&#x12d;" horiz-adv-x="571" 
d="M403 0h-235v1106h235v-1106zM283 1415q199 0 213 129h140q-12 -141 -108 -222t-251 -81q-155 -1 -245 79t-99 224h137q10 -93 90 -117q40 -12 123 -12z" />
    <glyph glyph-name="Iogonek" unicode="&#x12e;" horiz-adv-x="625" 
d="M193 0v1462h239v-1462h-37q-69 -66 -106 -120t-37 -113q0 -89 88 -89q43 0 104 17v-144q-69 -20 -139 -20q-113 1 -171 57t-58 136t38 143q38 62 132 133h-53z" />
    <glyph glyph-name="iogonek" unicode="&#x12f;" horiz-adv-x="571" 
d="M154 1400q0 62 34 96t98 34t98 -34t34 -96t-34 -96t-98 -34t-98 34t-34 96zM224 -233q0 -89 88 -89q43 0 104 17v-144q-69 -20 -139 -20q-113 1 -171 57t-58 136t38 143q38 62 132 133h-50v1106h235v-1106h-36q-69 -66 -106 -120t-37 -113z" />
    <glyph glyph-name="Idotaccent" unicode="&#x130;" horiz-adv-x="625" 
d="M193 0v1462h239v-1462h-239zM179 1738q1 62 35 96t97 34t97 -34t35 -96q-1 -62 -35 -96t-97 -34t-97 34t-35 96z" />
    <glyph glyph-name="dotlessi" unicode="&#x131;" horiz-adv-x="571" 
d="M403 0h-235v1106h235v-1106z" />
    <glyph glyph-name="IJ" unicode="&#x132;" horiz-adv-x="1237" 
d="M193 0v1462h239v-1462h-239zM633 -408q-98 0 -164 25v201q84 -21 146 -21q196 0 196 248v1417h240v-1409q-1 -225 -107 -343t-311 -118z" />
    <glyph glyph-name="ij" unicode="&#x133;" horiz-adv-x="1122" 
d="M154 1400q0 62 34 96t98 34t98 -34t34 -96t-34 -96t-98 -34t-98 34t-34 96zM403 0h-235v1106h235v-1106zM705 1400q1 62 35 96t97 34t97 -34t35 -96q-1 -62 -35 -96t-97 -34t-97 34t-35 96zM606 -492q-106 0 -176 25v186q68 -18 139 -18q150 0 150 170v1235h235v-1251
q0 -171 -90 -259t-258 -88z" />
    <glyph glyph-name="Jcircumflex" unicode="&#x134;" horiz-adv-x="612" 
d="M8 -408q-98 0 -164 25v201q84 -21 146 -21q196 0 196 248v1417h240v-1409q0 -225 -106 -343t-312 -118zM-75 1579v25q191 198 254 303h260q63 -110 256 -303v-25h-159q-123 73 -228 180q-103 -103 -225 -180h-158z" />
    <glyph glyph-name="jcircumflex" unicode="&#x135;" horiz-adv-x="571" 
d="M55 -492q-106 0 -176 25v186q68 -18 139 -18q150 0 150 170v1235h235v-1251q1 -171 -89 -259t-259 -88zM-104 1241v25q191 198 254 303h260q63 -110 256 -303v-25h-159q-123 73 -228 180q-103 -103 -225 -180h-158z" />
    <glyph glyph-name="Kcommaaccent" unicode="&#x136;" horiz-adv-x="1309" 
d="M432 0h-239v1462h239v-698q98 120 195 231l395 467h272q-383 -450 -549 -641l564 -821h-277l-459 662l-141 -115v-547zM802 -125v-20q-64 -175 -163 -308h-136v25q56 157 74 303h225z" />
    <glyph glyph-name="kcommaaccent" unicode="&#x137;" horiz-adv-x="1171" 
d="M401 0h-233v1556h233v-759l-12 -213h6l133 166l334 356h271l-445 -475l473 -631h-276l-355 485l-129 -106v-379zM737 -125v-20q-64 -175 -163 -308h-136v25q56 157 74 303h225z" />
    <glyph glyph-name="kgreenlandic" unicode="&#x138;" horiz-adv-x="1165" 
d="M410 0h-242v1106h242v-289q0 -128 -11 -260l467 549h267l-428 -498l454 -608h-274l-336 465l-139 -103v-362z" />
    <glyph glyph-name="Lacute" unicode="&#x139;" horiz-adv-x="1110" 
d="M193 0v1462h239v-1257h619v-205h-858zM738 1907v-21q-52 -62 -156 -158t-174 -149h-156v25q133 163 213 303h273z" />
    <glyph glyph-name="lacute" unicode="&#x13a;" horiz-adv-x="571" 
d="M403 0h-235v1556h235v-1556zM656 1964v-21q-52 -61 -156 -157t-174 -150h-156v25q133 163 213 303h273z" />
    <glyph glyph-name="Lcommaaccent" unicode="&#x13b;" horiz-adv-x="1110" 
d="M193 0v1462h239v-1257h619v-205h-858zM718 -125v-20q-64 -175 -163 -308h-136v25q56 157 74 303h225z" />
    <glyph glyph-name="lcommaaccent" unicode="&#x13c;" horiz-adv-x="571" 
d="M403 0h-235v1556h235v-1556zM392 -125v-20q-64 -175 -163 -308h-136v25q56 157 74 303h225z" />
    <glyph glyph-name="Lcaron" unicode="&#x13d;" horiz-adv-x="1110" 
d="M193 0v1462h239v-1257h619v-205h-858zM699 1136v24q47 158 65 303h226v-20q-58 -157 -156 -307h-135z" />
    <glyph glyph-name="lcaron" unicode="&#x13e;" horiz-adv-x="571" 
d="M403 0h-235v1556h235v-1556zM496 1229v24q47 158 65 303h226v-20q-58 -157 -156 -307h-135z" />
    <glyph glyph-name="Ldot" unicode="&#x13f;" horiz-adv-x="1110" 
d="M193 0v1462h239v-1257h619v-205h-858zM691 740q1 62 35 95q34 34 97 34t97 -34q34 -33 35 -95q-1 -62 -35 -96t-97 -35q-63 1 -97 35t-35 96z" />
    <glyph glyph-name="ldot" unicode="&#x140;" horiz-adv-x="760" 
d="M403 0h-235v1556h235v-1556zM535 688q1 62 35 96t97 34t97 -34t35 -96q-1 -62 -35 -96t-97 -34t-97 34t-35 96z" />
    <glyph glyph-name="Lslash" unicode="&#x141;" horiz-adv-x="1114" 
d="M193 0v500l-89 -51l-90 155l179 107v751h239v-608l219 131l92 -158l-311 -184v-438h619v-205h-858z" />
    <glyph glyph-name="lslash" unicode="&#x142;" horiz-adv-x="604" 
d="M416 0h-236v537l-92 -58l-90 154l182 117v806h236v-659l102 68l94 -154l-196 -127v-684z" />
    <glyph glyph-name="Nacute" unicode="&#x143;" horiz-adv-x="1604" 
d="M1411 0h-293l-719 1165h-8l5 -65q14 -186 14 -340v-760h-217v1462h290l717 -1159h6q-2 23 -8 167t-6 226v766h219v-1462zM1139 1907v-21q-51 -62 -155 -158t-175 -149h-156v25q133 163 213 303h273z" />
    <glyph glyph-name="nacute" unicode="&#x144;" horiz-adv-x="1300" 
d="M1141 0h-236v680q1 128 -51 191t-164 63q-149 0 -218 -88t-69 -295v-551h-235v1106h184l33 -145h12q50 79 142 122t204 43q398 0 398 -405v-721zM993 1569v-21q-51 -62 -155 -158t-175 -149h-156v25q133 163 213 303h273z" />
    <glyph glyph-name="Ncommaaccent" unicode="&#x145;" horiz-adv-x="1604" 
d="M1411 0h-293l-719 1165h-8l5 -65q14 -186 14 -340v-760h-217v1462h290l717 -1159h6q-2 23 -8 167t-6 226v766h219v-1462zM882 -125v-20q-64 -175 -163 -308h-136v25q56 157 74 303h225z" />
    <glyph glyph-name="ncommaaccent" unicode="&#x146;" horiz-adv-x="1300" 
d="M1141 0h-236v680q1 128 -51 191t-164 63q-149 0 -218 -88t-69 -295v-551h-235v1106h184l33 -145h12q50 79 142 122t204 43q398 0 398 -405v-721zM757 -125v-20q-64 -175 -163 -308h-136v25q56 157 74 303h225z" />
    <glyph glyph-name="Ncaron" unicode="&#x147;" horiz-adv-x="1604" 
d="M1411 0h-293l-719 1165h-8l5 -65q14 -186 14 -340v-760h-217v1462h290l717 -1159h6q-2 23 -8 167t-6 226v766h219v-1462zM428 1907h158q138 -90 225 -183q97 100 228 183h159v-27q-204 -212 -256 -301h-260q-65 105 -254 301v27z" />
    <glyph glyph-name="ncaron" unicode="&#x148;" horiz-adv-x="1300" 
d="M1141 0h-236v680q1 128 -51 191t-164 63q-149 0 -218 -88t-69 -295v-551h-235v1106h184l33 -145h12q50 79 142 122t204 43q398 0 398 -405v-721zM280 1569h158q138 -90 225 -183q97 100 228 183h159v-27q-204 -212 -256 -301h-260q-65 105 -254 301v27z" />
    <glyph glyph-name="napostrophe" unicode="&#x149;" horiz-adv-x="1495" 
d="M1334 0h-236v680q0 128 -52 191t-163 63q-149 0 -218 -88t-69 -295v-551h-235v1106h184l33 -145h12q50 79 142 122t204 43q398 0 398 -405v-721zM334 1462l15 -22q-53 -209 -176 -479h-170q69 289 100 501h231z" />
    <glyph glyph-name="Eng" unicode="&#x14a;" horiz-adv-x="1604" 
d="M991 -408q-104 0 -174 25v203q74 -21 170 -21t152 53t61 150l-801 1163h-8l5 -62q14 -193 14 -358v-745h-217v1462h290l717 -1046h6q-14 123 -14 553v493h219v-1456q0 -201 -109 -307.5t-311 -106.5z" />
    <glyph glyph-name="eng" unicode="&#x14b;" horiz-adv-x="1300" 
d="M817 -492q-98 0 -164 25v186q58 -18 121 -18q131 0 131 170v821q0 122 -52.5 182t-162.5 60q-149 0 -218 -88t-69 -295v-551h-235v1106h184l33 -145h14q49 79 138.5 122t203.5 43q203 0 301.5 -101t98.5 -304v-866q0 -169 -83 -258t-241 -89z" />
    <glyph glyph-name="Omacron" unicode="&#x14c;" horiz-adv-x="1612" 
d="M807 184q430 0 430 548t-429 548q-214 0 -324 -139t-109 -409q0 -270 109 -408q109 -140 323 -140zM1491 734q-1 -358 -179 -556t-507 -198t-507 196t-177 559q1 362 179 556t506 194t507 -197q178 -196 178 -554zM488 1753h639v-174h-639v174z" />
    <glyph glyph-name="omacron" unicode="&#x14d;" horiz-adv-x="1251" 
d="M344 555q0 -383 282 -383t281 381q0 381 -282 381q-149 0 -215 -98t-66 -281zM1149 550q0 -266 -139 -418t-387 -152q-155 0 -274 70t-183 201t-64 304q0 269 138 420t384 151t385 -154q140 -156 140 -422zM305 1415h639v-174h-639v174z" />
    <glyph glyph-name="Obreve" unicode="&#x14e;" horiz-adv-x="1612" 
d="M807 184q430 0 430 548t-429 548q-214 0 -324 -139t-109 -409q0 -270 109 -408q109 -140 323 -140zM1491 734q-1 -358 -179 -556t-507 -198t-507 196t-177 559q1 362 179 556t506 194t507 -197q178 -196 178 -554zM805 1753q199 0 213 129h140q-12 -141 -108 -222
t-251 -81q-155 -1 -245 79t-99 224h137q10 -93 90 -117q40 -12 123 -12z" />
    <glyph glyph-name="obreve" unicode="&#x14f;" horiz-adv-x="1251" 
d="M344 555q0 -383 282 -383t281 381q0 381 -282 381q-149 0 -215 -98t-66 -281zM1149 550q0 -266 -139 -418t-387 -152q-155 0 -274 70t-183 201t-64 304q0 269 138 420t384 151t385 -154q140 -156 140 -422zM622 1415q199 0 213 129h140q-12 -141 -108 -222t-251 -81
q-156 -1 -246 79t-98 224h137q9 -93 89 -117q40 -12 124 -12z" />
    <glyph glyph-name="Ohungarumlaut" unicode="&#x150;" horiz-adv-x="1612" 
d="M807 184q430 0 430 548t-429 548q-214 0 -324 -139t-109 -409q0 -270 109 -408q109 -140 323 -140zM1491 734q-1 -358 -179 -556t-507 -198t-507 196t-177 559q1 362 179 556t506 194t507 -197q178 -196 178 -554zM1298 1907v-21q-29 -49 -126 -148t-175 -159h-129v25
q116 153 187 303h243zM492 1579v25q104 144 186 303h244v-21q-29 -49 -126 -148t-175 -159h-129z" />
    <glyph glyph-name="ohungarumlaut" unicode="&#x151;" horiz-adv-x="1251" 
d="M344 555q0 -383 282 -383t281 381q0 381 -282 381q-149 0 -215 -98t-66 -281zM1149 550q0 -266 -139 -418t-387 -152q-155 0 -274 70t-183 201t-64 304q0 269 138 420t384 151t385 -154q140 -156 140 -422zM1105 1569v-21q-29 -49 -126 -148t-175 -159h-129v25
q116 153 187 303h243zM299 1241v25q104 144 186 303h244v-21q-29 -49 -126 -148t-175 -159h-129z" />
    <glyph glyph-name="OE" unicode="&#x152;" horiz-adv-x="1942" 
d="M793 1280q-208 0 -315 -139t-107 -408t106 -409t314 -140q129 0 213 35v1024q-80 37 -211 37zM1819 0h-820q-102 -20 -211 -20q-320 0 -493.5 196.5t-173.5 557.5t172 556t491 195q115 0 209 -23h826v-202h-576v-398h539v-200h-539v-459h576v-203z" />
    <glyph glyph-name="oe" unicode="&#x153;" horiz-adv-x="1966" 
d="M1396 948q-112 0 -180 -69.5t-79 -208.5h497q0 134 -63 206t-175 72zM344 555q0 -189 65 -286t209 -97t209.5 95.5t65.5 285.5t-66 285.5t-210 95.5t-208.5 -95t-64.5 -284zM1438 -20q-281 0 -420 194q-132 -194 -400 -194q-236 0 -376 155t-140 423t137 418t382 150
q121 0 223 -49t168 -145q132 194 366 194t362 -133.5t128 -365.5v-127h-738q11 -164 85.5 -249t246.5 -85t350 80v-191q-158 -75 -374 -75z" />
    <glyph glyph-name="Racute" unicode="&#x154;" horiz-adv-x="1309" 
d="M432 584v-584h-239v1462h413q283 0 419 -106t136 -320q0 -273 -284 -389l413 -647h-272l-350 584h-236zM432 782h166q167 0 242 62t75 185t-81 177t-244 54h-158v-478zM981 1907v-21q-51 -62 -155 -158t-175 -149h-156v25q133 163 213 303h273z" />
    <glyph glyph-name="racute" unicode="&#x155;" horiz-adv-x="883" 
d="M714 1126q86 0 132 -10l-23 -219q-50 12 -104 12q-141 0 -229 -92t-87 -239v-578h-235v1106h184l31 -195h12q55 99 143 157q90 58 176 58zM835 1569v-21q-51 -62 -155 -158t-175 -149h-156v25q133 163 213 303h273z" />
    <glyph glyph-name="Rcommaaccent" unicode="&#x156;" horiz-adv-x="1309" 
d="M432 584v-584h-239v1462h413q283 0 419 -106t136 -320q0 -273 -284 -389l413 -647h-272l-350 584h-236zM432 782h166q167 0 242 62t75 185t-81 177t-244 54h-158v-478zM809 -125v-20q-64 -175 -163 -308h-136v25q56 157 74 303h225z" />
    <glyph glyph-name="rcommaaccent" unicode="&#x157;" horiz-adv-x="883" 
d="M714 1126q86 0 132 -10l-23 -219q-50 12 -104 12q-141 0 -229 -92t-87 -239v-578h-235v1106h184l31 -195h12q55 99 143 157q90 58 176 58zM396 -125v-20q-64 -175 -163 -308h-136v25q56 157 74 303h225z" />
    <glyph glyph-name="Rcaron" unicode="&#x158;" horiz-adv-x="1309" 
d="M432 584v-584h-239v1462h413q283 0 419 -106t136 -320q0 -273 -284 -389l413 -647h-272l-350 584h-236zM432 782h166q167 0 242 62t75 185t-81 177t-244 54h-158v-478zM266 1907h158q138 -90 225 -183q97 100 228 183h159v-27q-204 -212 -256 -301h-260q-65 105 -254 301
v27z" />
    <glyph glyph-name="rcaron" unicode="&#x159;" horiz-adv-x="883" 
d="M714 1126q86 0 132 -10l-23 -219q-50 12 -104 12q-141 0 -229 -92t-87 -239v-578h-235v1106h184l31 -195h12q55 99 143 157q90 58 176 58zM107 1569h158q138 -90 225 -183q97 100 228 183h159v-27q-204 -212 -256 -301h-260q-65 105 -254 301v27z" />
    <glyph glyph-name="Sacute" unicode="&#x15a;" horiz-adv-x="1126" 
d="M522 182q142 0 210 54t67 140q0 86 -62 144q-62 56 -259 136t-279 184t-82 250q0 183 130 288q131 105 345 105t422 -92l-76 -195q-196 82 -330 82t-194 -50t-60 -121t24 -111t79 -76t207 -99t227 -121q145 -112 145 -305t-141 -304t-389 -111t-406 77v226
q215 -101 422 -101zM926 1907v-21q-52 -62 -156 -158t-174 -149h-156v25q133 163 213 303h273z" />
    <glyph glyph-name="sacute" unicode="&#x15b;" horiz-adv-x="997" 
d="M454 -20q-220 0 -354 67v203q195 -90 363 -90q217 0 217 131q0 42 -24 70q-46 54 -235 127q-187 73 -255 147t-68 204q0 131 114 209t311 78q196 0 370 -79l-76 -177q-179 74 -301 74q-186 0 -186 -106q0 -52 48 -88t199 -94q150 -58 212 -102q122 -87 122 -244
q0 -158 -118 -244q-119 -86 -339 -86zM843 1569v-21q-51 -62 -155 -158t-175 -149h-156v25q133 163 213 303h273z" />
    <glyph glyph-name="Scircumflex" unicode="&#x15c;" horiz-adv-x="1126" 
d="M522 182q142 0 210 54t67 140q0 86 -62 144q-62 56 -259 136t-279 184t-82 250q0 183 130 288q131 105 345 105t422 -92l-76 -195q-196 82 -330 82t-194 -50t-60 -121t24 -111t79 -76t207 -99t227 -121q145 -112 145 -305t-141 -304t-389 -111t-406 77v226
q215 -101 422 -101zM205 1579v25q191 198 254 303h260q63 -110 256 -303v-25h-159q-123 73 -228 180q-103 -103 -225 -180h-158z" />
    <glyph glyph-name="scircumflex" unicode="&#x15d;" horiz-adv-x="997" 
d="M454 -20q-220 0 -354 67v203q195 -90 363 -90q217 0 217 131q0 42 -24 70q-46 54 -235 127q-187 73 -255 147t-68 204q0 131 114 209t311 78q196 0 370 -79l-76 -177q-179 74 -301 74q-186 0 -186 -106q0 -52 48 -88t199 -94q150 -58 212 -102q122 -87 122 -244
q0 -158 -118 -244q-119 -86 -339 -86zM128 1241v25q191 198 254 303h260q63 -110 256 -303v-25h-159q-123 73 -228 180q-103 -103 -225 -180h-158z" />
    <glyph glyph-name="Scedilla" unicode="&#x15e;" horiz-adv-x="1126" 
d="M522 182q142 0 210 54t67 140q0 86 -62 144q-62 56 -259 136t-279 184t-82 250q0 183 130 288q131 105 345 105t422 -92l-76 -195q-196 82 -330 82t-194 -50t-60 -121t24 -111t79 -76t207 -99t227 -121q145 -112 145 -305t-141 -304q-109 -85 -281 -105l-34 -74
q80 -20 125 -68t45 -114q0 -222 -305 -222q-66 0 -121 15v137q54 -14 116 -14t92 16q32 16 32 62q0 85 -179 110l74 147q-216 7 -359 76v226q215 -101 422 -101z" />
    <glyph glyph-name="scedilla" unicode="&#x15f;" horiz-adv-x="997" 
d="M682 -270q0 -222 -305 -222q-66 0 -121 15v137q54 -14 116 -14t92 16q32 16 32 62q0 85 -179 110l75 147q-177 8 -292 66v203q195 -90 363 -90q217 0 217 131q0 42 -24 70q-46 54 -235 127q-187 73 -255 147t-68 204q0 131 114 209t311 78q196 0 370 -79l-76 -177
q-179 74 -301 74q-186 0 -186 -106q0 -52 48 -88t199 -94q150 -58 212 -102q122 -87 122 -244q0 -158 -118 -244q-92 -68 -247 -82l-34 -72q80 -20 125 -68t45 -114z" />
    <glyph glyph-name="Scaron" unicode="&#x160;" horiz-adv-x="1126" 
d="M522 182q142 0 210 54t67 140q0 86 -62 144q-62 56 -259 136t-279 184t-82 250q0 183 130 288q131 105 345 105t422 -92l-76 -195q-196 82 -330 82t-194 -50t-60 -121t24 -111t79 -76t207 -99t227 -121q145 -112 145 -305t-141 -304t-389 -111t-406 77v226
q215 -101 422 -101zM203 1907h158q138 -90 225 -183q97 100 228 183h159v-27q-204 -212 -256 -301h-260q-65 105 -254 301v27z" />
    <glyph glyph-name="scaron" unicode="&#x161;" horiz-adv-x="997" 
d="M454 -20q-220 0 -354 67v203q195 -90 363 -90q217 0 217 131q0 42 -24 70q-46 54 -235 127q-187 73 -255 147t-68 204q0 131 114 209t311 78q196 0 370 -79l-76 -177q-179 74 -301 74q-186 0 -186 -106q0 -52 48 -88t199 -94q150 -58 212 -102q122 -87 122 -244
q0 -158 -118 -244q-119 -86 -339 -86zM134 1569h158q138 -90 225 -183q97 100 228 183h159v-27q-204 -212 -256 -301h-260q-65 105 -254 301v27z" />
    <glyph glyph-name="Tcedilla" unicode="&#x162;" horiz-adv-x="1159" 
d="M782 -270q0 -222 -305 -222q-66 0 -121 15v137q54 -14 116 -14t92 16q32 16 32 62q0 85 -179 110l84 166h-42v1257h-430v205h1099v-205h-430v-1257h-45l-41 -88q80 -20 125 -68t45 -114z" />
    <glyph glyph-name="tcedilla" unicode="&#x163;" horiz-adv-x="805" 
d="M426 336q0 -166 162 -166q78 0 164 27v-177q-88 -38 -218 -40l-32 -68q80 -20 125 -68t45 -114q0 -222 -305 -222q-66 0 -121 15v137q54 -14 116 -14t92 16q32 16 32 62q0 85 -179 110l83 164q-200 62 -200 334v596h-151v104l162 86l80 234h145v-246h315v-178h-315v-592z
" />
    <glyph glyph-name="Tcaron" unicode="&#x164;" horiz-adv-x="1159" 
d="M698 0h-239v1257h-430v205h1099v-205h-430v-1257zM197 1907h158q138 -90 225 -183q97 100 228 183h159v-27q-204 -212 -256 -301h-260q-65 105 -254 301v27z" />
    <glyph glyph-name="tcaron" unicode="&#x165;" horiz-adv-x="805" 
d="M426 336q0 -166 162 -166q78 0 164 27v-177q-92 -40 -228 -40q-334 0 -334 352v596h-151v104l162 86l80 234h145v-246h315v-178h-315v-592zM555 1239v24q47 158 65 303h226v-20q-58 -157 -156 -307h-135z" />
    <glyph glyph-name="Tbar" unicode="&#x166;" horiz-adv-x="1159" 
d="M698 0h-239v635h-281v196h281v426h-430v205h1099v-205h-430v-426h279v-196h-279v-635z" />
    <glyph glyph-name="tbar" unicode="&#x167;" horiz-adv-x="805" 
d="M190 338v201h-135v163h135v226h-151v104l162 86l80 234h145v-246h315v-178h-315v-226h289v-163h-289v-195q0 -174 156 -174q77 0 170 27v-177q-89 -40 -244 -40t-236.5 89t-81.5 269z" />
    <glyph glyph-name="Utilde" unicode="&#x168;" horiz-adv-x="1520" 
d="M1339 1462v-946q1 -162 -69 -284t-202 -186q-132 -66 -314 -66q-272 0 -423 144t-151 396v942h240v-925q0 -181 84 -267t258 -86q338 0 338 355v923h239zM909 1579q-60 0 -130 39q-71 38 -108 56t-71 18q-81 0 -109 -115h-122q11 139 77 212t168 73q62 0 164 -56
q40 -22 76 -40t70 -17q79 0 106 115h125q-12 -134 -77 -210t-169 -75z" />
    <glyph glyph-name="utilde" unicode="&#x169;" horiz-adv-x="1300" 
d="M557 -20q-399 0 -399 403v723h237v-682q0 -126 52 -190t163 -64q148 0 218 88t69 297v551h236v-1106h-185l-33 145h-12q-49 -77 -139 -121t-207 -44zM794 1241q-60 0 -130 39q-71 38 -108 56t-71 18q-81 0 -109 -115h-122q12 139 78 212t167 73q62 0 164 -56
q39 -22 75 -40t71 -17q79 0 106 115h125q-12 -134 -77 -210t-169 -75z" />
    <glyph glyph-name="Umacron" unicode="&#x16a;" horiz-adv-x="1520" 
d="M1339 1462v-946q1 -162 -69 -284t-202 -186q-132 -66 -314 -66q-272 0 -423 144t-151 396v942h240v-925q0 -181 84 -267t258 -86q338 0 338 355v923h239zM441 1753h639v-174h-639v174z" />
    <glyph glyph-name="umacron" unicode="&#x16b;" horiz-adv-x="1300" 
d="M557 -20q-399 0 -399 403v723h237v-682q0 -126 52 -190t163 -64q148 0 218 88t69 297v551h236v-1106h-185l-33 145h-12q-49 -77 -139 -121t-207 -44zM326 1415h639v-174h-639v174z" />
    <glyph glyph-name="Ubreve" unicode="&#x16c;" horiz-adv-x="1520" 
d="M1339 1462v-946q1 -162 -69 -284t-202 -186q-132 -66 -314 -66q-272 0 -423 144t-151 396v942h240v-925q0 -181 84 -267t258 -86q338 0 338 355v923h239zM755 1753q199 0 213 129h140q-12 -141 -108 -222t-251 -81q-155 -1 -245 79t-99 224h137q10 -93 90 -117
q40 -12 123 -12z" />
    <glyph glyph-name="ubreve" unicode="&#x16d;" horiz-adv-x="1300" 
d="M557 -20q-399 0 -399 403v723h237v-682q0 -126 52 -190t163 -64q148 0 218 88t69 297v551h236v-1106h-185l-33 145h-12q-49 -77 -139 -121t-207 -44zM643 1415q199 0 213 129h140q-12 -141 -108 -222t-251 -81q-155 -1 -245 79t-99 224h137q10 -93 90 -117
q40 -12 123 -12z" />
    <glyph glyph-name="Uring" unicode="&#x16e;" horiz-adv-x="1520" 
d="M1339 1462v-946q1 -162 -69 -284t-202 -186q-132 -66 -314 -66q-272 0 -423 144t-151 396v942h240v-925q0 -181 84 -267t258 -86q338 0 338 355v923h239zM864 1804q0 50 -30 78t-76 29q-46 -1 -77 -29q-30 -28 -30 -78q0 -106 107 -106q46 0 76 28t30 78zM997 1805
q1 -101 -65 -165t-174 -63t-172 63t-64 164t64 164t170 62t174 -62t67 -163z" />
    <glyph glyph-name="uring" unicode="&#x16f;" horiz-adv-x="1300" 
d="M557 -20q-399 0 -399 403v723h237v-682q0 -126 52 -190t163 -64q148 0 218 88t69 297v551h236v-1106h-185l-33 145h-12q-49 -77 -139 -121t-207 -44zM749 1466q0 50 -30 78q-31 28 -77 29q-46 -1 -76 -29t-30 -78q0 -106 107 -106q46 0 76 28t30 78zM882 1467
q0 -101 -66 -165t-173 -63q-108 1 -172 63t-64 164q-1 102 63 164t170 62t174 -62t68 -163z" />
    <glyph glyph-name="Uhungarumlaut" unicode="&#x170;" horiz-adv-x="1520" 
d="M1339 1462v-946q1 -162 -69 -284t-202 -186q-132 -66 -314 -66q-272 0 -423 144t-151 396v942h240v-925q0 -181 84 -267t258 -86q338 0 338 355v923h239zM1253 1907v-21q-29 -49 -126 -148t-175 -159h-129v25q116 153 187 303h243zM447 1579v25q104 144 186 303h244v-21
q-29 -49 -126 -148t-175 -159h-129z" />
    <glyph glyph-name="uhungarumlaut" unicode="&#x171;" horiz-adv-x="1300" 
d="M557 -20q-399 0 -399 403v723h237v-682q0 -126 52 -190t163 -64q148 0 218 88t69 297v551h236v-1106h-185l-33 145h-12q-49 -77 -139 -121t-207 -44zM1144 1569v-21q-29 -49 -126 -148t-175 -159h-129v25q116 153 187 303h243zM338 1241v25q104 144 186 303h244v-21
q-29 -49 -126 -148t-175 -159h-129z" />
    <glyph glyph-name="Uogonek" unicode="&#x172;" horiz-adv-x="1520" 
d="M586 -260q0 123 145 240q-255 6 -403 147t-148 393v942h240v-925q0 -181 84 -267t258 -86q338 0 338 355v923h239v-946q1 -162 -69 -284q-113 -198 -374 -241q-62 -61 -98 -113q-36 -53 -36 -111q0 -89 88 -89q43 0 104 17v-144q-69 -20 -139 -20q-113 1 -171 57t-58 152
z" />
    <glyph glyph-name="uogonek" unicode="&#x173;" horiz-adv-x="1300" 
d="M557 -20q-399 0 -399 403v723h237v-682q0 -126 52 -190t163 -64q148 0 218 88t69 297v551h236v-1106h-33q-69 -66 -106 -120t-37 -113q0 -89 88 -89q43 0 104 17v-144q-69 -20 -139 -20q-113 1 -171 57t-58 136t38 143q38 62 132 133h-3l-33 145h-12q-49 -77 -139 -121
t-207 -44z" />
    <glyph glyph-name="Wcircumflex" unicode="&#x174;" horiz-adv-x="1937" 
d="M1542 0h-260l-248 872q-16 56 -40 164t-29 150q-28 -177 -70 -318l-242 -868h-260l-381 1462h244l209 -852q49 -205 70 -362q23 181 73 360l238 854h237l244 -858q35 -119 74 -356q15 143 72 364l208 850h242zM581 1579v25q191 198 254 303h260q63 -110 256 -303v-25
h-159q-123 73 -228 180q-103 -103 -225 -180h-158z" />
    <glyph glyph-name="wcircumflex" unicode="&#x175;" horiz-adv-x="1673" 
d="M1075 0l-143 516q-26 82 -94 381h-9q-58 -270 -92 -383l-147 -514h-260l-310 1106h240l141 -545q48 -202 68 -346h6q25 179 66 309l168 582h258l163 -582q16 -49 38 -150t26 -157h8q15 123 70 344l143 545h236l-312 -1106h-264zM450 1241v25q191 198 254 303h260
q63 -110 256 -303v-25h-159q-123 73 -228 180q-103 -103 -225 -180h-158z" />
    <glyph glyph-name="Ycircumflex" unicode="&#x176;" horiz-adv-x="1212" 
d="M725 0h-240v559l-485 903h260l346 -667l346 667h260l-487 -895v-567zM222 1579v25q191 198 254 303h260q63 -110 256 -303v-25h-159q-123 73 -228 180q-103 -103 -225 -180h-158z" />
    <glyph glyph-name="ycircumflex" unicode="&#x177;" horiz-adv-x="1098" 
d="M195 -492q-78 0 -152 17v186q53 -12 121 -12q170 0 239 197l41 104l-444 1106h256l225 -627q51 -134 68 -252h8q9 55 33 133t254 746h254l-473 -1253q-129 -345 -430 -345zM169 1241v25q191 198 254 303h260q63 -110 256 -303v-25h-159q-123 73 -228 180
q-103 -103 -225 -180h-158z" />
    <glyph glyph-name="Ydieresis" unicode="&#x178;" horiz-adv-x="1212" 
d="M725 0h-240v559l-485 903h260l346 -667l346 667h260l-487 -895v-567zM686 1738q0 60 34 88t84 28t82 -31t32 -85t-33 -86t-83 -32t-82 29q-34 29 -34 89zM293 1738q-1 60 33 88t84 28t82 -31t32 -85t-32 -86t-82 -32t-84 29t-33 89z" />
    <glyph glyph-name="Zacute" unicode="&#x179;" horiz-adv-x="1178" 
d="M1112 0h-1046v166l737 1091h-717v205h1006v-168l-740 -1089h760v-205zM920 1907v-21q-52 -62 -156 -158t-174 -149h-156v25q133 163 213 303h273z" />
    <glyph glyph-name="zacute" unicode="&#x17a;" horiz-adv-x="979" 
d="M907 0h-839v145l559 781h-525v180h789v-164l-547 -762h563v-180zM847 1569v-21q-51 -62 -155 -158t-175 -149h-156v25q133 163 213 303h273z" />
    <glyph glyph-name="Zdotaccent" unicode="&#x17b;" horiz-adv-x="1178" 
d="M1112 0h-1046v166l737 1091h-717v205h1006v-168l-740 -1089h760v-205zM455 1738q1 62 35 96t97 34t97 -34t35 -96q-1 -62 -35 -96t-97 -34t-97 34t-35 96z" />
    <glyph glyph-name="zdotaccent" unicode="&#x17c;" horiz-adv-x="979" 
d="M907 0h-839v145l559 781h-525v180h789v-164l-547 -762h563v-180zM357 1400q1 62 35 96t97 34t97 -34t35 -96q-1 -62 -35 -96t-97 -34t-97 34t-35 96z" />
    <glyph glyph-name="Zcaron" unicode="&#x17d;" horiz-adv-x="1178" 
d="M1112 0h-1046v166l737 1091h-717v205h1006v-168l-740 -1089h760v-205zM210 1907h158q138 -90 225 -183q97 100 228 183h159v-27q-204 -212 -256 -301h-260q-65 105 -254 301v27z" />
    <glyph glyph-name="zcaron" unicode="&#x17e;" horiz-adv-x="979" 
d="M907 0h-839v145l559 781h-525v180h789v-164l-547 -762h563v-180zM115 1569h158q138 -90 225 -183q97 100 228 183h159v-27q-204 -212 -256 -301h-260q-65 105 -254 301v27z" />
    <glyph glyph-name="longs" unicode="&#x17f;" horiz-adv-x="719" 
d="M559 1376q-156 0 -156 -192v-1184h-235v1190q0 190 90.5 283.5t284.5 93.5q131 0 237 -43l-57 -178q-93 30 -164 30z" />
    <glyph glyph-name="florin" unicode="&#x192;" horiz-adv-x="1176" 
d="M354 -492q-87 0 -159 21v190q62 -18 133 -18t106 45t35 148v925h-195v113l195 69v111q0 191 83 281t273 90q108 0 234 -45l-58 -176q-87 30 -159 30t-104.5 -43.5t-32.5 -140.5v-109h253v-180h-251v-946q0 -365 -353 -365z" />
    <glyph glyph-name="Ohorn" unicode="&#x1a0;" horiz-adv-x="1642" 
d="M809 1280q-434 0 -434 -547q0 -273 109.5 -411t322.5 -138q430 0 430 548t-428 548zM1438 1556h241l15 -22q-32 -167 -100.5 -260.5t-182.5 -136.5q78 -174 78 -404q0 -357 -178.5 -555t-506.5 -198t-505.5 196.5t-177.5 558.5t178.5 556t511.5 194t512 -209
q115 45 115 280z" />
    <glyph glyph-name="ohorn" unicode="&#x1a1;" horiz-adv-x="1319" 
d="M344 554q0 -188 67 -285t215 -97t214.5 97t66.5 285t-67 284t-215 96t-214.5 -96t-66.5 -284zM617 1126q239 0 380 -139q71 21 106.5 86.5t35.5 200.5h241l15 -23q-37 -179 -109.5 -268.5t-198.5 -126.5q62 -135 62 -301q0 -271 -139 -423t-387 -152q-155 0 -274 70
t-183 201t-64 304q0 269 138 420t377 151z" />
    <glyph glyph-name="Uhorn" unicode="&#x1af;" horiz-adv-x="1692" 
d="M1339 1462v-194q78 18 115 87.5t37 200.5h240l14 -22q-27 -142 -101 -262.5t-305 -155.5v-600q0 -251 -151.5 -393.5t-427.5 -142.5t-428 144t-152 396v942h240v-938q0 -340 346 -340q334 0 334 342v936h239z" />
    <glyph glyph-name="uhorn" unicode="&#x1b0;" horiz-adv-x="1458" 
d="M1286 1276h240l14 -23q-28 -145 -103 -268.5t-304 -150.5v-834h-185l-33 145h-14q-49 -77 -137.5 -121t-204.5 -44q-401 0 -401 403v723h237v-682q0 -127 52 -190.5t163 -63.5q148 0 217.5 88.5t69.5 296.5v551h236v-119q153 35 153 289z" />
    <glyph glyph-name="uni01F0" unicode="&#x1f0;" horiz-adv-x="571" 
d="M55 -492q-106 0 -176 25v186q68 -18 139 -18q150 0 150 170v1235h235v-1251q1 -171 -89 -259t-259 -88zM-100 1569h158q138 -90 225 -183q97 100 228 183h159v-27q-204 -212 -256 -301h-260q-65 105 -254 301v27z" />
    <glyph glyph-name="Aringacute" unicode="&#x1fa;" horiz-adv-x="1356" 
d="M569 1444q0 -107 101 -107h10q45 0 73.5 28.5t28.5 78.5t-30 78t-76 28t-76.5 -27.5t-30.5 -78.5zM567 1722v19q30 29 86 98.5t88 122.5h273v-14q-31 -39 -126.5 -111.5t-162.5 -114.5h-158zM903 571l-117 308q-81 198 -108 305q-27 -87 -223 -613h448zM915 1444
q0 -104 -75 -166l516 -1278h-252l-141 365h-574l-137 -365h-252l516 1276q-76 58 -76 164t64.5 167.5t169.5 61.5t173 -60.5t68 -164.5z" />
    <glyph glyph-name="aringacute" unicode="&#x1fb;" horiz-adv-x="1188" 
d="M709 1446q0 106 -106.5 106t-106.5 -106t106.5 -106t106.5 106zM602 1219q-104 0 -169.5 59.5t-65.5 165.5t65.5 166.5t167.5 60.5t172 -59.5t70 -165.5t-68 -166.5t-172 -60.5zM471 1753v16q98 91 174 193h301v-12q-59 -64 -313 -197h-162zM334 315q0 -155 176 -155
q127 0 205 71.5t78 200.5v96l-142 -6q-317 -14 -317 -207zM436 -20q-160 0 -253 88t-93 253q0 333 514 349l191 6v59q0 211 -203 211q-141 0 -313 -84l-76 168q192 96 399 96q426 0 426 -381v-745h-168l-47 154h-8q-134 -174 -369 -174z" />
    <glyph glyph-name="AEacute" unicode="&#x1fc;" horiz-adv-x="1868" 
d="M936 612v641h-123l-291 -641h414zM1747 0h-811v406h-504l-188 -406h-246l678 1462h1071v-202h-571v-398h532v-200h-532v-459h571v-203zM1477 1907v-21q-51 -62 -155 -158t-175 -149h-156v25q133 163 213 303h273z" />
    <glyph glyph-name="aeacute" unicode="&#x1fd;" horiz-adv-x="1817" 
d="M1262 948q-108 0 -174 -70t-74 -208h473q-1 130 -59 204t-166 74zM334 315q0 -155 166 -155q124 0 196 72t72 200v96l-135 -6q-155 -6 -227 -54t-72 -153zM432 -20q-154 0 -248 90t-94 254q0 330 492 346l188 6v76q0 194 -201 194q-141 0 -307 -82l-74 166q180 96 408 96
q229 0 328 -155q120 155 336 155t338 -134t122 -363v-127h-712q10 -336 301 -336q184 0 356 80v-191q-157 -75 -367 -75q-291 0 -424 219q-94 -125 -190 -172t-252 -47zM1274 1569v-21q-52 -62 -156 -158t-174 -149h-156v25q133 163 213 303h273z" />
    <glyph glyph-name="Oslashacute" unicode="&#x1fe;" horiz-adv-x="1612" 
d="M375 752q0 -250 78 -381l587 850q-92 59 -231 59q-215 0 -325 -139t-109 -389zM807 184q430 0 430 549q0 225 -80 361l-586 -850q97 -60 236 -60zM1491 738q-1 -362 -179 -560t-505 -198q-213 0 -361 81l-94 -137l-141 94l98 144q-188 196 -188 566q1 370 179 563
q178 194 509 194q199 0 354 -82l90 129l142 -92l-99 -140q195 -200 195 -562zM1141 1907v-21q-51 -62 -155 -158t-175 -149h-156v25q133 163 213 303h273z" />
    <glyph glyph-name="oslashacute" unicode="&#x1ff;" horiz-adv-x="1251" 
d="M907 555q0 121 -33 203l-387 -553q54 -33 140 -33q280 0 280 383zM344 579q0 -159 37 -243l391 559q-60 39 -147 39q-149 0 -215 -98t-66 -257zM1149 548q0 -264 -139 -416t-387 -152q-144 0 -250 57l-76 -109l-135 90l82 117q-142 155 -142 422t138 418t389 151
q144 0 258 -63l69 100l136 -92l-78 -108q135 -151 135 -415zM952 1569v-21q-52 -62 -156 -158t-174 -149h-156v25q133 163 213 303h273z" />
    <glyph glyph-name="Scommaaccent" unicode="&#x218;" horiz-adv-x="1126" 
d="M522 182q142 0 210 54t67 140q0 86 -62 144q-62 56 -259 136t-279 184t-82 250q0 183 130 288q131 105 345 105t422 -92l-76 -195q-196 82 -330 82t-194 -50t-60 -121t24 -111t79 -76t207 -99t227 -121q145 -112 145 -305t-141 -304t-389 -111t-406 77v226
q215 -101 422 -101zM657 -125v-20q-64 -175 -163 -308h-136v25q56 157 74 303h225z" />
    <glyph glyph-name="scommaaccent" unicode="&#x219;" horiz-adv-x="997" 
d="M454 -20q-220 0 -354 67v203q195 -90 363 -90q217 0 217 131q0 42 -24 70q-46 54 -235 127q-187 73 -255 147t-68 204q0 131 114 209t311 78q196 0 370 -79l-76 -177q-179 74 -301 74q-186 0 -186 -106q0 -52 48 -88t199 -94q150 -58 212 -102q122 -87 122 -244
q0 -158 -118 -244q-119 -86 -339 -86zM595 -125v-20q-64 -175 -163 -308h-136v25q56 157 74 303h225z" />
    <glyph glyph-name="Tcommaaccent" unicode="&#x21a;" horiz-adv-x="1159" 
d="M698 0h-239v1257h-430v205h1099v-205h-430v-1257zM690 -125v-20q-64 -175 -163 -308h-136v25q56 157 74 303h225z" />
    <glyph glyph-name="tcommaaccent" unicode="&#x21b;" horiz-adv-x="805" 
d="M426 336q0 -166 162 -166q78 0 164 27v-177q-92 -40 -228 -40q-334 0 -334 352v596h-151v104l162 86l80 234h145v-246h315v-178h-315v-592zM570 -125v-20q-64 -175 -163 -308h-136v25q56 157 74 303h225z" />
    <glyph glyph-name="dotlessj" unicode="&#x237;" horiz-adv-x="571" 
d="M55 -492q-106 0 -176 25v186q68 -18 139 -18q150 0 150 170v1235h235v-1251q0 -171 -89.5 -259t-258.5 -88z" />
    <glyph glyph-name="uni02BC" unicode="&#x2bc;" horiz-adv-x="393" 
d="M347 1462l15 -22q-53 -209 -176 -479h-170q69 289 100 501h231z" />
    <glyph glyph-name="circumflex" unicode="&#x2c6;" horiz-adv-x="1227" 
d="M227 1241v25q191 198 254 303h260q63 -110 256 -303v-25h-159q-123 73 -228 180q-103 -103 -225 -180h-158z" />
    <glyph glyph-name="caron" unicode="&#x2c7;" horiz-adv-x="1227" 
d="M227 1569h158q138 -90 225 -183q97 100 228 183h159v-27q-204 -212 -256 -301h-260q-65 105 -254 301v27z" />
    <glyph glyph-name="macron" unicode="&#x2c9;" horiz-adv-x="1223" 
d="M291 1415h639v-174h-639v174z" />
    <glyph glyph-name="breve" unicode="&#x2d8;" horiz-adv-x="1227" 
d="M610 1415q199 0 213 129h140q-12 -141 -108 -222t-251 -81t-245.5 79.5t-98.5 223.5h137q10 -93 70 -111t143 -18z" />
    <glyph glyph-name="dotaccent" unicode="&#x2d9;" horiz-adv-x="571" 
d="M154 1400q0 62 34.5 96t97.5 34t97.5 -34t34.5 -96t-34.5 -96t-97.5 -34t-97.5 34t-34.5 96z" />
    <glyph glyph-name="ring" unicode="&#x2da;" horiz-adv-x="1182" 
d="M694 1466q0 50 -30 78.5t-76 28.5t-76.5 -28.5t-30.5 -78.5q0 -106 107 -106q46 0 76 28t30 78zM827 1467q0 -101 -65.5 -164.5t-173.5 -63.5t-172 62.5t-64 164.5t64 164t170 62t173.5 -62t67.5 -163z" />
    <glyph glyph-name="ogonek" unicode="&#x2db;" horiz-adv-x="412" 
d="M199 -233q0 -89 88 -89q43 0 104 17v-144q-69 -20 -139 -20q-113 0 -171 56.5t-58 136.5t38 142.5t132 133.5h149q-69 -66 -106 -120.5t-37 -112.5z" />
    <glyph glyph-name="tilde" unicode="&#x2dc;" horiz-adv-x="1227" 
d="M776 1241q-60 0 -130.5 39t-107.5 56.5t-71 17.5q-81 0 -109 -115h-122q12 139 77.5 212t167.5 73q62 0 132.5 -39t107 -56.5t70.5 -17.5q79 0 106 115h125q-12 -134 -77 -209.5t-169 -75.5z" />
    <glyph glyph-name="hungarumlaut" unicode="&#x2dd;" horiz-adv-x="1192" 
d="M999 1569v-21q-29 -49 -126 -148t-175 -159h-129v25q116 153 187 303h243zM193 1241v25q104 144 186 303h244v-21q-29 -49 -126 -148t-175 -159h-129z" />
    <glyph glyph-name="uni02F3" unicode="&#x2f3;" horiz-adv-x="682" 
d="M229 -352q0 -107 107 -107q48 0 77 28.5t29 78.5t-30 78t-76 28t-76.5 -27.5t-30.5 -78.5zM578 -353q0 -101 -68 -163t-174 -62t-170 61t-64 165t64 165.5t171 61.5t174 -63.5t67 -164.5z" />
    <glyph glyph-name="uni0300" unicode="&#x300;" horiz-adv-x="0" 
d="M-972 1569h273q37 -70 103 -161t110 -142v-25h-158q-68 53 -174 151t-154 156v21z" />
    <glyph glyph-name="uni0301" unicode="&#x301;" horiz-adv-x="0" 
d="M-300 1569v-21q-52 -62 -156 -158t-174 -149h-156v25q133 163 213 303h273z" />
    <glyph glyph-name="uni0303" unicode="&#x303;" horiz-adv-x="0" 
d="M-487 1241q-60 0 -130 39q-71 38 -108 56t-71 18q-81 0 -109 -115h-122q11 139 77 212t168 73q62 0 164 -56q40 -22 76 -40t70 -17q79 0 106 115h125q-12 -134 -77 -210t-169 -75z" />
    <glyph glyph-name="hook" unicode="&#x309;" horiz-adv-x="0" 
d="M-643 1690q268 0 268 -199q0 -147 -164 -186l-10 -93h-139l-19 162q75 13 111.5 37t36.5 68q0 73 -109 73q-60 0 -116 -14v135q68 17 141 17z" />
    <glyph glyph-name="uni030F" unicode="&#x30f;" horiz-adv-x="0" 
d="M-682 1241h-129q-68 54 -164.5 155t-126.5 152v21h244q74 -162 176 -303v-25zM-305 1241h-129q-68 54 -164.5 155t-126.5 152v21h244q74 -162 176 -303v-25z" />
    <glyph glyph-name="dotbelow" unicode="&#x323;" horiz-adv-x="0" 
d="M-758 -260q0 62 34.5 95.5t98.5 33.5t97.5 -34.5t33.5 -94.5t-34 -95.5t-98 -35.5t-98 34.5t-34 96.5z" />
    <glyph glyph-name="tonos" unicode="&#x384;" horiz-adv-x="1182" 
d="M809 1640v-24q-58 -172 -180 -375h-140v29q65 199 86 370h234z" />
    <glyph glyph-name="dieresistonos" unicode="&#x385;" horiz-adv-x="1182" 
d="M725 1399q0 117 111 117q46 0 78 -28t32 -88t-32 -89t-80 -29t-78.5 29t-30.5 88zM233 1400q0 60 31 88t81 28t80 -30t30 -88t-32 -87t-80 -29t-79 29t-31 89zM803 1716v-20q-62 -136 -195 -307h-108v24q59 188 78 303h225z" />
    <glyph glyph-name="Alphatonos" unicode="&#x386;" horiz-adv-x="1354" 
d="M891 612l-137 398q-45 120 -78 252q-27 -123 -79 -269l-132 -381h426zM1100 0l-146 406h-559l-143 -406h-252l547 1468h260l547 -1468h-254zM306 1535v-24q-58 -172 -180 -375h-140v29q65 199 86 370h234z" />
    <glyph glyph-name="anoteleia" unicode="&#x387;" horiz-adv-x="563" 
d="M133 721q0 153 110.5 153t148.5 -40t38 -112t-39 -112.5t-110 -40.5t-109.5 39t-38.5 113z" />
    <glyph glyph-name="Epsilontonos" unicode="&#x388;" horiz-adv-x="1278" 
d="M1153 0h-827v1462h827v-202h-588v-398h551v-200h-551v-459h588v-203zM249 1535v-24q-58 -172 -180 -375h-140v29q65 199 86 370h234z" />
    <glyph glyph-name="Etatonos" unicode="&#x389;" horiz-adv-x="1686" 
d="M1491 0h-240v659h-674v-659h-239v1462h239v-598h674v598h240v-1462zM249 1535v-24q-58 -172 -180 -375h-140v29q65 199 86 370h234z" />
    <glyph glyph-name="Iotatonos" unicode="&#x38a;" horiz-adv-x="784" 
d="M351 0v1462h239v-1462h-239zM257 1535v-24q-58 -172 -180 -375h-140v29q65 199 86 370h234z" />
    <glyph glyph-name="Omicrontonos" unicode="&#x38c;" horiz-adv-x="1688" 
d="M881 184q430 0 430 548t-429 548q-214 0 -324 -139t-109 -409q0 -270 109 -408q109 -140 323 -140zM1565 734q-1 -358 -179 -556t-507 -198t-507 196t-177 559q1 362 179 556t506 194t507 -197q178 -196 178 -554zM278 1535v-24q-58 -172 -180 -375h-140v29
q65 199 86 370h234z" />
    <glyph glyph-name="Upsilontonos" unicode="&#x38e;" horiz-adv-x="1489" 
d="M1001 0h-240v559l-485 903h260l346 -667l346 667h260l-487 -895v-567zM239 1535v-24q-58 -172 -180 -375h-140v29q65 199 86 370h234z" />
    <glyph glyph-name="Omegatonos" unicode="&#x38f;" horiz-adv-x="1636" 
d="M878 1280q-212 0 -321 -120q-110 -120 -110 -336q-1 -218 73 -366t236 -253v-205h-612v205h366q-152 107 -232 275t-81 368q0 292 182 464t500 173q318 0 500 -171t182 -466q0 -203 -82 -370t-234 -273h369v-205h-614v205q158 101 234 249t77 368q-1 220 -111 339
t-322 119zM278 1535v-24q-58 -172 -180 -375h-140v29q65 199 86 370h234z" />
    <glyph glyph-name="iotadieresistonos" unicode="&#x390;" horiz-adv-x="764" 
d="M164 334v772h235v-770q0 -166 146 -166q89 0 180 27v-177q-87 -40 -243 -40q-154 0 -236 88t-82 266zM452 1399q0 117 111 117q46 0 78 -28t32 -88t-32 -89t-80 -29q-49 0 -79 29t-30 88zM-40 1400q0 60 31 88t81 28t80 -30t30 -88t-32 -87t-80 -29t-79 29t-31 89z
M530 1716v-20q-62 -136 -195 -307h-108v24q59 188 78 303h225z" />
    <glyph glyph-name="Alpha" unicode="&#x391;" horiz-adv-x="1354" 
d="M891 612l-137 398q-45 120 -78 252q-27 -123 -79 -269l-132 -381h426zM1100 0l-146 406h-559l-143 -406h-252l547 1468h260l547 -1468h-254z" />
    <glyph glyph-name="Beta" unicode="&#x392;" horiz-adv-x="1352" 
d="M989 440q0 224 -315 224h-242v-463h254q150 -1 226 57t77 182zM432 858h230q150 0 219 48t69 156t-74 154t-237 46h-207v-404zM193 1462h434q303 0 437 -88t134 -278q0 -128 -66 -213t-190 -107v-10q154 -28 226 -114t73 -232q1 -196 -137 -308t-383 -112h-528v1462z" />
    <glyph glyph-name="Gamma" unicode="&#x393;" horiz-adv-x="1106" 
d="M1061 1462v-205h-629v-1257h-239v1462h868z" />
    <glyph glyph-name="uni0394" unicode="&#x394;" horiz-adv-x="1260" 
d="M629 1241q-43 -173 -76 -268l-256 -768h661l-253 764q-55 154 -76 272zM1210 0h-1163v141l453 1323h258l452 -1325v-139z" />
    <glyph glyph-name="Epsilon" unicode="&#x395;" horiz-adv-x="1143" 
d="M1020 0h-827v1462h827v-202h-588v-398h551v-200h-551v-459h588v-203z" />
    <glyph glyph-name="Zeta" unicode="&#x396;" horiz-adv-x="1178" 
d="M1112 0h-1046v166l737 1091h-717v205h1006v-168l-740 -1089h760v-205z" />
    <glyph glyph-name="Eta" unicode="&#x397;" horiz-adv-x="1538" 
d="M1346 0h-240v659h-674v-659h-239v1462h239v-598h674v598h240v-1462z" />
    <glyph glyph-name="Theta" unicode="&#x398;" horiz-adv-x="1612" 
d="M807 184q434 0 434 549q0 271 -109.5 409t-324.5 138t-325.5 -140t-110.5 -408t110 -408t326 -140zM1491 734q0 -358 -178.5 -556t-507.5 -198t-506.5 196.5t-177.5 558.5t178.5 556t506.5 194t506.5 -196.5t178.5 -554.5zM1094 844v-201h-576v201h576z" />
    <glyph glyph-name="Iota" unicode="&#x399;" horiz-adv-x="625" 
d="M193 0v1462h239v-1462h-239z" />
    <glyph glyph-name="Kappa" unicode="&#x39a;" horiz-adv-x="1309" 
d="M432 0h-239v1462h239v-698q98 120 195 231l395 467h272q-383 -450 -549 -641l564 -821h-277l-459 662l-141 -115v-547z" />
    <glyph glyph-name="Lambda" unicode="&#x39b;" horiz-adv-x="1282" 
d="M639 1235q-22 -106 -48 -195.5t-343 -1039.5h-248l512 1462h256l514 -1462h-248l-301 903q-65 194 -94 332z" />
    <glyph glyph-name="Mu" unicode="&#x39c;" horiz-adv-x="1890" 
d="M410 711v-711h-217v1462h337l406 -1163h6l418 1163h338v-1462h-230v723q0 109 6 284t9 212h-8l-439 -1219h-211l-424 1221h-8q17 -272 17 -510z" />
    <glyph glyph-name="Nu" unicode="&#x39d;" horiz-adv-x="1604" 
d="M1411 0h-293l-719 1165h-8l5 -65q14 -186 14 -340v-760h-217v1462h290l717 -1159h6q-2 23 -8 167t-6 226v766h219v-1462z" />
    <glyph glyph-name="Xi" unicode="&#x39e;" horiz-adv-x="1151" 
d="M1073 203v-203h-997v203h997zM117 1462h915v-202h-915v202zM199 862h751v-200h-751v200z" />
    <glyph glyph-name="Omicron" unicode="&#x39f;" horiz-adv-x="1612" 
d="M807 184q430 0 430 548t-429 548q-214 0 -324 -139t-109 -409q0 -270 109 -408q109 -140 323 -140zM1491 734q-1 -358 -179 -556t-507 -198t-507 196t-177 559q1 362 179 556t506 194t507 -197q178 -196 178 -554z" />
    <glyph glyph-name="Pi" unicode="&#x3a0;" horiz-adv-x="1509" 
d="M1317 0h-240v1257h-645v-1257h-239v1462h1124v-1462z" />
    <glyph glyph-name="Rho" unicode="&#x3a1;" horiz-adv-x="1260" 
d="M432 748h127q184 0 270 64t86 195t-77 193t-240 62h-166v-514zM614 1462q547 0 547 -442q0 -229 -150 -351t-427 -122h-152v-547h-239v1462h421z" />
    <glyph glyph-name="Sigma" unicode="&#x3a3;" horiz-adv-x="1188" 
d="M76 0v193l475 571l-463 508v190h983v-205h-504l-215 7l457 -498l-479 -569l313 6h487v-203h-1054z" />
    <glyph glyph-name="Tau" unicode="&#x3a4;" horiz-adv-x="1159" 
d="M698 0h-239v1257h-430v205h1099v-205h-430v-1257z" />
    <glyph glyph-name="Upsilon" unicode="&#x3a5;" horiz-adv-x="1212" 
d="M725 0h-240v559l-485 903h260l346 -667l346 667h260l-487 -895v-567z" />
    <glyph glyph-name="Phi" unicode="&#x3a6;" horiz-adv-x="1698" 
d="M735 1108h-49q-166 0 -260 -95t-94 -259t101 -261.5t284 -97.5h18v713zM735 -20v225h-33q-373 0 -488.5 196.5t-115.5 354.5t70 282t201 194.5t307 70.5h59v180h226v-180h61q177 0 307.5 -70t199 -193.5t68.5 -283.5t-115.5 -355.5t-488.5 -195.5h-32v-225h-226zM961 395
h20q180 0 281.5 96.5t101.5 262.5t-94.5 260t-259.5 94h-49v-713z" />
    <glyph glyph-name="Chi" unicode="&#x3a7;" horiz-adv-x="1274" 
d="M1270 0h-275l-366 598l-369 -598h-256l485 758l-454 704h266l338 -553l338 553h258l-457 -708z" />
    <glyph glyph-name="Psi" unicode="&#x3a8;" horiz-adv-x="1712" 
d="M1604 981q0 -263 -150.5 -402t-437.5 -139h-49v-440h-224v440h-49q-283 0 -434 136.5t-151 402.5v483h231v-479q0 -176 91.5 -260t283.5 -84h28v823h224v-823h30q182 0 277.5 85.5t95.5 254.5v483h234v-481z" />
    <glyph glyph-name="uni03A9" unicode="&#x3a9;" horiz-adv-x="1606" 
d="M802 1280q-212 0 -321.5 -119t-109.5 -337t73.5 -365.5t235.5 -253.5v-205h-612v205h366q-152 107 -232.5 275t-80.5 368q0 292 182 464.5t500 172.5t500 -171t182 -466q0 -203 -82 -370t-234 -273h369v-205h-614v205q158 100 234.5 248.5t76.5 368.5t-110.5 339
t-322.5 119z" />
    <glyph glyph-name="Iotadieresis" unicode="&#x3aa;" horiz-adv-x="625" 
d="M193 0v1462h239v-1462h-239zM394 1738q0 60 34 88t84 28t82 -31t32 -85t-33 -86t-83 -32t-82 29q-34 29 -34 89zM1 1738q-1 60 33 88t84 28t82 -31t32 -85t-32 -86t-82 -32t-84 29t-33 89z" />
    <glyph glyph-name="Upsilondieresis" unicode="&#x3ab;" horiz-adv-x="1212" 
d="M725 0h-240v559l-485 903h260l346 -667l346 667h260l-487 -895v-567zM686 1738q0 60 34 88t84 28t82 -31t32 -85t-33 -86t-83 -32t-82 29q-34 29 -34 89zM293 1738q-1 60 33 88t84 28t82 -31t32 -85t-32 -86t-82 -32t-84 29t-33 89z" />
    <glyph glyph-name="alphatonos" unicode="&#x3ac;" horiz-adv-x="1288" 
d="M1106 291q0 -117 84 -117q31 0 61 10v-178q-15 -10 -55 -18t-70 -8q-95 0 -147 39t-78 128h-16q-115 -167 -331 -167t-334 150t-118 423t122 423t344 150q221 0 329 -168h12q27 97 68 148h190q-27 -82 -44 -210t-17 -230v-375zM611 170q141 0 205 84t65 285v12
q0 207 -67 295t-210 88q-260 0 -260 -387q0 -189 63 -283t204 -94zM848 1640v-24q-58 -172 -180 -375h-140v29q65 199 86 370h234z" />
    <glyph glyph-name="epsilontonos" unicode="&#x3ad;" horiz-adv-x="1055" 
d="M618 487q-301 0 -301 -165q0 -156 281 -156q193 0 381 86v-197q-151 -75 -395 -75t-372 84t-128 239q0 105 62 171t194 97v11q-209 54 -209 254q-1 136 121 213t336 77t393 -79l-78 -179q-111 48 -179 62t-140 14q-236 0 -236 -133q0 -75 72 -111t225 -36h131v-177h-158z
M800 1640v-24q-58 -172 -180 -375h-140v29q65 199 86 370h234z" />
    <glyph glyph-name="etatonos" unicode="&#x3ae;" horiz-adv-x="1300" 
d="M1141 -492h-236v1172q0 132 -54 193t-184 61t-197 -90t-67 -293v-551h-235v1106h184l33 -145h12q50 79 142 122t204 43q398 0 398 -405v-1213zM897 1640v-24q-58 -172 -180 -375h-140v29q65 199 86 370h234z" />
    <glyph glyph-name="iotatonos" unicode="&#x3af;" horiz-adv-x="764" 
d="M164 334v772h235v-770q0 -166 146 -166q89 0 180 27v-177q-87 -40 -243 -40q-154 0 -236 88t-82 266zM529 1640v-24q-58 -172 -180 -375h-140v29q65 199 86 370h234z" />
    <glyph glyph-name="upsilondieresistonos" unicode="&#x3b0;" horiz-adv-x="1284" 
d="M1174 602q0 -622 -520 -622q-256 0 -378 127t-122 395v604h235v-604q0 -164 63 -248t206 -84q144 0 212 106t68 326q0 219 -68 504h238q66 -257 66 -504zM788 1399q0 117 111 117q46 0 78 -28t32 -88t-32 -89t-80 -29q-49 0 -79 29t-30 88zM296 1400q0 60 31 88t81 28
t80 -30t30 -88t-32 -87t-80 -29t-79 29t-31 89zM866 1716v-20q-62 -136 -195 -307h-108v24q59 188 78 303h225z" />
    <glyph glyph-name="alpha" unicode="&#x3b1;" horiz-adv-x="1288" 
d="M1106 291q0 -117 84 -117q31 0 61 10v-178q-16 -10 -55.5 -18t-69.5 -8q-95 0 -147 39t-78 128h-16q-115 -167 -331 -167t-334 150t-118 423t122.5 423t343.5 150t329 -168h12q27 97 68 148h190q-27 -82 -44 -210.5t-17 -229.5v-375zM611 170q141 0 204.5 84.5
t65.5 284.5v12q0 206 -67 294.5t-210 88.5q-260 0 -260 -387q0 -189 63 -283t204 -94z" />
    <glyph glyph-name="beta" unicode="&#x3b2;" horiz-adv-x="1319" 
d="M672 1378q-269 0 -269 -301v-829q138 -78 293 -78q299 0 299 270q0 132 -80.5 203.5t-232.5 71.5h-92v190h72q128 0 196 64.5t68 178.5t-67.5 172t-186.5 58zM668 1567q234 0 364.5 -104t130.5 -289q0 -293 -303 -345v-6q375 -44 375 -401q0 -212 -132 -327t-350 -115
t-350 65v-537h-235v1588q0 225 133 348t367 123z" />
    <glyph glyph-name="gamma" unicode="&#x3b3;" horiz-adv-x="1106" 
d="M592 -492h-252q0 86 28 229t74 275l-436 1094h244l203 -539q28 -74 62 -186.5t44 -169.5h6q16 91 49 198t242 697h244l-410 -1083q-42 -109 -70 -255.5t-28 -259.5z" />
    <glyph glyph-name="delta" unicode="&#x3b4;" horiz-adv-x="1227" 
d="M905 466q0 133 -56 216t-175 145q-163 -42 -245.5 -142t-82.5 -232t74 -206.5t206 -74.5t205.5 80.5t73.5 213.5zM1018 1276q-202 102 -343 102q-88 0 -131.5 -33.5t-43.5 -90.5t58 -111t218 -137q199 -108 285 -228.5t86 -281.5q0 -247 -137.5 -381.5t-381.5 -134.5
t-385 124t-141 318q0 382 412 504q-246 144 -246 340q0 137 109 216t297 79q105 0 202 -22.5t238 -88.5z" />
    <glyph glyph-name="epsilon" unicode="&#x3b5;" horiz-adv-x="1055" 
d="M618 487q-301 0 -301 -165q0 -156 281 -156q193 0 381 86v-197q-151 -75 -395 -75t-372 84.5t-128 238.5q0 105 61.5 170.5t194.5 97.5v11q-209 54 -209 254q0 136 121.5 213t335.5 77t393 -79l-78 -179q-111 48 -179.5 62t-139.5 14q-236 0 -236 -133q0 -76 72.5 -111.5
t224.5 -35.5h131v-177h-158z" />
    <glyph glyph-name="zeta" unicode="&#x3b6;" horiz-adv-x="1004" 
d="M969 -61q0 -145 -133 -328h-236q59 77 97 154t38 118t-31 69.5t-186 55.5q-416 74 -416 435q0 173 58 311t168.5 273.5t365.5 358.5q-44 -12 -266 -12h-266v182h803v-155q-423 -355 -521 -563t-98 -363q0 -90 27.5 -144.5t86 -87.5t210.5 -63t225.5 -88t73.5 -153z" />
    <glyph glyph-name="eta" unicode="&#x3b7;" horiz-adv-x="1300" 
d="M1141 -492h-236v1172q0 132 -54 193t-184 61t-197 -90.5t-67 -292.5v-551h-235v1106h184l33 -145h12q50 79 142 122t204 43q398 0 398 -405v-1213z" />
    <glyph glyph-name="theta" unicode="&#x3b8;" horiz-adv-x="1239" 
d="M618 1399q-138 0 -201.5 -129.5t-72.5 -384.5h549q-9 255 -73 384.5t-202 129.5zM618 160q140 0 205.5 134t71.5 406h-553q4 -279 70 -409.5t206 -130.5zM1135 774q1 -794 -513 -794q-258 0 -389 203t-131 603q0 793 514 793q255 0 387 -203t132 -602z" />
    <glyph glyph-name="iota" unicode="&#x3b9;" horiz-adv-x="764" 
d="M164 334v772h235v-770q0 -166 146 -166q89 0 180 27v-177q-87 -40 -243 -40q-155 0 -236.5 88t-81.5 266z" />
    <glyph glyph-name="kappa" unicode="&#x3ba;" horiz-adv-x="1165" 
d="M410 0h-242v1106h242v-289q0 -128 -11 -260l467 549h267l-428 -498l454 -608h-274l-336 465l-139 -103v-362z" />
    <glyph glyph-name="lambda" unicode="&#x3bb;" horiz-adv-x="1176" 
d="M226 1372q-68 0 -122 -12v192q68 17 160 17t163 -32.5t121.5 -101.5t104.5 -216l322 -893q57 -152 119 -152q30 0 77 10v-178q-56 -26 -145 -26q-88 0 -143 43.5t-92 148.5q-201 559 -218 641h-6q-35 -135 -96 -278l-231 -535h-244l473 1067l-45 127q-37 99 -83.5 138.5
t-114.5 39.5z" />
    <glyph glyph-name="uni03BC" unicode="&#x3bc;" horiz-adv-x="1309" 
d="M403 -172v-320h-235v1598h235v-684q0 -252 218 -252q146 0 215 88t69 297v551h236v-1106h-183l-34 147h-13q-97 -167 -295 -167q-140 0 -219 90h-4q10 -93 10 -242z" />
    <glyph glyph-name="nu" unicode="&#x3bd;" horiz-adv-x="1163" 
d="M846 1106h235q0 -366 -102 -619.5t-332 -486.5h-231l-414 1106h244l217 -604q32 -83 98 -297h8q149 167 213 376t64 525z" />
    <glyph glyph-name="xi" unicode="&#x3be;" horiz-adv-x="995" 
d="M741 -106q0 44 -52 69.5t-167 44.5q-420 72 -420 420q0 133 75 233t210 148v10q-219 60 -219 268q0 112 71 184t226 115q-192 -12 -258 -12h-45v182h751v-172h-63q-197 0 -324 -79t-127 -207q0 -104 75 -151.5t235 -47.5h168v-170h-172q-171 0 -265 -73.5t-94 -213.5
t80.5 -183.5t241.5 -77.5t231 -93t70 -149q0 -143 -129 -328h-232q133 179 133 283z" />
    <glyph glyph-name="omicron" unicode="&#x3bf;" horiz-adv-x="1251" 
d="M344 555q0 -383 282 -383t281 381q0 381 -282 381q-149 0 -215 -98t-66 -281zM1149 550q0 -266 -139 -418t-387 -152q-155 0 -274 70t-183 201t-64 304q0 269 138 420t384 151t385 -154q140 -156 140 -422z" />
    <glyph glyph-name="pi" unicode="&#x3c0;" horiz-adv-x="1421" 
d="M895 270v650h-408v-920h-235v920h-227v102l159 84h1170v-186h-224v-637q0 -115 95 -115q54 0 106 27v-177q-63 -38 -174 -38q-262 0 -262 290z" />
    <glyph glyph-name="rho" unicode="&#x3c1;" horiz-adv-x="1251" 
d="M647 934q-136 0 -201 -90t-65 -277v-301q105 -94 253 -94t209.5 93t61.5 289t-61 288t-197 92zM1147 548q0 -268 -125 -418t-350 -150q-167 0 -291 86h-12q12 -120 12 -271v-287h-238v1053q0 270 132.5 417.5t368.5 147.5t369.5 -155t133.5 -423z" />
    <glyph glyph-name="sigma1" unicode="&#x3c2;" horiz-adv-x="1004" 
d="M741 -100q0 45 -48 70.5t-171 49.5q-420 82 -420 486q0 308 137.5 464t405.5 156q177 0 324 -67l-72 -187q-146 58 -260 58q-155 0 -224 -106.5t-69 -311.5q0 -100 27 -158.5t90 -94t216 -68.5t222.5 -92.5t69.5 -153.5q0 -145 -129 -336h-232q133 190 133 291z" />
    <glyph glyph-name="sigma" unicode="&#x3c3;" horiz-adv-x="1296" 
d="M346 548q0 -190 74 -283t210 -93t209.5 86.5t73.5 251.5q0 243 -151 414h-57q-194 0 -276.5 -93t-82.5 -283zM1155 492q0 -152 -64 -269t-183 -180t-281 -63q-246 0 -385.5 145.5t-139.5 406.5q0 574 613 574h536v-182h-274q178 -183 178 -432z" />
    <glyph glyph-name="tau" unicode="&#x3c4;" horiz-adv-x="1034" 
d="M555 922v-580q0 -174 168 -174q89 0 182 27v-177q-101 -41 -227 -41q-186 0 -273.5 89t-87.5 266v590h-288v100l161 84h779v-184h-414z" />
    <glyph glyph-name="upsilon" unicode="&#x3c5;" horiz-adv-x="1284" 
d="M1174 602q0 -622 -520 -622q-256 0 -378 127t-122 395v604h235v-604q0 -163 63 -247.5t206 -84.5t211.5 106.5t68.5 325.5t-68 504h238q66 -257 66 -504z" />
    <glyph glyph-name="phi" unicode="&#x3c6;" horiz-adv-x="1546" 
d="M1210 576q0 174 -54.5 271t-149.5 97q-138 0 -138 -205v-571q158 15 250 124.5t92 283.5zM645 -492v476q-269 21 -406 167.5t-137 403.5q0 301 220 567l176 -116q-92 -122 -130 -230t-38 -227q0 -337 315 -381v569q0 186 96.5 286.5t262.5 100.5q199 0 318.5 -145.5
t119.5 -396.5q0 -174 -70.5 -304t-200.5 -206t-303 -88v-476h-223z" />
    <glyph glyph-name="chi" unicode="&#x3c7;" horiz-adv-x="1165" 
d="M206 1116q74 0 121.5 -23t82.5 -71.5t79 -171.5l111 -295l297 551h244l-441 -766l193 -479q35 -88 73.5 -123t92.5 -35t104 10v-182q-65 -23 -171 -23t-180.5 63t-129.5 222l-127 357l-338 -642h-252l484 861l-154 397q-57 156 -149 156q-48 0 -91 -15v187q77 22 151 22z
" />
    <glyph glyph-name="psi" unicode="&#x3c8;" horiz-adv-x="1628" 
d="M1286 592q0 210 -72 514h226q69 -272 69 -536t-145.5 -418t-431.5 -170v-474h-223v474q-275 9 -415 152.5t-140 418.5v553h227v-559q0 -186 78.5 -277t249.5 -102v1388h223v-1386q180 15 267 113.5t87 308.5z" />
    <glyph glyph-name="omega" unicode="&#x3c9;" horiz-adv-x="1675" 
d="M1563 557q0 -278 -110.5 -427.5t-307.5 -149.5q-230 0 -303 196h-11q-73 -196 -303 -196q-196 0 -306.5 149t-110.5 425t118 552h232q-125 -275 -125 -565q0 -177 55 -275t156 -98q180 0 180 258v303h221v-303q0 -258 178 -258q102 0 156.5 96t54.5 275q0 294 -125 567
h234q117 -271 117 -549z" />
    <glyph glyph-name="iotadieresis" unicode="&#x3ca;" horiz-adv-x="764" 
d="M164 334v772h235v-770q0 -166 146 -166q89 0 180 27v-177q-87 -40 -243 -40q-154 0 -236 88t-82 266zM402 1400q0 60 34 88t84 28t82 -31t32 -85t-33 -86t-83 -32t-82 29q-34 29 -34 89zM9 1400q-1 60 33 88t84 28t82 -31t32 -85t-32 -86t-82 -32t-84 29t-33 89z" />
    <glyph glyph-name="upsilondieresis" unicode="&#x3cb;" horiz-adv-x="1284" 
d="M1174 602q0 -622 -520 -622q-256 0 -378 127t-122 395v604h235v-604q0 -164 63 -248t206 -84q144 0 212 106t68 326q0 219 -68 504h238q66 -257 66 -504zM733 1400q-1 60 33 88t84 28t83 -31q32 -31 32 -85t-33 -86q-32 -32 -82 -32t-84 29t-33 89zM340 1400q0 60 34 88
t84 28t82 -31t31 -85q0 -54 -32 -86t-82 -32q-49 0 -83 29t-34 89z" />
    <glyph glyph-name="omicrontonos" unicode="&#x3cc;" horiz-adv-x="1251" 
d="M344 555q0 -383 282 -383t281 381q0 381 -282 381q-149 0 -215 -98t-66 -281zM1149 550q0 -266 -139 -418t-387 -152q-155 0 -274 70t-183 201t-64 304q0 269 138 420t384 151t385 -154q140 -156 140 -422zM858 1640v-24q-58 -172 -180 -375h-140v29q65 199 86 370h234z
" />
    <glyph glyph-name="upsilontonos" unicode="&#x3cd;" horiz-adv-x="1284" 
d="M1174 602q0 -622 -520 -622q-256 0 -378 127t-122 395v604h235v-604q0 -164 63 -248t206 -84q144 0 212 106t68 326q0 219 -68 504h238q66 -257 66 -504zM866 1640v-24q-58 -172 -180 -375h-140v29q65 199 86 370h234z" />
    <glyph glyph-name="omegatonos" unicode="&#x3ce;" horiz-adv-x="1675" 
d="M1563 557q-1 -277 -111 -427t-307 -150q-230 0 -303 196h-11q-73 -196 -303 -196q-196 0 -306 149t-111 425q0 276 118 552h232q-125 -275 -125 -565q0 -177 55 -275t156 -98q180 0 180 258v303h221v-303q0 -258 178 -258q102 0 156 96t55 275q0 294 -125 567h234
q117 -271 117 -549zM1063 1640v-24q-58 -172 -180 -375h-140v29q65 199 86 370h234z" />
    <glyph glyph-name="uni03D1" unicode="&#x3d1;" horiz-adv-x="1386" 
d="M664 1395q-76 0 -118 -38t-42 -104q0 -126 122 -197.5t337 -72.5q-25 189 -106.5 300.5t-192.5 111.5zM1212 705q0 -350 -152 -537.5t-433 -187.5q-416 0 -416 337q0 44 19 208l3 55q0 45 -16 60t-55 15t-82 -26l-55 151q114 62 224 62t156 -51t46 -116q1 -65 -11 -165
t-12 -177q0 -76 54.5 -121.5t156.5 -45.5q334 0 334 551v42l-2 42q-448 4 -572.5 158t-124.5 299t102 232t283 87q450 0 539 -594h143v-180h-133q4 -38 4 -98z" />
    <glyph glyph-name="uni03D2" unicode="&#x3d2;" horiz-adv-x="1225" 
d="M1096 1475q63 0 121 -21v-182q-35 8 -70 8t-73.5 -34.5t-157.5 -267.5t-195 -431v-547h-240v559l-481 903h260l342 -678q151 340 207.5 452t93.5 155.5t83.5 63.5t109.5 20z" />
    <glyph glyph-name="uni03D6" unicode="&#x3d6;" horiz-adv-x="1882" 
d="M1044 426q0 -258 181 -258q107 0 159 76t52 266t-88 412h-820q-94 -242 -94 -420t49.5 -256t159.5 -78q180 0 180 258v164h221v-164zM637 -20q-428 0 -428 495q0 210 98 447h-272v100l158 84h1632v-184h-254q90 -234 90 -462t-106 -354t-323 -126t-294 196h-8
q-77 -196 -293 -196z" />
    <glyph glyph-name="uni0400" unicode="&#x400;" horiz-adv-x="1143" 
d="M1020 0h-827v1462h827v-202h-588v-398h551v-200h-551v-459h588v-203zM275 1907h273q38 -70 104 -161t109 -142v-25h-158q-69 53 -175 151t-153 156v21z" />
    <glyph glyph-name="afii10023" unicode="&#x401;" horiz-adv-x="1143" 
d="M1020 0h-827v1462h827v-202h-588v-398h551v-200h-551v-459h588v-203zM696 1738q0 60 34 88t84 28t82 -31t32 -85t-33 -86t-83 -32t-82 29q-34 29 -34 89zM303 1738q-1 60 33 88t84 28t82 -31t32 -85t-32 -86t-82 -32t-84 29t-33 89z" />
    <glyph glyph-name="afii10051" unicode="&#x402;" horiz-adv-x="1575" 
d="M1053 -20q-103 0 -176 30v203q84 -31 165 -31q160 0 160 195v129q0 108 -52 154.5t-171 46.5h-358v-707h-240v1257h-352v205h1032v-205h-440v-346h370q218 0 334.5 -100t116.5 -281v-137q0 -198 -100 -305.5t-289 -107.5z" />
    <glyph glyph-name="afii10052" unicode="&#x403;" horiz-adv-x="1106" 
d="M1061 1462v-205h-629v-1257h-239v1462h868zM959 1907v-21q-51 -62 -155 -158t-175 -149h-156v25q133 163 213 303h273z" />
    <glyph glyph-name="afii10053" unicode="&#x404;" horiz-adv-x="1348" 
d="M838 1278q-200 0 -320.5 -111t-140.5 -315h678v-203h-680q10 -223 126 -344t337 -121q161 0 389 66v-205q-180 -65 -410 -65q-336 0 -516 192t-180 559q0 228 86.5 398.5t250 262t391.5 91.5t433 -94l-90 -201q-125 55 -200 72.5t-154 17.5z" />
    <glyph glyph-name="afii10054" unicode="&#x405;" horiz-adv-x="1126" 
d="M522 182q142 0 210 54t67 140q0 86 -62 144q-62 56 -259 136t-279 184t-82 250q0 183 130 288q131 105 345 105t422 -92l-76 -195q-196 82 -330 82t-194 -50t-60 -121t24 -111t79 -76t207 -99t227 -121q145 -112 145 -305t-141 -304t-389 -111t-406 77v226
q215 -101 422 -101z" />
    <glyph glyph-name="afii10055" unicode="&#x406;" horiz-adv-x="625" 
d="M193 0v1462h239v-1462h-239z" />
    <glyph glyph-name="afii10056" unicode="&#x407;" horiz-adv-x="625" 
d="M193 0v1462h239v-1462h-239zM394 1738q0 60 34 88t84 28t82 -31t32 -85t-33 -86t-83 -32t-82 29q-34 29 -34 89zM1 1738q-1 60 33 88t84 28t82 -31t32 -85t-32 -86t-82 -32t-84 29t-33 89z" />
    <glyph glyph-name="afii10057" unicode="&#x408;" horiz-adv-x="612" 
d="M8 -408q-98 0 -164 25v201q84 -21 146 -21q196 0 196 248v1417h240v-1409q0 -225 -106 -343t-312 -118z" />
    <glyph glyph-name="afii10058" unicode="&#x409;" horiz-adv-x="1974" 
d="M1204 201h113q163 0 245.5 56.5t82.5 179.5t-81 177t-274 54h-86v-467zM1890 436q0 -213 -142.5 -324.5t-416.5 -111.5h-366v1257h-328l-29 -223q-50 -376 -84.5 -569.5t-79.5 -293t-116.5 -147t-162.5 -47.5t-157 25v199q57 -25 120 -25t120 123t188 1163h768v-594h119
q276 0 421.5 -109.5t145.5 -322.5z" />
    <glyph glyph-name="afii10059" unicode="&#x40a;" horiz-adv-x="2001" 
d="M1233 201h113q161 0 244 56.5t83 178.5t-80.5 177t-273.5 55h-86v-467zM1917 435q0 -212 -141.5 -323.5t-415.5 -111.5h-369v659h-559v-659h-239v1462h239v-598h559v598h242v-594h117q278 0 422.5 -110.5t144.5 -322.5z" />
    <glyph glyph-name="afii10060" unicode="&#x40b;" horiz-adv-x="1575" 
d="M1202 0v508q0 104 -47.5 151.5t-159.5 47.5h-374v-707h-240v1257h-352v205h1065v-205h-473v-346h391q207 0 318.5 -99.5t111.5 -281.5v-530h-240z" />
    <glyph glyph-name="afii10061" unicode="&#x40c;" horiz-adv-x="1315" 
d="M432 0h-239v1462h239v-708l592 708h262l-590 -706l619 -756h-281l-602 741v-741zM1053 1907v-21q-51 -62 -155 -158t-175 -149h-156v25q133 163 213 303h273z" />
    <glyph glyph-name="uni040D" unicode="&#x40d;" horiz-adv-x="1622" 
d="M412 702q0 -190 -15 -405h9l747 1165h279v-1462h-220v754q0 173 19 420h-8l-750 -1174h-280v1462h219v-760zM456 1907h273q37 -70 103 -161t110 -142v-25h-158q-68 53 -174 151t-154 156v21z" />
    <glyph glyph-name="afii10062" unicode="&#x40e;" horiz-adv-x="1305" 
d="M306 -20q-124 0 -224 30v215q98 -39 197 -39t161 44t111 161l-539 1071h258l357 -733q48 -104 59 -139h10q6 26 30 83l329 789h250l-461 -1040q-85 -190 -156 -276q-70 -86 -164 -126t-218 -40zM660 1579q-210 1 -308 77t-110 255h213q11 -135 89 -169q40 -18 132 -18
q90 0 141 44t62 143h217q-15 -172 -121 -252q-105 -80 -315 -80z" />
    <glyph glyph-name="afii10145" unicode="&#x40f;" horiz-adv-x="1509" 
d="M1317 0h-447v-403h-237v403h-440v1462h239v-1257h645v1257h240v-1462z" />
    <glyph glyph-name="afii10017" unicode="&#x410;" horiz-adv-x="1354" 
d="M891 612l-137 398q-45 120 -78 252q-27 -123 -79 -269l-132 -381h426zM1100 0l-146 406h-559l-143 -406h-252l547 1468h260l547 -1468h-254z" />
    <glyph glyph-name="afii10018" unicode="&#x411;" horiz-adv-x="1280" 
d="M432 201h172q172 0 252 56.5t80 180.5t-80.5 177t-280.5 53h-143v-467zM1182 440q0 -440 -564 -440h-425v1462h892v-205h-653v-389h174q576 0 576 -428z" />
    <glyph glyph-name="afii10019" unicode="&#x412;" horiz-adv-x="1352" 
d="M989 440q0 224 -315 224h-242v-463h254q150 -1 226 57t77 182zM432 858h230q150 0 219 48t69 156t-74 154t-237 46h-207v-404zM193 1462h434q303 0 437 -88t134 -278q0 -128 -66 -213t-190 -107v-10q154 -28 226 -114t73 -232q1 -196 -137 -308t-383 -112h-528v1462z" />
    <glyph glyph-name="afii10020" unicode="&#x413;" horiz-adv-x="1106" 
d="M1061 1462v-205h-629v-1257h-239v1462h868z" />
    <glyph glyph-name="afii10021" unicode="&#x414;" horiz-adv-x="1481" 
d="M1010 205v1050h-316q-22 -227 -112 -526.5t-205 -523.5h633zM12 205h113q145 265 243 595t126 662h755v-1257h189v-608h-230v403h-966v-403h-230v608z" />
    <glyph glyph-name="afii10022" unicode="&#x415;" horiz-adv-x="1143" 
d="M1020 0h-827v1462h827v-202h-588v-398h551v-200h-551v-459h588v-203z" />
    <glyph glyph-name="afii10024" unicode="&#x416;" horiz-adv-x="1829" 
d="M801 1462h227v-708l520 708h256l-534 -706l557 -756h-264l-535 741v-741h-227v741l-535 -741h-266l559 756l-534 706h256l520 -708v708z" />
    <glyph glyph-name="afii10025" unicode="&#x417;" horiz-adv-x="1257" 
d="M598 1288q-212 0 -401 -123l-109 162q225 156 530 156q232 0 367 -99t135 -253t-94.5 -245t-261.5 -116v-6q192 -23 292.5 -113.5t100.5 -236.5q0 -204 -159.5 -319t-445.5 -115t-462 79v209q97 -46 217.5 -71t220.5 -25q385 0 385 252q0 116 -115.5 177t-342.5 61h-176
v192h165q437 0 437 233q0 93 -74.5 147t-208.5 54z" />
    <glyph glyph-name="afii10026" unicode="&#x418;" horiz-adv-x="1622" 
d="M412 702q0 -190 -15 -405h9l747 1165h279v-1462h-220v754q0 173 19 420h-8l-750 -1174h-280v1462h219v-760z" />
    <glyph glyph-name="afii10027" unicode="&#x419;" horiz-adv-x="1622" 
d="M412 702q0 -190 -15 -405h9l747 1165h279v-1462h-220v754q0 173 19 420h-8l-750 -1174h-280v1462h219v-760zM818 1579q-210 1 -308 77t-110 255h213q11 -135 89 -169q40 -18 132 -18q90 0 141 44t62 143h217q-15 -172 -121 -252q-105 -80 -315 -80z" />
    <glyph glyph-name="afii10028" unicode="&#x41a;" horiz-adv-x="1315" 
d="M432 0h-239v1462h239v-708l592 708h262l-590 -706l619 -756h-281l-602 741v-741z" />
    <glyph glyph-name="afii10029" unicode="&#x41b;" horiz-adv-x="1483" 
d="M1290 0h-239v1257h-416q-79 -640 -126.5 -871t-133.5 -321.5t-228 -87.5q-73 0 -139 25v199q57 -25 120 -25t103.5 86.5t89 382.5t115.5 817h854v-1462z" />
    <glyph glyph-name="afii10030" unicode="&#x41c;" horiz-adv-x="1890" 
d="M410 711v-711h-217v1462h337l406 -1163h6l418 1163h338v-1462h-230v723q0 109 6 284t9 212h-8l-439 -1219h-211l-424 1221h-8q17 -272 17 -510z" />
    <glyph glyph-name="afii10031" unicode="&#x41d;" horiz-adv-x="1538" 
d="M1346 0h-240v659h-674v-659h-239v1462h239v-598h674v598h240v-1462z" />
    <glyph glyph-name="afii10032" unicode="&#x41e;" horiz-adv-x="1612" 
d="M807 184q430 0 430 548t-429 548q-214 0 -324 -139t-109 -409q0 -270 109 -408q109 -140 323 -140zM1491 734q-1 -358 -179 -556t-507 -198t-507 196t-177 559q1 362 179 556t506 194t507 -197q178 -196 178 -554z" />
    <glyph glyph-name="afii10033" unicode="&#x41f;" horiz-adv-x="1509" 
d="M1317 0h-240v1257h-645v-1257h-239v1462h1124v-1462z" />
    <glyph glyph-name="afii10034" unicode="&#x420;" horiz-adv-x="1260" 
d="M432 748h127q184 0 270 64t86 195t-77 193t-240 62h-166v-514zM614 1462q547 0 547 -442q0 -229 -150 -351t-427 -122h-152v-547h-239v1462h421z" />
    <glyph glyph-name="afii10035" unicode="&#x421;" horiz-adv-x="1298" 
d="M373 723q-1 -263 113 -401t329 -138q147 0 361 66v-205q-172 -65 -390 -65q-321 0 -493 194t-172 557q-1 228 83 399t242 262t376 91t409 -94l-86 -199q-186 88 -330 88q-206 0 -324 -146t-118 -409z" />
    <glyph glyph-name="afii10036" unicode="&#x422;" horiz-adv-x="1159" 
d="M698 0h-239v1257h-430v205h1099v-205h-430v-1257z" />
    <glyph glyph-name="afii10037" unicode="&#x423;" horiz-adv-x="1305" 
d="M306 -20q-124 0 -224 30v215q98 -39 197 -39t160.5 44.5t111.5 160.5l-539 1071h258l357 -733q48 -104 59 -139h10q6 26 30 83l329 789h250l-461 -1040q-85 -191 -156 -276.5t-164.5 -125.5t-217.5 -40z" />
    <glyph glyph-name="afii10038" unicode="&#x424;" horiz-adv-x="1698" 
d="M735 1108h-49q-166 0 -260 -94t-94 -260q0 -164 101 -262t284 -97h18v713zM735 -20v225h-33q-373 0 -527 262q-77 131 -77 289t70 282t201 194t307 71h59v180h226v-180h61q178 0 308 -70q130 -69 198 -193t69 -284q0 -160 -77 -291q-154 -260 -527 -260h-32v-225h-226z
M961 395h20q179 1 281 97t102 262t-94 260t-260 94h-49v-713z" />
    <glyph glyph-name="afii10039" unicode="&#x425;" horiz-adv-x="1274" 
d="M1270 0h-275l-366 598l-369 -598h-256l485 758l-454 704h266l338 -553l338 553h258l-457 -708z" />
    <glyph glyph-name="afii10040" unicode="&#x426;" horiz-adv-x="1554" 
d="M1317 199h194v-602h-231v403h-1087v1462h239v-1257h645v1257h240v-1263z" />
    <glyph glyph-name="afii10041" unicode="&#x427;" horiz-adv-x="1456" 
d="M642 698q150 0 382 78v686h240v-1462h-240v584q-253 -90 -457 -90q-203 0 -315.5 97.5t-112.5 276.5v594h240v-538q0 -114 56.5 -170t206.5 -56z" />
    <glyph glyph-name="afii10042" unicode="&#x428;" horiz-adv-x="2161" 
d="M1200 205h526v1257h242v-1462h-1775v1462h239v-1257h526v1257h242v-1257z" />
    <glyph glyph-name="afii10043" unicode="&#x429;" horiz-adv-x="2198" 
d="M1192 205h520v1257h240v-1263h194v-602h-231v403h-1722v1462h239v-1257h518v1257h242v-1257z" />
    <glyph glyph-name="afii10044" unicode="&#x42a;" horiz-adv-x="1448" 
d="M600 201h178q161 0 243.5 56.5t82.5 178.5t-80.5 177t-271.5 55h-152v-467zM1350 436q0 -213 -141.5 -324.5t-415.5 -111.5h-433v1257h-352v205h592v-594h182q276 0 422 -109.5t146 -322.5z" />
    <glyph glyph-name="afii10045" unicode="&#x42b;" horiz-adv-x="1800" 
d="M1608 0h-240v1462h240v-1462zM596 199q324 -1 324 237q0 122 -78.5 176t-266.5 54h-143v-467h164zM1163 436q0 -212 -140.5 -324t-412.5 -112h-417v1462h239v-594h170q274 0 417.5 -110t143.5 -322z" />
    <glyph glyph-name="afii10046" unicode="&#x42c;" horiz-adv-x="1311" 
d="M633 201q334 0 334 235q0 122 -83 177t-278 55h-174v-467h201zM1212 436q0 -211 -144.5 -323.5t-418.5 -112.5h-456v1462h239v-594h207q278 0 425.5 -110.5t147.5 -321.5z" />
    <glyph glyph-name="afii10047" unicode="&#x42d;" horiz-adv-x="1323" 
d="M270 651v203h674q-14 200 -130 312t-293 112t-369 -86l-86 197q201 94 448 94q326 0 506 -196.5t180 -554.5t-182.5 -555t-525.5 -197q-228 0 -408 65v205q228 -66 385 -66q230 0 349.5 118.5t127.5 348.5h-676z" />
    <glyph glyph-name="afii10048" unicode="&#x42e;" horiz-adv-x="2171" 
d="M1397 184q401 0 401 549q0 271 -101 409t-299 138t-299.5 -139t-101.5 -409t101 -409t299 -139zM2048 732q0 -357 -169 -554.5t-473 -197.5t-471.5 177.5t-184.5 501.5h-318v-659h-239v1462h239v-598h322q28 301 194 461t463 160t467 -198t170 -555z" />
    <glyph glyph-name="afii10049" unicode="&#x42f;" horiz-adv-x="1331" 
d="M899 1262h-190q-151 0 -231.5 -53t-80.5 -173t78 -186t242 -66h182v478zM152 1049q0 201 139 307t409 106h439v-1462h-240v586h-244l-362 -586h-273l412 641q-280 97 -280 408z" />
    <glyph glyph-name="afii10065" unicode="&#x430;" horiz-adv-x="1188" 
d="M530 160q108 0 186 72t77 200v96l-142 -6q-317 -11 -317 -193q0 -89 44 -129t152 -40zM600 1126q212 0 320 -92t108 -289v-745h-168l-47 154h-8q-80 -102 -161 -138t-226 -36q-144 0 -236 88t-92 254q0 332 514 348l191 6v59q0 211 -203 211q-135 0 -313 -84l-76 168
q184 96 397 96z" />
    <glyph glyph-name="afii10066" unicode="&#x431;" horiz-adv-x="1247" 
d="M639 172q262 0 262 338t-237 338q-124 0 -207 -74t-111 -123q0 -236 75 -357.5t218 -121.5zM104 687q0 347 125.5 546t399.5 256q207 42 477 82l33 -207q-329 -50 -483 -78t-223.5 -128.5t-80.5 -301.5h15q57 83 149 128.5t197 45.5q204 0 318 -129t114 -379t-138.5 -396
t-382.5 -146t-382 180t-138 527z" />
    <glyph glyph-name="afii10067" unicode="&#x432;" horiz-adv-x="1237" 
d="M893 796q0 73 -51.5 102.5t-153.5 29.5h-285v-266h250q118 0 179 30.5t61 103.5zM922 340q0 80 -62 113.5t-186 33.5h-271v-313h277q242 0 242 166zM1128 823q0 -196 -229 -237v-8q128 -15 196 -81t68 -171q0 -157 -119.5 -241.5t-347.5 -84.5h-528v1106h526
q434 0 434 -283z" />
    <glyph glyph-name="afii10068" unicode="&#x433;" horiz-adv-x="928" 
d="M883 1106v-184h-480v-922h-235v1106h715z" />
    <glyph glyph-name="afii10069" unicode="&#x434;" horiz-adv-x="1266" 
d="M836 182v744h-238q-19 -206 -79.5 -406t-147.5 -338h465zM1229 -391h-219v391h-758v-391h-217v573h90q118 169 187.5 408.5t82.5 515.5h672v-924h162v-573z" />
    <glyph glyph-name="afii10070" unicode="&#x435;" horiz-adv-x="1180" 
d="M608 948q-112 0 -180 -71t-80 -207h502q-2 138 -66 208t-176 70zM102 548q0 268 135 423t363 155t354 -133q127 -133 127 -366v-127h-737q5 -162 87 -248t248 -86t347 80v-191q-157 -75 -375 -75q-257 0 -403 150t-146 418z" />
    <glyph glyph-name="afii10072" unicode="&#x436;" horiz-adv-x="1647" 
d="M713 1106h219v-537l426 537h248l-435 -535l474 -571h-259l-454 561v-561h-219v561l-453 -561h-258l473 571l-434 535h248l424 -537v537z" />
    <glyph glyph-name="afii10073" unicode="&#x437;" horiz-adv-x="1063" 
d="M451 166q294 0 294 160q0 83 -77 122t-238 39h-135v177h117q313 0 313 145q0 135 -240 135q-160 0 -327 -72l-76 175q192 79 412 79t334 -75.5t114 -216.5q0 -186 -213 -244v-8q133 -36 190.5 -103t57.5 -166q0 -152 -133.5 -242.5t-383.5 -90.5t-388 69v203
q183 -86 379 -86z" />
    <glyph glyph-name="afii10074" unicode="&#x438;" horiz-adv-x="1386" 
d="M393 1106v-567q0 -99 -16 -291l555 858h287v-1106h-226v557q0 123 15 299l-553 -856h-287v1106h225z" />
    <glyph glyph-name="afii10075" unicode="&#x439;" horiz-adv-x="1386" 
d="M393 1106v-567q0 -99 -16 -291l555 858h287v-1106h-226v557q0 123 15 299l-553 -856h-287v1106h225zM684 1241q-210 1 -308 77t-110 255h213q11 -135 89 -169q40 -18 132 -18q90 0 141 44t62 143h217q-15 -172 -121 -252q-105 -80 -315 -80z" />
    <glyph glyph-name="afii10076" unicode="&#x43a;" horiz-adv-x="1165" 
d="M403 0h-235v1106h235v-537l451 537h258l-457 -533l496 -573h-270l-478 561v-561z" />
    <glyph glyph-name="afii10077" unicode="&#x43b;" horiz-adv-x="1245" 
d="M1077 0h-237v922h-305q-28 -356 -75.5 -556t-124 -292t-198.5 -92q-77 0 -129 22v184q37 -14 74 -14q102 0 160.5 229.5t91.5 702.5h743v-1106z" />
    <glyph glyph-name="afii10078" unicode="&#x43c;" horiz-adv-x="1616" 
d="M1448 1106v-1106h-217v893l-18 -60q-45 -161 -76 -237l-242 -596h-178l-242 600q-50 130 -92 293v-893h-215v1106h311l240 -586q32 -81 84 -295l13 48q41 149 71 229l248 604h313z" />
    <glyph glyph-name="afii10079" unicode="&#x43d;" horiz-adv-x="1327" 
d="M403 1106v-444h521v444h235v-1106h-235v477h-521v-477h-235v1106h235z" />
    <glyph glyph-name="afii10080" unicode="&#x43e;" horiz-adv-x="1251" 
d="M344 555q0 -383 282 -383t281 381q0 381 -282 381q-149 0 -215 -98t-66 -281zM1149 550q0 -266 -139 -418t-387 -152q-155 0 -274 70t-183 201t-64 304q0 269 138 420t384 151t385 -154q140 -156 140 -422z" />
    <glyph glyph-name="afii10081" unicode="&#x43f;" horiz-adv-x="1303" 
d="M1135 1106v-1106h-236v920h-496v-920h-235v1106h967z" />
    <glyph glyph-name="afii10082" unicode="&#x440;" horiz-adv-x="1276" 
d="M930 557q0 377 -264 377q-134 0 -198 -82t-65 -262v-35q0 -203 64 -293q63 -90 197 -90t200 100t66 285zM728 -20q-208 0 -325 151h-14q14 -140 14 -170v-453h-235v1598h190q8 -31 33 -148h12q109 168 323 168t330 -150t115 -421q1 -271 -117 -423t-326 -152z" />
    <glyph glyph-name="afii10083" unicode="&#x441;" horiz-adv-x="1014" 
d="M102 550q0 276 136 426t395 150q175 0 315 -65l-71 -189q-149 58 -246 58q-287 0 -287 -377t281 -377q157 0 297 78v-205q-117 -69 -308 -69q-252 0 -382 146q-130 148 -130 424z" />
    <glyph glyph-name="afii10084" unicode="&#x442;" horiz-adv-x="1044" 
d="M999 1106v-184h-360v-922h-236v922h-360v184h956z" />
    <glyph glyph-name="afii10085" unicode="&#x443;" horiz-adv-x="1098" 
d="M195 -492q-78 0 -152 17v186q53 -12 121 -12q170 0 239 197l41 104l-444 1106h256l225 -627q51 -134 68 -252h8q9 55 33 133t254 746h254l-473 -1253q-129 -345 -430 -345z" />
    <glyph glyph-name="afii10086" unicode="&#x444;" horiz-adv-x="1565" 
d="M1219 552q0 162 -81.5 260.5t-242.5 117.5v-758q163 19 243.5 118.5t80.5 261.5zM346 553q0 -164 82 -264t246 -117v762q-165 -19 -246.5 -118t-81.5 -263zM1462 550q0 -246 -150.5 -394t-416.5 -168v-480h-223v480q-263 20 -416.5 171t-153.5 399t149 394.5t423 165.5
v438h221v-438q266 -24 416.5 -173t150.5 -395z" />
    <glyph glyph-name="afii10087" unicode="&#x445;" horiz-adv-x="1128" 
d="M414 565l-371 541h268l252 -387l254 387h266l-372 -541l391 -565h-266l-273 414l-272 -414h-266z" />
    <glyph glyph-name="afii10088" unicode="&#x446;" horiz-adv-x="1346" 
d="M1153 182h160v-571h-221v389h-924v1106h235v-920h515v920h235v-924z" />
    <glyph glyph-name="afii10089" unicode="&#x447;" horiz-adv-x="1294" 
d="M517 352q-184 0 -281 89.5t-97 250.5v414h236v-404q0 -170 176 -170q163 0 340 99v475h235v-1106h-235v469q-190 -117 -374 -117z" />
    <glyph glyph-name="afii10090" unicode="&#x448;" horiz-adv-x="1903" 
d="M1735 0h-1567v1106h235v-920h431v920h235v-920h430v920h236v-1106z" />
    <glyph glyph-name="afii10091" unicode="&#x449;" horiz-adv-x="1927" 
d="M1735 182h159v-571h-221v389h-1505v1106h235v-920h431v920h235v-920h430v920h236v-924z" />
    <glyph glyph-name="afii10092" unicode="&#x44a;" horiz-adv-x="1438" 
d="M1110 338q0 83 -60.5 116t-183.5 33h-258v-313h264q238 0 238 164zM872 664q474 0 474 -320q0 -169 -118 -256.5t-351 -87.5h-504v922h-353v184h588v-442h264z" />
    <glyph glyph-name="afii10093" unicode="&#x44b;" horiz-adv-x="1659" 
d="M1491 0h-236v1106h236v-1106zM848 338q0 84 -61.5 116.5t-176.5 32.5h-207v-313h177q142 0 205 40t63 124zM627 664q454 0 454 -320q0 -171 -115.5 -257.5t-338.5 -86.5h-459v1106h235v-442h224z" />
    <glyph glyph-name="afii10094" unicode="&#x44c;" horiz-adv-x="1235" 
d="M670 174q237 0 237 166q0 82 -63 114.5t-178 32.5h-263v-313h267zM403 664h277q463 0 463 -320q0 -169 -118 -256.5t-345 -87.5h-512v1106h235v-442z" />
    <glyph glyph-name="afii10095" unicode="&#x44d;" horiz-adv-x="1028" 
d="M403 1126q521 0 521 -423t-139.5 -573t-405.5 -150q-185 0 -313 63v193q159 -70 309 -70q286 0 305 313h-487v172h487q-12 149 -81 219t-183 70t-275 -57l-65 174q149 69 327 69z" />
    <glyph glyph-name="afii10096" unicode="&#x44e;" horiz-adv-x="1749" 
d="M887 554q0 -188 60.5 -285t196.5 -97t197.5 97t61.5 285t-61.5 284t-197.5 96t-196.5 -96t-60.5 -284zM1645 550q0 -267 -132.5 -418.5t-360.5 -151.5t-356 128.5t-149 368.5h-244v-477h-235v1106h235v-444h246q25 220 154.5 342t351.5 122t356 -154.5t134 -421.5z" />
    <glyph glyph-name="afii10097" unicode="&#x44f;" horiz-adv-x="1176" 
d="M315 766q0 -80 64.5 -123t173.5 -43h219v328h-256q-96 0 -148.5 -41t-52.5 -121zM86 772q0 157 112 245.5t306 88.5h504v-1106h-236v426h-223l-268 -426h-263l308 453q-112 32 -176 114.5t-64 204.5z" />
    <glyph glyph-name="uni0450" unicode="&#x450;" horiz-adv-x="1180" 
d="M608 948q-112 0 -180 -71t-80 -207h502q-2 138 -66 208t-176 70zM102 548q0 268 135 423t363 155t354 -133q127 -133 127 -366v-127h-737q5 -162 87 -248t248 -86t347 80v-191q-157 -75 -375 -75q-257 0 -403 150t-146 418zM283 1569h273q38 -70 104 -161t109 -142v-25
h-158q-69 53 -175 151t-153 156v21z" />
    <glyph glyph-name="afii10071" unicode="&#x451;" horiz-adv-x="1180" 
d="M608 948q-112 0 -180 -71t-80 -207h502q-2 138 -66 208t-176 70zM102 548q0 268 135 423t363 155t354 -133q127 -133 127 -366v-127h-737q5 -162 87 -248t248 -86t347 80v-191q-157 -75 -375 -75q-257 0 -403 150t-146 418zM690 1400q0 60 34 88t84 28t82 -31t32 -85
t-33 -86t-83 -32t-82 29q-34 29 -34 89zM297 1400q-1 60 33 88t84 28t82 -31t32 -85t-32 -86t-82 -32t-84 29t-33 89z" />
    <glyph glyph-name="afii10099" unicode="&#x452;" horiz-adv-x="1300" 
d="M741 1077q400 0 400 -405v-815q0 -168 -82.5 -258.5t-237.5 -90.5q-91 0 -157 25v188q58 -18 116 -18q125 0 125 170v768q0 244 -215 244q-148 0 -217.5 -90t-69.5 -295v-500h-235v1219h-156v163h156v174h235v-174h359v-163h-359v-107q0 -64 -12 -203h15q104 168 335 168
z" />
    <glyph glyph-name="afii10100" unicode="&#x453;" horiz-adv-x="928" 
d="M883 1106v-184h-480v-922h-235v1106h715zM854 1569v-21q-52 -62 -156 -158t-174 -149h-156v25q133 163 213 303h273z" />
    <glyph glyph-name="afii10101" unicode="&#x454;" horiz-adv-x="1040" 
d="M102 547q0 579 543 579q183 0 328 -65l-70 -178q-154 57 -276 57q-248 0 -281 -289h488v-172h-488q11 -161 81 -237t214 -76t307 70v-191q-132 -65 -305 -65q-264 0 -402.5 145t-138.5 422z" />
    <glyph glyph-name="afii10102" unicode="&#x455;" horiz-adv-x="997" 
d="M454 -20q-220 0 -354 67v203q195 -90 363 -90q217 0 217 131q0 42 -24 70q-46 54 -235 127q-187 73 -255 147t-68 204q0 131 114 209t311 78q196 0 370 -79l-76 -177q-179 74 -301 74q-186 0 -186 -106q0 -52 48 -88t199 -94q150 -58 212 -102q122 -87 122 -244
q0 -158 -118 -244q-119 -86 -339 -86z" />
    <glyph glyph-name="afii10103" unicode="&#x456;" horiz-adv-x="571" 
d="M154 1400q0 62 34 96t98 34t98 -34t34 -96t-34 -96t-98 -34t-98 34t-34 96zM403 0h-235v1106h235v-1106z" />
    <glyph glyph-name="afii10104" unicode="&#x457;" horiz-adv-x="571" 
d="M403 0h-235v1106h235v-1106zM370 1400q0 60 34 88t84 28t82 -31t32 -85t-33 -86t-83 -32t-82 29q-34 29 -34 89zM-23 1400q-1 60 33 88t84 28t82 -31t32 -85t-32 -86t-82 -32t-84 29t-33 89z" />
    <glyph glyph-name="afii10105" unicode="&#x458;" horiz-adv-x="571" 
d="M154 1400q0 62 34 96t98 34t98 -34t34 -96t-34 -96t-98 -34t-98 34t-34 96zM55 -492q-106 0 -176 25v186q68 -18 139 -18q150 0 150 170v1235h235v-1251q1 -171 -89 -259t-259 -88z" />
    <glyph glyph-name="afii10106" unicode="&#x459;" horiz-adv-x="1765" 
d="M1204 174q234 0 234 164q0 83 -60.5 116t-177.5 33h-180v-313h184zM1673 344q0 -344 -459 -344h-432v922h-247q-28 -361 -75 -558.5t-123.5 -288.5t-197.5 -91q-84 0 -131 20v184q37 -14 74 -14q102 0 160.5 229.5t91.5 702.5h696v-442h193q450 0 450 -320z" />
    <glyph glyph-name="afii10107" unicode="&#x45a;" horiz-adv-x="1817" 
d="M1489 338q0 83 -60.5 116t-177.5 33h-182v-313h186q234 0 234 164zM1722 344q0 -344 -456 -344h-435v477h-425v-477h-238v1106h238v-444h428v444h237v-442h199q232 0 342 -80t110 -240z" />
    <glyph glyph-name="afii10108" unicode="&#x45b;" horiz-adv-x="1300" 
d="M741 1077q400 0 400 -405v-672h-236v631q0 127 -51.5 190.5t-163.5 63.5q-148 0 -217.5 -88.5t-69.5 -296.5v-500h-235v1219h-156v163h156v174h235v-174h381v-163h-381v-107q0 -64 -12 -203h15q104 168 335 168z" />
    <glyph glyph-name="afii10109" unicode="&#x45c;" horiz-adv-x="1165" 
d="M403 0h-235v1106h235v-537l451 537h258l-457 -533l496 -573h-270l-478 561v-561zM961 1569v-21q-51 -62 -155 -158t-175 -149h-156v25q133 163 213 303h273z" />
    <glyph glyph-name="uni045D" unicode="&#x45d;" horiz-adv-x="1386" 
d="M393 1106v-567q0 -99 -16 -291l555 858h287v-1106h-226v557q0 123 15 299l-553 -856h-287v1106h225zM351 1569h273q38 -70 104 -161t109 -142v-25h-158q-69 53 -175 151t-153 156v21z" />
    <glyph glyph-name="afii10110" unicode="&#x45e;" horiz-adv-x="1098" 
d="M195 -492q-78 0 -152 17v186q53 -12 121 -12q170 0 239 197l41 104l-444 1106h256l225 -627q51 -134 68 -252h8q9 55 33 133t254 746h254l-473 -1253q-129 -345 -430 -345zM542 1241q-210 1 -308 77t-110 255h213q11 -135 89 -169q40 -18 132 -18q90 0 141 44t62 143h217
q-15 -172 -121 -252q-105 -80 -315 -80z" />
    <glyph glyph-name="afii10193" unicode="&#x45f;" horiz-adv-x="1323" 
d="M168 0v1106h235v-920h517v920h235v-1106h-381v-389h-219v389h-387z" />
    <glyph glyph-name="uni0460" unicode="&#x460;" horiz-adv-x="2148" 
d="M369 750q0 -263 98.5 -412.5t277.5 -149.5q114 0 205 74v426h240v-426q90 -74 213 -74q181 0 279 149t98 411t-77 397t-214 135q-85 0 -199 -74l-88 180q136 95 295 95q248 0 387 -187.5t139 -543.5t-153 -563t-430 -207q-216 0 -367 120q-87 -66 -172.5 -93t-191.5 -27
q-278 0 -431 206t-153 564t138.5 544.5t385.5 186.5q161 0 297 -95l-90 -180q-113 74 -197 74q-137 0 -213.5 -133.5t-76.5 -396.5z" />
    <glyph glyph-name="uni0461" unicode="&#x461;" horiz-adv-x="1745" 
d="M1411 1106h238q0 -367 -99.5 -629t-312.5 -477h-227l-164 418l-47 -111l-144 -307h-262l-391 1106h246l221 -668q37 -109 61 -256h9q10 38 26 81t183 427l-150 416h262l193 -604q73 -227 90 -297h8q140 170 200 378t60 523z" />
    <glyph glyph-name="uni0462" unicode="&#x462;" horiz-adv-x="1380" 
d="M539 199h159q169 0 253.5 57.5t84.5 181.5t-84.5 176t-281.5 52h-131v-467zM539 1124v-256h161q284 0 432 -109t148 -323t-142.5 -325t-422.5 -111h-416v1124h-289v189h289v243h240v-243h397v-189h-397z" />
    <glyph glyph-name="uni0463" unicode="&#x463;" horiz-adv-x="1325" 
d="M997 338q0 83 -63.5 116t-185.5 33h-254v-313h258q245 0 245 164zM494 922v-258h266q471 0 471 -320q0 -169 -117.5 -256.5t-349.5 -87.5h-506v922h-248v184h248v213h236v-213h350v-184h-350z" />
    <glyph glyph-name="uni0464" unicode="&#x464;" horiz-adv-x="1913" 
d="M1417 184q154 0 377 66v-205q-176 -65 -399 -65q-316 0 -492.5 175.5t-191.5 503.5h-279v-659h-239v1462h239v-598h285q38 293 223 455t487 164q222 0 422 -99l-86 -198q-199 92 -344 92q-196 0 -312 -106.5t-142 -307.5h657v-205h-659q10 -225 128 -350t326 -125z" />
    <glyph glyph-name="uni0465" unicode="&#x465;" horiz-adv-x="1573" 
d="M1182 -20q-237 0 -372.5 126.5t-152.5 370.5h-254v-477h-235v1106h235v-444h254q25 228 155 346t362 118q168 0 323 -67l-67 -176q-139 57 -261 57q-246 0 -270 -278h479v-185h-481q9 -163 83 -237t213 -74t298 70v-193q-124 -63 -309 -63z" />
    <glyph glyph-name="uni0466" unicode="&#x466;" horiz-adv-x="1442" 
d="M559 850h322l-82 213q-66 170 -78 219q-12 -54 -162 -432zM827 655v-655h-213v655h-127l-247 -655h-240l586 1464h268l588 -1464h-242l-248 655h-125z" />
    <glyph glyph-name="uni0467" unicode="&#x467;" horiz-adv-x="1233" 
d="M481 629h271q-112 266 -136 338q-29 -81 -135 -338zM721 455v-455h-209v455h-96l-178 -455h-234l469 1106h285l469 -1106h-232l-180 455h-94z" />
    <glyph glyph-name="uni0468" unicode="&#x468;" horiz-adv-x="1972" 
d="M1092 854h315q-138 356 -156 428q-12 -53 -159 -428zM1358 659v-659h-213v659h-125l-246 -659h-244l265 659h-363v-659h-239v1462h239v-598h445l239 600h268l588 -1464h-246l-245 659h-123z" />
    <glyph glyph-name="uni0469" unicode="&#x469;" horiz-adv-x="1708" 
d="M965 649h252q-90 215 -125 318l-88 -226zM1194 475v-475h-207v475h-88l-188 -475h-232l201 477h-297v-477h-215v1106h215v-444h375l190 444h285l469 -1106h-232l-186 475h-90z" />
    <glyph glyph-name="uni046A" unicode="&#x46a;" horiz-adv-x="1561" 
d="M780 872l316 383h-631zM166 1462h1233v-137l-404 -481q154 -22 242 -107.5t149 -283.5l144 -453h-244l-129 420q-41 133 -94 188.5t-127 55.5h-35v-664h-239v664h-33q-77 0 -128 -54t-93 -190l-129 -420h-248q31 105 143 453q47 146 119 255t266 136l-393 481v137z" />
    <glyph glyph-name="uni046B" unicode="&#x46b;" horiz-adv-x="1294" 
d="M647 662l238 272h-473zM127 1106h1044v-105l-315 -360q143 -27 199 -107t98 -194l125 -340h-215l-115 315q-34 96 -73 133t-93 37h-28v-485h-209v485h-33q-59 0 -96 -35.5t-72 -134.5l-115 -315h-213l123 340q54 152 121 217t178 86l-311 358v105z" />
    <glyph glyph-name="uni046C" unicode="&#x46c;" horiz-adv-x="2095" 
d="M1323 870l315 385h-630zM432 659v-659h-239v1462h239v-598h653l-376 461v137h1230v-137l-401 -483q198 -25 272 -136t119 -253l144 -453h-240l-131 420q-45 144 -97.5 193t-148.5 49h-12v-662h-240v662h-12q-96 0 -148 -48.5t-98 -193.5l-129 -420h-244l144 449
q50 156 102 210h-387z" />
    <glyph glyph-name="uni046D" unicode="&#x46d;" horiz-adv-x="1767" 
d="M383 477v-477h-215v1106h215v-444h514l-297 339v105h1045v-105l-316 -360q143 -27 199 -107t98 -194l125 -340h-215l-115 315q-34 96 -73 133t-93 37h-28v-485h-209v485h-33q-59 0 -96 -35.5t-72 -134.5l-115 -315h-213l125 340q41 107 72 137h-303zM1120 664l238 270
h-473z" />
    <glyph glyph-name="uni046E" unicode="&#x46e;" horiz-adv-x="1243" 
d="M217 1743h166q75 -53 217 -195q75 93 143 152t148 59t125 -14v-133q-26 12 -74 12q-99 0 -199 -154q169 -27 265 -121.5t96 -230.5t-91.5 -228.5t-258.5 -119.5v-8q187 -22 287 -112.5t100 -233.5q0 -203 -153.5 -315.5t-444.5 -118.5q-184 -4 -218 -35t-34 -74
q0 -96 160 -96l376 10q146 0 199 -39v-199q-56 48 -201 48l-401 -11q-181 0 -277 76t-96 218t113 214t335 80t310 67t88 185q0 236 -459 236h-176v192h166q436 0 436 233q0 96 -74.5 148.5t-207.5 52.5q-208 0 -400 -123l-110 162q176 117 370 143q-60 74 -225 246v27z" />
    <glyph glyph-name="uni046F" unicode="&#x46f;" horiz-adv-x="1063" 
d="M233 -122q1 -88 161 -89q88 0 190 5l151 5q132 0 164 -41v-186q-43 43 -158 43l-385 -10q-161 0 -245 69t-84 201q0 287 419 291q299 2 299 162q0 83 -78 121t-239 38h-133v177h117q313 0 313 145q0 135 -240 135q-160 0 -327 -72l-76 175q134 54 252 69q-70 85 -187 209
v27h160q78 -55 211 -193q72 89 140 149t167 60q64 0 109 -14v-133q-29 12 -75 12q-92 0 -177 -127q124 -30 192 -101t68 -171q0 -187 -209 -244v-8q131 -37 187.5 -102t56.5 -165q0 -160 -135 -246t-381 -87q-160 -2 -194 -31t-34 -73z" />
    <glyph glyph-name="uni0470" unicode="&#x470;" horiz-adv-x="1712" 
d="M1604 981q0 -263 -150 -402t-438 -139h-49v-440h-224v440h-49q-283 0 -434 136t-151 403v483h231v-479q0 -176 92 -260t283 -84h28v823h224v-823h30q181 -1 277 85t96 255v483h234v-481z" />
    <glyph glyph-name="uni0471" unicode="&#x471;" horiz-adv-x="1628" 
d="M1286 592q0 210 -72 514h226q69 -272 69 -536q1 -264 -145 -418t-432 -170v-474h-223v474q-275 8 -415 152t-140 419v553h227v-559q1 -186 79 -277t249 -102v1388h223v-1386q180 16 267 114t87 308z" />
    <glyph glyph-name="uni0472" unicode="&#x472;" horiz-adv-x="1614" 
d="M809 1280q-189 0 -299 -108t-133 -324h856q-21 213 -128 322.5t-296 109.5zM806 184q396 0 431 461h-862q15 -227 125 -344t306 -117zM1491 734q0 -358 -178.5 -556t-507.5 -198t-506.5 196.5t-177.5 558.5t178.5 556t506.5 194t506.5 -196.5t178.5 -554.5z" />
    <glyph glyph-name="uni0473" unicode="&#x473;" horiz-adv-x="1251" 
d="M624 934q-128 0 -195 -71.5t-81 -211.5h555q-15 141 -83 212t-196 71zM626 172q132 0 198.5 75.5t78.5 227.5h-557q12 -152 80 -227.5t200 -75.5zM1149 550q0 -266 -139 -418t-387 -152q-155 0 -274 70t-183 201t-64 304q0 269 138 420t384 151t385.5 -155t139.5 -421z
" />
    <glyph glyph-name="uni0474" unicode="&#x474;" horiz-adv-x="1374" 
d="M1294 1276q-52 0 -88 -47t-82 -191l-344 -1038h-268l-512 1462h246l313 -923q58 -186 86 -322q24 135 86 334l166 518q60 190 104 264.5t101.5 108t136.5 33.5t160 -29v-193q-53 23 -105 23z" />
    <glyph glyph-name="uni0475" unicode="&#x475;" horiz-adv-x="1137" 
d="M1038 1116q74 0 121 -20v-181q-33 13 -77 13t-70 -36t-47 -101l-277 -791h-272l-416 1106h246l215 -619q79 -231 88 -305h6q17 112 82 310l108 327q44 132 81 189t87.5 82.5t124.5 25.5z" />
    <glyph glyph-name="uni0476" unicode="&#x476;" horiz-adv-x="1374" 
d="M1294 1276q-52 0 -88 -47t-82 -191l-344 -1038h-268l-512 1462h246l313 -923q58 -186 86 -322q24 135 86 334l166 518q60 191 104 265q43 74 101 108t137 33q79 0 160 -29v-193q-53 23 -105 23zM596 1579h-129q-69 54 -165 155t-126 152v21h244q74 -162 176 -303v-25z
M973 1579h-129q-68 54 -164 155t-127 152v21h244q74 -162 176 -303v-25z" />
    <glyph glyph-name="uni0477" unicode="&#x477;" horiz-adv-x="1137" 
d="M1038 1116q74 0 121 -20v-181q-33 13 -77 13t-70 -36t-47 -101l-277 -791h-272l-416 1106h246l215 -619q79 -231 88 -305h6q17 112 82 310l108 327q44 132 81 189q38 56 88 82t124 26zM494 1241h-129q-69 54 -165 155t-126 152v21h244q74 -162 176 -303v-25zM871 1241
h-129q-68 54 -164 155t-127 152v21h244q74 -162 176 -303v-25z" />
    <glyph glyph-name="uni0478" unicode="&#x478;" horiz-adv-x="2589" 
d="M1681 -492q-77 0 -151 17v186q53 -12 121 -12q170 0 239 197l41 104l-444 1106h256l227 -629q49 -127 68 -252h8q14 83 72 254l213 627h252l-472 -1253q-128 -345 -430 -345zM665 1280q-294 0 -294 -548t389 -548q197 0 292 135t95 412t-94 413t-388 136zM1397 733
q0 -363 -164.5 -558t-474.5 -195t-473.5 193t-163.5 561t164.5 559.5t474.5 191.5t473.5 -194.5t163.5 -557.5z" />
    <glyph glyph-name="uni0479" unicode="&#x479;" horiz-adv-x="2259" 
d="M1356 -492q-75 0 -154 17v186q55 -12 123 -12q171 0 240 197l39 104l-443 1106h256l225 -627q54 -155 68 -252h6q18 93 72 254l217 625h252l-471 -1253q-129 -345 -430 -345zM344 555q0 -383 282 -383t281 381q0 381 -282 381q-148 0 -214.5 -98t-66.5 -281zM1149 550
q0 -266 -139 -418t-387 -152q-155 0 -274 70t-183 201t-64 304q0 269 138 420t384 151t385.5 -155t139.5 -421z" />
    <glyph glyph-name="uni047A" unicode="&#x47a;" horiz-adv-x="1694" 
d="M847 279q104 0 140 -80q169 40 252.5 178.5t83.5 354.5t-83.5 353.5t-250.5 178.5q-34 -82 -140 -82t-144 80q-168 -41 -251 -177.5t-83 -352.5t84 -354.5t252 -178.5q36 80 140 80zM1573 734q0 -312 -152.5 -507.5t-425.5 -236.5q-29 -113 -148 -113t-145 113
q-279 38 -430 233t-151 511t151.5 508t432.5 231q13 62 50 86t92 24t92 -24t52 -86q277 -39 429.5 -233t152.5 -506z" />
    <glyph glyph-name="uni047B" unicode="&#x47b;" horiz-adv-x="1368" 
d="M344 550q0 -312 211 -370q15 40 44 59t85 19q94 0 129 -78q209 60 209 371t-207 373q-27 -88 -131 -88q-59 0 -89 21.5t-44 66.5q-207 -62 -207 -374zM1264 551q0 -231 -116.5 -375.5t-332.5 -181.5q-19 -105 -133 -105t-131 107q-211 36 -330 182t-119 380t119 378
t334 178q9 51 42 70.5t85 19.5t85 -19.5t44 -72.5q213 -36 333 -183t120 -378z" />
    <glyph glyph-name="uni047C" unicode="&#x47c;" horiz-adv-x="2136" 
d="M1214 1741q0 -77 -74.5 -140t-197.5 -81v79q59 17 89 45t30 50t-17 31t-37.5 17.5t-37.5 21.5t-17 40q0 92 121 92q66 0 103.5 -39t37.5 -116zM1495 2030v-158h-16q-150 0 -255 38t-150.5 55t-93.5 17t-69.5 -28.5t-27.5 -85.5h-154v39q0 241 252 241q58 0 114.5 -18.5
t166 -59t219.5 -40.5h14zM707 -20q-280 0 -433 206.5t-153 563.5t138.5 544t387.5 187q153 0 285 -97l-80 -180q-103 76 -197 76q-137 0 -213.5 -133.5t-76.5 -396.5t96 -413.5t268 -150.5q92 0 181.5 45t156.5 125q69 -80 158 -125t180 -45q173 0 270 152t97 412t-77 395
t-214 135q-90 0 -199 -76l-78 180q130 97 285 97q248 0 386 -186.5t138 -542.5t-153 -564t-433 -208q-210 0 -360 120q-150 -120 -360 -120z" />
    <glyph glyph-name="uni047D" unicode="&#x47d;" horiz-adv-x="1739" 
d="M995 1429q0 -78 -75.5 -140.5t-196.5 -80.5v78q59 19 88 46.5t29 49.5t-16.5 31.5t-37 17.5t-37 21.5t-16.5 49.5t32.5 59.5t93.5 23.5t98.5 -39t37.5 -117zM510 1595q0 240 252 240q58 0 114.5 -18.5t165 -59.5t220.5 -41h14v-157h-16q-150 0 -255.5 38.5t-151 56
t-91.5 17.5t-68 -27.5t-30 -87.5h-154v39zM1186 942q-70 0 -164 -47l-72 174q112 57 248 57q216 0 326 -145.5t110 -425.5t-127.5 -427.5t-369.5 -147.5q-161 0 -269 88q-108 -88 -266 -88q-241 0 -370.5 147.5t-129.5 427.5t111 425.5t328 145.5q138 0 245 -57l-71 -174
q-88 47 -162 47q-207 0 -207 -386t264 -386q141 0 258 102q126 -106 257 -106q132 0 199 100t67 291q0 385 -205 385z" />
    <glyph glyph-name="uni047E" unicode="&#x47e;" horiz-adv-x="2122" 
d="M1473 1827v-60l-80 -170h-45l-50 103h-170l-49 -103h-43l-49 103h-172l-47 -103h-45l-80 170v60h830zM641 1280q-136 0 -213.5 -133t-77.5 -395t99 -413t282 -151q109 0 207 76v424h240v-420q93 -80 213 -80q183 0 282 151t99 411t-77 395t-214 135q-85 0 -199 -74
l-78 180q133 95 285 95q248 0 386 -187t138 -544t-153.5 -563.5t-432.5 -206.5q-209 0 -366 124q-165 -124 -369 -124q-279 0 -432.5 206t-153.5 562t137.5 544.5t387.5 188.5q151 0 287 -95l-80 -180q-113 74 -197 74z" />
    <glyph glyph-name="uni047F" unicode="&#x47f;" horiz-adv-x="1745" 
d="M1249 1444v-58l-82 -172h-43l-49 103h-172l-49 -103h-43l-49 103h-170l-49 -103h-43l-80 172v58h829zM1411 1106h238q0 -253 -63 -528.5t-355 -577.5h-234l-112 311l-35 109l-45 -111l-135 -309h-271l-397 1106h246l221 -666q42 -125 63 -256h9q39 135 211 502l-156 420
h248l203 -604q81 -251 92 -297h8q141 167 202.5 372t61.5 529z" />
    <glyph glyph-name="uni0480" unicode="&#x480;" horiz-adv-x="1348" 
d="M844 -20q-352 0 -537.5 192.5t-185.5 558.5q0 225 88 396.5t252.5 263.5t394.5 92t426 -94l-86 -199q-196 88 -352 88q-221 0 -346 -146.5t-125 -409.5t118.5 -399.5t350.5 -136.5q127 0 241 31v-709h-239v472z" />
    <glyph glyph-name="uni0481" unicode="&#x481;" horiz-adv-x="1036" 
d="M625 174q127 0 237 41v-707h-235v474h-13q-248 8 -380 150.5t-132 414.5q0 579 543 579q177 0 324 -67l-70 -187q-156 58 -260 58q-153 0 -224 -92.5t-71 -286.5t77 -285.5t204 -91.5z" />
    <glyph glyph-name="uni0482" unicode="&#x482;" horiz-adv-x="1247" 
d="M514 309l-180 -313l-125 70l180 317l-285 166l68 119l289 -166l201 350l-287 166l69 121l287 -166l184 315l123 -71l-184 -318l289 -164l-72 -119l-285 164l-202 -350l286 -166l-69 -119z" />
    <glyph glyph-name="uni0483" unicode="&#x483;" horiz-adv-x="1141" 
d="M291 1157q-101 0 -101 115q0 56 23.5 81t79.5 25h455q11 95 102 95q102 0 102 -109q0 -56 -24 -84.5t-80 -28.5h-455q-13 -94 -102 -94z" />
    <glyph glyph-name="uni0484" unicode="&#x484;" horiz-adv-x="1182" 
d="M758 1526q254 0 254 -240v-41h-154v27q0 88 -104 88q-42 0 -88 -17.5t-151.5 -55.5t-252.5 -38h-16v158h12q112 0 220.5 41t164.5 59.5t115 18.5z" />
    <glyph glyph-name="uni0485" unicode="&#x485;" horiz-adv-x="1182" 
d="M469 1450q0 77 38.5 116.5t100.5 39.5q126 0 125 -93q0 -41 -54 -61t-54 -46t29 -53t89 -44v-80q-124 19 -199 81.5t-75 139.5z" />
    <glyph glyph-name="uni0486" unicode="&#x486;" horiz-adv-x="1182" 
d="M743 1450q0 -78 -74 -140t-198 -81v80q59 17 88 45t29 50t-16.5 30.5t-37 17t-37 21.5t-16.5 49t31.5 60t93.5 24t99.5 -39t37.5 -117z" />
    <glyph glyph-name="uni0488" unicode="&#x488;" horiz-adv-x="2025" 
d="M245 547q-73 0 -98 -19.5t-30 -68.5h-76q5 90 55 142t148 52t155.5 -51t63.5 -143h-80q-5 45 -35 66.5t-103 21.5zM1767 547q-73 0 -98.5 -20t-30.5 -68h-75q11 194 209 194q92 0 149.5 -52t63.5 -142h-80q-5 44 -35 66t-103 22zM423 1034q-73 0 -98 -19.5t-30 -68.5h-76
q5 90 55 142.5t148 52.5t155.5 -51t63.5 -144h-80q-5 45 -35 66.5t-103 21.5zM1576 1034q-73 0 -98 -19.5t-30 -68.5h-76q5 90 55.5 142.5t148.5 52.5t155 -51t63 -144h-80q-5 45 -35 66.5t-103 21.5zM423 47q-73 0 -98 -19.5t-30 -68.5h-76q5 90 55 142.5t148 52.5
t155.5 -51t63.5 -144h-80q-5 45 -35 66.5t-103 21.5zM1576 47q-73 0 -98 -19.5t-30 -68.5h-76q5 90 55.5 142.5t148.5 52.5t155 -51t63 -144h-80q-5 45 -35 66.5t-103 21.5zM996 -231q-74 0 -98.5 -20.5t-29.5 -67.5h-75q5 89 55 141.5t148 52.5t155 -51t63 -143h-79
q-5 44 -35 66t-104 22zM996 1319q-74 0 -98.5 -20.5t-29.5 -67.5h-75q11 194 208 194q93 0 149.5 -50.5t63.5 -143.5h-79q-5 44 -35 66t-104 22z" />
    <glyph glyph-name="uni0489" unicode="&#x489;" horiz-adv-x="1958" 
d="M324 1204l67 68q158 -243 199 -297l-96 -98l-19 4q-76 122 -151 323zM303 -125l-67 68q225 146 296 198l97 -96l-4 -18q-131 -78 -322 -152zM1632 -143l-67 -68q-144 222 -199 297l96 98l19 -4q78 -129 151 -323zM1653 1186l67 -68q-234 -152 -297 -198l-98 96l4 18
q126 78 324 152zM377 442q-152 39 -336 123v97q221 -53 350 -70v-139zM1581 662q178 -48 336 -123v-97q-221 53 -350 70v139zM870 1155q48 178 123 336h97q-52 -220 -70 -350h-139zM1090 -49q-39 -152 -123 -336h-97q53 221 70 350h139z" />
    <glyph glyph-name="uni048A" unicode="&#x48a;" horiz-adv-x="1726" 
d="M804 1579q-208 0 -307 75.5t-112 256.5h215q7 -102 50.5 -144.5t153.5 -42.5t160.5 46t59.5 141h217q-18 -176 -123.5 -254t-313.5 -78zM193 1462h219v-762q0 -90 -15 -405h9q199 315 747 1167h277v-1253h260l-162 -612h-271l173 403h-218v754q0 29 1.5 71.5t3 89t4 92.5
t5.5 105.5t5 61.5h-8l-752 -1174h-278v1462z" />
    <glyph glyph-name="uni048B" unicode="&#x48b;" horiz-adv-x="1479" 
d="M696 1241q-210 0 -308 76.5t-109 255.5h213q7 -102 51.5 -144.5t152.5 -42.5t159 45.5t60 141.5h218q-16 -173 -121.5 -252.5t-315.5 -79.5zM393 1106v-551q0 -42 -16 -307l555 858h287v-924h237l-137 -571h-232l132 389h-226v559q0 104 15 299l-555 -858h-285v1106h225z
" />
    <glyph glyph-name="uni048C" unicode="&#x48c;" horiz-adv-x="1257" 
d="M594 199q342 1 342 237q0 122 -83 176t-273 54h-148v-467h162zM432 1292h320v-200h-320v-224h158q290 0 441 -109t151 -323t-146 -325t-430 -111h-413v1092h-146v200h146v170h239v-170z" />
    <glyph glyph-name="uni048D" unicode="&#x48d;" horiz-adv-x="1235" 
d="M907 338q0 83 -63.5 116t-186.5 33h-254v-313h259q245 0 245 164zM670 664q473 0 473 -320q0 -171 -120 -257.5t-349 -86.5h-506v1157h-156v164h156v235h235v-235h336v-164h-336v-493h267z" />
    <glyph glyph-name="uni048E" unicode="&#x48e;" horiz-adv-x="1268" 
d="M432 748h143q55 0 105 6l-82 110l131 97l111 -146q84 65 84 195t-78.5 191t-243.5 61h-170v-514zM1169 1020q0 -265 -206 -387l104 -141l-125 -99l-133 178q-96 -24 -219 -24h-158v-547h-239v1462h430q271 0 408.5 -112.5t137.5 -329.5z" />
    <glyph glyph-name="uni048F" unicode="&#x48f;" horiz-adv-x="1276" 
d="M670 934q-136 0 -199.5 -80t-67.5 -264v-35q0 -202 64 -292.5t209 -90.5q39 0 61 8l-110 142l137 102l104 -135q62 89 62 273t-62 278t-198 94zM729 -20q-210 0 -326 151h-14l7 -68l7 -104v-451h-235v1598h190l35 -148h13q110 168 322 168t327.5 -150t115.5 -421
q0 -323 -163 -473l104 -139l-129 -101l-119 158q-59 -20 -135 -20z" />
    <glyph glyph-name="afii10050" unicode="&#x490;" horiz-adv-x="1135" 
d="M432 0h-239v1462h681v305h216v-510h-658v-1257z" />
    <glyph glyph-name="afii10098" unicode="&#x491;" horiz-adv-x="963" 
d="M403 0h-235v1106h516v313h221v-491h-502v-928z" />
    <glyph glyph-name="uni0492" unicode="&#x492;" horiz-adv-x="1112" 
d="M432 823h412v-200h-412v-623h-239v623h-146v200h146v639h874v-205h-635v-434z" />
    <glyph glyph-name="uni0493" unicode="&#x493;" horiz-adv-x="940" 
d="M895 913h-502v-280h340v-182h-340v-451h-235v451h-148v182h148v473h737v-193z" />
    <glyph glyph-name="uni0494" unicode="&#x494;" horiz-adv-x="1409" 
d="M771 -512q-170 0 -294 47v213q123 -49 273 -49t239.5 114.5t89.5 331.5t-124.5 334t-364.5 117q-62 0 -158 -12v-584h-239v1462h880v-205h-641v-458q106 12 234 12q200 0 348 -78.5t227.5 -229.5t79.5 -355t-66 -352.5t-190 -228t-294 -79.5z" />
    <glyph glyph-name="uni0495" unicode="&#x495;" horiz-adv-x="1153" 
d="M625 -502q-142 0 -252 56v204q109 -57 230 -57t187 92t66 272t-80.5 274.5t-257.5 94.5q-57 0 -115 -12v-422h-235v1106h741v-195h-506v-284q86 12 146 12q259 0 400 -150.5t141 -422.5t-123.5 -420t-341.5 -148z" />
    <glyph glyph-name="uni0496" unicode="&#x496;" horiz-adv-x="1964" 
d="M801 1462h227v-708l520 708h256l-534 -706l405 -547h250v-612h-231v403h-131l-535 741v-741h-227v741l-535 -741h-266l559 756l-534 706h256l520 -708v708z" />
    <glyph glyph-name="uni0497" unicode="&#x497;" horiz-adv-x="1763" 
d="M713 1106h219v-537l426 537h248l-435 -533l322 -391h229v-571h-217v389h-119l-454 561v-561h-219v561l-453 -561h-258l473 573l-434 533h248l424 -537v537z" />
    <glyph glyph-name="uni0498" unicode="&#x498;" horiz-adv-x="1257" 
d="M504 -322q88 0 88 90t-125 214q-230 11 -377 77v209q98 -46 218 -71t220 -25q385 0 385 252q1 116 -115 177t-343 61h-176v192h165q437 0 437 233q-1 93 -75 147t-208 54q-212 0 -401 -123l-109 162q225 156 530 156q232 0 367 -99t135 -253t-94 -245t-262 -116v-6
q192 -24 292 -114t101 -236q1 -204 -159 -319q-140 -101 -375 -113q145 -117 145 -240q0 -97 -60 -154t-148 -57q-87 0 -152 18v144q54 -15 96 -15z" />
    <glyph glyph-name="uni0499" unicode="&#x499;" horiz-adv-x="1063" 
d="M410 -322q88 0 88 90t-125 215q-190 11 -301 66v203q183 -86 379 -86q294 0 294 160q0 83 -77 122t-238 39h-135v177h117q313 0 313 145q0 135 -240 135q-160 0 -327 -72l-76 175q192 79 412 79t334 -76t114 -216q0 -186 -213 -244v-8q133 -36 191 -103t57 -166
q0 -152 -125 -237t-323 -95q145 -117 145 -239q0 -97 -60 -154t-148 -57q-87 0 -152 18v144q54 -15 96 -15z" />
    <glyph glyph-name="uni049A" unicode="&#x49a;" horiz-adv-x="1450" 
d="M1415 209v-612h-231v403h-152l-459 662l-141 -115v-547h-239v1462h239v-698q98 120 195 231l395 467h272q-383 -450 -549 -641l420 -612h250z" />
    <glyph glyph-name="uni049B" unicode="&#x49b;" horiz-adv-x="1239" 
d="M1208 182v-573h-217v391h-110l-478 561v-561h-235v1106h235v-537l451 537h258l-457 -533l340 -391h213z" />
    <glyph glyph-name="uni049C" unicode="&#x49c;" horiz-adv-x="1309" 
d="M686 244h-129v405l-125 -102v-547h-239v1462h239v-698l125 149v357h129v-205l336 397h272l-549 -641l564 -821h-277l-346 500v-256z" />
    <glyph glyph-name="uni049D" unicode="&#x49d;" horiz-adv-x="1159" 
d="M502 1014h137v-164l215 256h258l-457 -533l496 -573h-270l-242 283v-191h-137v352l-99 117v-561h-235v1106h235v-537l99 117v328z" />
    <glyph glyph-name="uni049E" unicode="&#x49e;" horiz-adv-x="1309" 
d="M432 0h-239v1102h-146v203h146v157h239v-157h180v-203h-180v-338q98 120 195 231l395 467h272q-383 -450 -549 -641l564 -821h-277l-459 662l-141 -115v-547z" />
    <glyph glyph-name="uni049F" unicode="&#x49f;" horiz-adv-x="1163" 
d="M12 1382h156v174h233v-174h349v-163h-349v-435l-10 -200h6l129 166l334 356h273l-445 -475l471 -631h-274l-355 483l-129 -104v-379h-233v1219h-156v163z" />
    <glyph glyph-name="uni04A0" unicode="&#x4a0;" horiz-adv-x="1456" 
d="M8 1462h572v-700l589 700h273l-549 -641l563 -821h-276l-459 662l-141 -115v-547h-240v1255h-332v207z" />
    <glyph glyph-name="uni04A1" unicode="&#x4a1;" horiz-adv-x="1341" 
d="M598 0h-225v922h-353v184h578v-537l451 537h249l-458 -533l497 -573h-260l-479 561v-561z" />
    <glyph glyph-name="uni04A2" unicode="&#x4a2;" horiz-adv-x="1624" 
d="M1346 209h231v-612h-231v403h-240v659h-674v-659h-239v1462h239v-598h674v598h240v-1253z" />
    <glyph glyph-name="uni04A3" unicode="&#x4a3;" horiz-adv-x="1423" 
d="M403 1106v-444h521v444h235v-924h213v-571h-221v389h-227v477h-521v-477h-235v1106h235z" />
    <glyph glyph-name="uni04A4" unicode="&#x4a4;" horiz-adv-x="1686" 
d="M1677 1255h-331v-1255h-240v659h-674v-659h-239v1462h239v-598h674v598h571v-207z" />
    <glyph glyph-name="uni04A5" unicode="&#x4a5;" horiz-adv-x="1530" 
d="M403 1106v-444h521v444h587v-184h-352v-922h-235v477h-521v-477h-235v1106h235z" />
    <glyph glyph-name="uni04A6" unicode="&#x4a6;" horiz-adv-x="2245" 
d="M1592 -512q-165 0 -296 49v211q130 -47 274 -47t235 117t91 331t-114.5 329.5t-337.5 115.5q-102 0 -174 -16v-578h-240v1255h-598v-1255h-239v1462h1077v-665q100 14 264 14t307 -78.5t220 -228.5t77 -356t-67.5 -355.5t-190.5 -227t-288 -77.5z" />
    <glyph glyph-name="uni04A7" unicode="&#x4a7;" horiz-adv-x="1796" 
d="M1726 64q0 -180 -53.5 -307t-155 -193t-237.5 -66t-244 56v206q102 -59 218 -59t177.5 93t61.5 272t-77 273.5t-245 94.5q-41 0 -71 -10v-424h-238v920h-459v-920h-235v1106h932v-477q52 10 110 10q157 0 273.5 -67.5t179.5 -197.5t63 -310z" />
    <glyph glyph-name="uni04A8" unicode="&#x4a8;" horiz-adv-x="1593" 
d="M1247 678q0 139 -39.5 219t-113.5 80t-116 -79.5t-42 -219.5t38 -245.5t97 -170.5q78 56 127 166.5t49 249.5zM1475 678q0 -164 -61.5 -305.5t-172.5 -233.5q61 -24 137 -24t140 22v-196q-60 -25 -164 -25q-175 0 -322 98q-102 -34 -248 -34q-205 0 -355 88.5t-229 254
t-79 390.5q0 380 164.5 576t478.5 196q130 0 233 -39l-61 -193q-84 29 -172 29q-395 0 -395 -559q0 -257 112.5 -398t319.5 -141q38 0 65 9q-70 82 -113.5 215.5t-43.5 279.5q0 234 99 355.5t282 121.5t284 -126.5t101 -360.5z" />
    <glyph glyph-name="uni04A9" unicode="&#x4a9;" horiz-adv-x="1327" 
d="M1112 -66q-145 0 -274 82q-108 -36 -243 -36t-251 69.5t-179 199t-63 296.5q0 275 130 428t370 153q102 0 189 -30l-52 -183q-72 21 -139 21q-133 0 -195.5 -94.5t-62.5 -284.5q0 -383 276 -383q52 0 68 8q-106 138 -106 318t86 273t238 93t235.5 -94t83.5 -264
q0 -123 -48.5 -221t-134.5 -156q40 -16 100 -16t113 14v-174q-55 -19 -141 -19zM905 686q-119 0 -119 -173t105 -271q57 35 92 101.5t35 160.5q0 182 -113 182z" />
    <glyph glyph-name="uni04AA" unicode="&#x4aa;" horiz-adv-x="1298" 
d="M684 -322q88 0 88 91t-134 223q-215 36 -345 182q-172 194 -172 557q-1 228 83 399t242 262t376 91t409 -94l-86 -199q-186 88 -330 88q-206 0 -324 -146t-118 -409q-1 -263 113 -401t329 -138q147 0 361 66v-205q-164 -62 -371 -65q143 -116 143 -238q0 -97 -60 -154
t-148 -57q-87 0 -152 18v144q54 -15 96 -15z" />
    <glyph glyph-name="uni04AB" unicode="&#x4ab;" horiz-adv-x="1014" 
d="M526 -322q88 0 88 91t-135 223q-155 30 -247 134q-130 146 -130 424q0 276 136 426t395 150q175 0 315 -65l-71 -189q-149 58 -246 58q-287 0 -287 -377t281 -377q157 0 297 78v-205q-109 -64 -275 -69q143 -116 143 -238q0 -97 -60 -154t-148 -57q-87 0 -152 18v144
q54 -15 96 -15z" />
    <glyph glyph-name="uni04AC" unicode="&#x4ac;" horiz-adv-x="1159" 
d="M698 209h232v-612h-232v403h-239v1255h-430v207h1099v-207h-430v-1046z" />
    <glyph glyph-name="uni04AD" unicode="&#x4ad;" horiz-adv-x="1040" 
d="M999 922h-360v-740h211v-571h-219v389h-228v922h-360v184h956v-184z" />
    <glyph glyph-name="uni04AE" unicode="&#x4ae;" horiz-adv-x="1212" 
d="M725 0h-240v559l-485 903h260l346 -667l346 667h260l-487 -895v-567z" />
    <glyph glyph-name="uni04AF" unicode="&#x4af;" horiz-adv-x="1100" 
d="M668 -492h-236v490l-432 1108h254l205 -557q39 -103 86 -299h10q45 188 86 299l207 557h252l-432 -1108v-490z" />
    <glyph glyph-name="uni04B0" unicode="&#x4b0;" horiz-adv-x="1212" 
d="M725 518h309v-205h-309v-313h-240v313h-309v205h309v41l-485 903h260l346 -667l346 667h260l-487 -895v-49z" />
    <glyph glyph-name="uni04B1" unicode="&#x4b1;" horiz-adv-x="1100" 
d="M952 0v-178h-284v-314h-236v314h-285v178h283l-430 1106h254l219 -596q39 -108 72 -260h10q33 132 76 254l217 602h252l-430 -1106h282z" />
    <glyph glyph-name="uni04B2" unicode="&#x4b2;" horiz-adv-x="1395" 
d="M1358 209v-612h-230v403h-133l-366 598l-369 -598h-256l485 758l-454 704h266l338 -553l338 553h258l-457 -708l352 -545h228z" />
    <glyph glyph-name="uni04B3" unicode="&#x4b3;" horiz-adv-x="1210" 
d="M1180 182v-573h-219v391h-125l-273 414l-272 -414h-266l389 565l-371 541h268l252 -387l254 387h266l-372 -541l266 -383h203z" />
    <glyph glyph-name="uni04B4" unicode="&#x4b4;" horiz-adv-x="1827" 
d="M1548 209h236v-612h-232v403h-1128v1255h-395v207h1077v-207h-442v-1050h645v1257h239v-1253z" />
    <glyph glyph-name="uni04B5" unicode="&#x4b5;" horiz-adv-x="1544" 
d="M895 922h-328v-736h494v920h235v-924h215v-571h-221v389h-958v922h-289v184h852v-184z" />
    <glyph glyph-name="uni04B6" unicode="&#x4b6;" horiz-adv-x="1532" 
d="M642 698q150 0 382 78v686h240v-1253h231v-612h-231v403h-240v584q-253 -90 -457 -90q-203 0 -315.5 97.5t-112.5 276.5v594h240v-538q0 -114 56.5 -170t206.5 -56z" />
    <glyph glyph-name="uni04B7" unicode="&#x4b7;" horiz-adv-x="1366" 
d="M517 352q-184 0 -281 89.5t-97 250.5v414h236v-404q0 -170 176 -170q163 0 340 99v475h235v-924h211v-573h-219v391h-227v469q-190 -117 -374 -117z" />
    <glyph glyph-name="uni04B8" unicode="&#x4b8;" horiz-adv-x="1456" 
d="M627 494q-488 0 -488 374v594h240v-538q0 -118 60 -172t188 -54v338h129v-329q114 13 268 67v688h240v-1462h-240v582q-154 -56 -268 -76v-313h-129v301z" />
    <glyph glyph-name="uni04B9" unicode="&#x4b9;" horiz-adv-x="1286" 
d="M502 352q-169 0 -266 88.5t-97 251.5v414h236v-404q0 -170 176 -170v279h123v-266q97 21 209 86v475h235v-1106h-235v469q-120 -73 -209 -94v-246h-123v225l-23 -2h-26z" />
    <glyph glyph-name="uni04BA" unicode="&#x4ba;" horiz-adv-x="1456" 
d="M1077 539q0 225 -219 225q-107 0 -194 -16t-232 -64v-684h-239v1462h239v-585q269 92 465 92t308 -99t112 -278v-592h-240v539z" />
    <glyph glyph-name="uni04BB" unicode="&#x4bb;" horiz-adv-x="1280" 
d="M918 0v408q0 163 -177 163q-82 0 -155.5 -19.5t-182.5 -76.5v-475h-235v1106h235v-471q183 117 371 117t284.5 -89.5t96.5 -250.5v-412h-237z" />
    <glyph glyph-name="uni04BC" unicode="&#x4bc;" horiz-adv-x="1829" 
d="M1051 1280q-192 0 -301 -111t-123 -317h809q0 220 -96.5 324t-288.5 104zM1092 184q121 0 258 31.5t254 85.5v-217q-223 -104 -532 -104t-490.5 173.5t-206.5 495.5q-344 0 -344 248q0 93 39 166h190q-24 -56 -24 -115q0 -96 104 -96h39q35 304 206 468.5t475 164.5
t466 -192.5t162 -573.5v-70h-1063q13 -223 128 -344t339 -121z" />
    <glyph glyph-name="uni04BD" unicode="&#x4bd;" horiz-adv-x="1407" 
d="M832 948q-116 0 -185 -69.5t-82 -208.5h512q0 132 -64.5 205t-180.5 73zM328 670q88 456 512 456q214 0 342.5 -134t128.5 -365v-127h-750q10 -334 320 -334q103 0 187 17.5t187 62.5v-191q-157 -75 -392 -75t-381.5 135.5t-159.5 384.5q-297 2 -297 225q0 82 32 141h174
q-22 -42 -22 -106q0 -90 100 -90h19z" />
    <glyph glyph-name="uni04BE" unicode="&#x4be;" horiz-adv-x="1829" 
d="M1051 1280q-192 0 -301 -111t-123 -317h809q0 220 -96.5 324t-288.5 104zM31 897q0 93 39 166h190q-24 -56 -24 -115q0 -96 104 -96h39q31 300 205 466.5t476 166.5t465 -192.5t163 -573.5v-70h-1063q13 -223 128 -344t339 -121q121 0 258 31.5t254 85.5v-217
q-188 -87 -430 -100v-387h-232v393q-256 35 -401.5 205.5t-165.5 453.5q-344 0 -344 248z" />
    <glyph glyph-name="uni04BF" unicode="&#x4bf;" horiz-adv-x="1407" 
d="M832 948q-116 0 -185 -69.5t-82 -208.5h512q0 132 -64.5 205t-180.5 73zM328 670q88 456 512 456q214 0 342.5 -134t128.5 -365v-127h-750q10 -334 320 -334q103 0 187 17.5t187 62.5v-191q-130 -63 -307 -71v-373h-219v383q-189 36 -293 166.5t-114 339.5
q-297 2 -297 225q0 82 32 141h174q-22 -42 -22 -106q0 -90 100 -90h19z" />
    <glyph glyph-name="uni04C0" unicode="&#x4c0;" horiz-adv-x="625" 
d="M193 0v1462h239v-1462h-239z" />
    <glyph glyph-name="uni04C1" unicode="&#x4c1;" horiz-adv-x="1829" 
d="M801 1462h227v-708l520 708h256l-534 -706l557 -756h-264l-535 741v-741h-227v741l-535 -741h-266l559 756l-534 706h256l520 -708v708zM902 1579q-210 1 -308 77t-110 255h213q11 -135 89 -169q40 -18 132 -18q90 0 141 44t62 143h217q-15 -172 -121 -252
q-105 -80 -315 -80z" />
    <glyph glyph-name="uni04C2" unicode="&#x4c2;" horiz-adv-x="1647" 
d="M713 1106h219v-537l426 537h248l-435 -535l474 -571h-259l-454 561v-561h-219v561l-453 -561h-258l473 571l-434 535h248l424 -537v537zM812 1241q-210 1 -308 77t-109 255h213q12 -135 90 -169q40 -18 130 -18t142 44q51 44 62 143h217q-15 -172 -121 -252t-316 -80z
" />
    <glyph glyph-name="uni04C3" unicode="&#x4c3;" horiz-adv-x="1483" 
d="M825 -512q-166 0 -299 49v211q128 -47 280 -47t242.5 117t90.5 328t-128 325.5t-368 114.5q-97 0 -211 -29v-557h-239v1462h239v-706l180 221l414 485h274l-606 -686h15q424 0 546.5 -213t122.5 -417t-68.5 -353t-193.5 -227t-291 -78z" />
    <glyph glyph-name="uni04C4" unicode="&#x4c4;" horiz-adv-x="1239" 
d="M1163 63q0 -177 -58 -305t-164 -194t-245 -66t-245 56v204q111 -59 227 -59t186 94t70 270q0 363 -344 363q-88 0 -189 -29v-397h-233v1106h233v-506l459 506h264l-465 -490q243 -2 373.5 -146.5t130.5 -406.5z" />
    <glyph glyph-name="uni04C5" unicode="&#x4c5;" horiz-adv-x="1581" 
d="M1290 209h260l-161 -612h-271l172 403h-239v1257h-416q-79 -640 -126.5 -871t-133.5 -321.5t-228 -87.5q-73 0 -139 25v199q57 -25 120 -25t103.5 86.5t89 382.5t115.5 817h854v-1253z" />
    <glyph glyph-name="uni04C6" unicode="&#x4c6;" horiz-adv-x="1329" 
d="M1075 182h238l-137 -571h-232l131 389h-235v920h-305q-28 -356 -75.5 -555.5t-123.5 -290t-199 -90.5q-82 0 -129 20v186q37 -14 74 -14q97 0 156 213t94 717h743v-924z" />
    <glyph glyph-name="uni04C7" unicode="&#x4c7;" horiz-adv-x="1528" 
d="M803 -512q-173 0 -301 47v211q128 -47 282 -47t238 110t84 324v526h-674v-659h-239v1462h239v-598h674v598h240v-1343q0 -295 -144.5 -463t-398.5 -168z" />
    <glyph glyph-name="uni04C8" unicode="&#x4c8;" horiz-adv-x="1309" 
d="M711 -502q-138 0 -242 56v206q109 -59 223 -59q226 0 230 346v430h-519v-477h-235v1106h235v-444h519v444h237v-1069q0 -255 -116.5 -397t-331.5 -142z" />
    <glyph glyph-name="uni04C9" unicode="&#x4c9;" horiz-adv-x="1640" 
d="M1346 209h260l-162 -612h-270l172 403h-240v659h-674v-659h-239v1462h239v-598h674v598h240v-1253z" />
    <glyph glyph-name="uni04CA" unicode="&#x4ca;" horiz-adv-x="1430" 
d="M403 1106v-444h521v444h235v-924h238l-137 -571h-232l131 389h-235v477h-521v-477h-235v1106h235z" />
    <glyph glyph-name="uni04CB" unicode="&#x4cb;" horiz-adv-x="1456" 
d="M642 698q150 0 382 78v686h240v-1462h-213v-403h-232v612h205v375q-253 -90 -457 -90q-203 0 -315.5 97.5t-112.5 276.5v594h240v-538q0 -114 56.5 -170t206.5 -56z" />
    <glyph glyph-name="uni04CC" unicode="&#x4cc;" horiz-adv-x="1294" 
d="M517 352q-184 0 -281 89.5t-97 250.5v414h236v-404q0 -170 176 -170q163 0 340 99v475h235v-1106h-204v-391h-222v573h191v287q-190 -117 -374 -117z" />
    <glyph glyph-name="uni04CD" unicode="&#x4cd;" horiz-adv-x="1987" 
d="M1468 817q0 112 15 402h-8l-439 -1219h-211l-424 1221h-8q17 -327 17 -416v-805h-217v1462h337l406 -1163h8l416 1163h338v-1253h258l-160 -612h-272l174 403h-230v817z" />
    <glyph glyph-name="uni04CE" unicode="&#x4ce;" horiz-adv-x="1702" 
d="M1448 1106v-924h238l-138 -571h-231l131 389h-217v893l-18 -60q-45 -161 -76 -237l-242 -596h-178l-242 600q-50 130 -92 293v-893h-215v1106h311l244 -600q47 -119 80 -281l13 48q41 149 71 229l248 604h313z" />
    <glyph glyph-name="uni04CF" unicode="&#x4cf;" horiz-adv-x="625" 
d="M193 0v1462h239v-1462h-239z" />
    <glyph glyph-name="uni04D0" unicode="&#x4d0;" horiz-adv-x="1354" 
d="M891 612l-137 398q-45 120 -78 252q-27 -123 -79 -269l-132 -381h426zM1100 0l-146 406h-559l-143 -406h-252l547 1468h260l547 -1468h-254zM666 1579q-210 1 -308 77t-110 255h213q11 -135 89 -169q40 -18 132 -18q90 0 141 44t62 143h217q-15 -172 -121 -252
q-105 -80 -315 -80z" />
    <glyph glyph-name="uni04D1" unicode="&#x4d1;" horiz-adv-x="1188" 
d="M530 160q108 0 186 72t77 200v96l-142 -6q-317 -11 -317 -193q0 -89 44 -129t152 -40zM600 1126q212 0 320 -92t108 -289v-745h-168l-47 154h-8q-80 -102 -161 -138t-226 -36q-144 0 -236 88t-92 254q0 332 514 348l191 6v59q0 211 -203 211q-135 0 -313 -84l-76 168
q184 96 397 96zM588 1241q-210 1 -308 77t-110 255h213q11 -135 89 -169q40 -18 132 -18q90 0 141 44t62 143h217q-15 -172 -121 -252q-105 -80 -315 -80z" />
    <glyph glyph-name="uni04D2" unicode="&#x4d2;" horiz-adv-x="1354" 
d="M891 612l-137 398q-45 120 -78 252q-27 -123 -79 -269l-132 -381h426zM1100 0l-146 406h-559l-143 -406h-252l547 1468h260l547 -1468h-254zM760 1738q0 60 34 88t84 28t82 -31t32 -85t-33 -86t-83 -32t-82 29q-34 29 -34 89zM367 1738q-1 60 33 88t84 28t82 -31t32 -85
t-32 -86t-82 -32t-84 29t-33 89z" />
    <glyph glyph-name="uni04D3" unicode="&#x4d3;" horiz-adv-x="1188" 
d="M530 160q108 0 186 72t77 200v96l-142 -6q-317 -11 -317 -193q0 -89 44 -129t152 -40zM600 1126q212 0 320 -92t108 -289v-745h-168l-47 154h-8q-80 -102 -161 -138t-226 -36q-144 0 -236 88t-92 254q0 332 514 348l191 6v59q0 211 -203 211q-135 0 -313 -84l-76 168
q184 96 397 96zM677 1400q-1 60 33 88t84 28t83 -31q32 -31 32 -85t-33 -86q-32 -32 -82 -32t-84 29t-33 89zM284 1400q0 60 34 88t84 28t82 -31t31 -85q0 -54 -32 -86t-82 -32q-49 0 -83 29t-34 89z" />
    <glyph glyph-name="uni04D4" unicode="&#x4d4;" horiz-adv-x="1868" 
d="M936 612v641h-123l-291 -641h414zM1747 0h-811v406h-504l-188 -406h-246l678 1462h1071v-202h-571v-398h532v-200h-532v-459h571v-203z" />
    <glyph glyph-name="uni04D5" unicode="&#x4d5;" horiz-adv-x="1817" 
d="M1262 948q-108 0 -174 -70t-74 -208h473q-1 130 -59 204t-166 74zM334 315q0 -155 166 -155q124 0 196 72t72 200v96l-135 -6q-155 -6 -227 -54t-72 -153zM432 -20q-154 0 -248 90t-94 254q0 330 492 346l188 6v76q0 194 -201 194q-141 0 -307 -82l-74 166q180 96 408 96
q229 0 328 -155q120 155 336 155t338 -134t122 -363v-127h-712q10 -336 301 -336q184 0 356 80v-191q-157 -75 -367 -75q-291 0 -424 219q-94 -125 -190 -172t-252 -47z" />
    <glyph glyph-name="uni04D6" unicode="&#x4d6;" horiz-adv-x="1143" 
d="M1020 0h-827v1462h827v-202h-588v-398h551v-200h-551v-459h588v-203zM594 1579q-210 1 -308 77t-110 255h213q11 -135 89 -169q40 -18 132 -18q90 0 141 44t62 143h217q-15 -172 -121 -252q-105 -80 -315 -80z" />
    <glyph glyph-name="uni04D7" unicode="&#x4d7;" horiz-adv-x="1180" 
d="M608 948q-112 0 -180 -71t-80 -207h502q-2 138 -66 208t-176 70zM102 548q0 268 135 423t363 155t354 -133q127 -133 127 -366v-127h-737q5 -162 87 -248t248 -86t347 80v-191q-157 -75 -375 -75q-257 0 -403 150t-146 418zM600 1241q-210 1 -308 77t-110 255h213
q11 -135 89 -169q40 -18 132 -18q90 0 141 44t62 143h217q-15 -172 -121 -252q-105 -80 -315 -80z" />
    <glyph glyph-name="uni04D8" unicode="&#x4d8;" horiz-adv-x="1583" 
d="M776 184q192 0 304.5 111.5t125.5 314.5h-815q0 -220 96.5 -323t288.5 -103zM1208 815q-30 465 -484 465q-230 0 -499 -119v213q237 111 520 111q337 0 526 -200.5t189 -554.5t-178 -552t-498 -198q-645 0 -645 763v72h1069z" />
    <glyph glyph-name="uni04D9" unicode="&#x4d9;" horiz-adv-x="1188" 
d="M574 158q116 0 186.5 70t81.5 208h-512q0 -133 64 -205.5t180 -72.5zM530 1126q260 0 407.5 -149t147.5 -419t-136 -424t-366 -154t-358.5 133.5t-128.5 365.5v127h750q-10 334 -320 334q-189 0 -374 -82v193q163 75 378 75z" />
    <glyph glyph-name="uni04DA" unicode="&#x4da;" horiz-adv-x="1583" 
d="M776 184q192 0 304 112t126 314h-815q0 -220 96 -323q97 -103 289 -103zM1208 815q-30 465 -484 465q-230 0 -499 -119v213q237 111 520 111q337 -1 526 -201t189 -554t-178 -552t-498 -198q-645 0 -645 763v72h1069zM879 1738q-1 60 33 88t84 28t83 -31q32 -31 32 -85
t-33 -86q-32 -32 -82 -32t-84 29t-33 89zM486 1738q0 60 34 88t84 28t82 -31t31 -85q0 -54 -32 -86t-82 -32q-49 0 -83 29t-34 89z" />
    <glyph glyph-name="uni04DB" unicode="&#x4db;" horiz-adv-x="1188" 
d="M574 158q116 0 187 70q70 70 81 208h-512q0 -134 64 -206t180 -72zM530 1126q260 0 408 -149t147 -419q0 -270 -136 -424t-366 -154q-231 0 -359 134t-128 365v127h750q-10 334 -320 334q-189 0 -374 -82v193q163 75 378 75zM675 1400q-1 60 33 88t84 28t83 -31
q32 -31 32 -85t-33 -86q-32 -32 -82 -32t-84 29t-33 89zM282 1400q0 60 34 88t84 28t82 -31t31 -85q0 -54 -32 -86t-82 -32q-49 0 -83 29t-34 89z" />
    <glyph glyph-name="uni04DC" unicode="&#x4dc;" horiz-adv-x="1829" 
d="M801 1462h227v-708l520 708h256l-534 -706l557 -756h-264l-535 741v-741h-227v741l-535 -741h-266l559 756l-534 706h256l520 -708v708zM993 1738q-1 60 33 88t84 28t83 -31q32 -31 32 -85t-33 -86q-32 -32 -82 -32t-84 29t-33 89zM600 1738q0 60 34 88t84 28t82 -31
t31 -85q0 -54 -32 -86t-82 -32q-49 0 -83 29t-34 89z" />
    <glyph glyph-name="uni04DD" unicode="&#x4dd;" horiz-adv-x="1647" 
d="M713 1106h219v-537l426 537h248l-435 -535l474 -571h-259l-454 561v-561h-219v561l-453 -561h-258l473 571l-434 535h248l424 -537v537zM903 1400q-1 60 33 88t84 28t83 -31q32 -31 32 -85t-33 -86q-32 -32 -82 -32t-84 29t-33 89zM510 1400q0 60 34 88t84 28t82 -31
t31 -85q0 -54 -32 -86t-82 -32q-49 0 -83 29t-34 89z" />
    <glyph glyph-name="uni04DE" unicode="&#x4de;" horiz-adv-x="1257" 
d="M598 1288q-212 0 -401 -123l-109 162q225 156 530 156q232 0 367 -99t135 -253t-94 -245t-262 -116v-6q192 -24 292 -114t101 -236q1 -204 -159 -319t-446 -115t-462 79v209q98 -46 218 -71t220 -25q385 0 385 252q1 116 -115 177t-343 61h-176v192h165q437 0 437 233
q-1 93 -75 147t-208 54zM700 1738q0 60 34 88t84 28t82 -31t32 -85t-33 -86t-83 -32t-82 29q-34 29 -34 89zM307 1738q-1 60 33 88t84 28t82 -31t32 -85t-32 -86t-82 -32t-84 29t-33 89z" />
    <glyph glyph-name="uni04DF" unicode="&#x4df;" horiz-adv-x="1063" 
d="M451 166q294 0 294 160q0 83 -77 122t-238 39h-135v177h117q313 0 313 145q0 135 -240 135q-160 0 -327 -72l-76 175q192 79 412 79t334 -76t114 -216q0 -186 -213 -244v-8q133 -36 191 -103t57 -166q1 -153 -133 -243t-384 -90t-388 69v203q183 -86 379 -86zM607 1400
q-1 60 33 88t84 28t83 -31q32 -31 32 -85t-33 -86q-32 -32 -82 -32t-84 29t-33 89zM214 1400q0 60 34 88t84 28t82 -31t31 -85q0 -54 -32 -86t-82 -32q-49 0 -83 29t-34 89z" />
    <glyph glyph-name="uni04E0" unicode="&#x4e0;" horiz-adv-x="1202" 
d="M494 172q366 0 366 258q0 236 -432 236h-131v178l426 413h-612v205h929v-170l-471 -450q263 -10 399 -119t136 -309t-158.5 -317t-432.5 -117t-447 79v209q207 -96 428 -96z" />
    <glyph glyph-name="uni04E1" unicode="&#x4e1;" horiz-adv-x="1096" 
d="M419 -299q186 0 275.5 82t89.5 223q0 301 -407 301h-121v166l430 447h-610v186h895v-160l-447 -463q239 -20 368.5 -146.5t129.5 -334.5q0 -148 -70 -260.5t-200.5 -173t-338.5 -60.5t-372 76v207q192 -90 378 -90z" />
    <glyph glyph-name="uni04E2" unicode="&#x4e2;" horiz-adv-x="1622" 
d="M412 702q0 -190 -15 -405h9l747 1165h279v-1462h-220v754q0 173 19 420h-8l-750 -1174h-280v1462h219v-760zM490 1753h639v-174h-639v174z" />
    <glyph glyph-name="uni04E3" unicode="&#x4e3;" horiz-adv-x="1386" 
d="M393 1106v-567q0 -99 -16 -291l555 858h287v-1106h-226v557q0 123 15 299l-553 -856h-287v1106h225zM373 1415h639v-174h-639v174z" />
    <glyph glyph-name="uni04E4" unicode="&#x4e4;" horiz-adv-x="1622" 
d="M412 702q0 -190 -15 -405h9l747 1165h279v-1462h-220v754q0 173 19 420h-8l-750 -1174h-280v1462h219v-760zM891 1738q-1 60 33 88t84 28t83 -31q32 -31 32 -85t-33 -86q-32 -32 -82 -32t-84 29t-33 89zM498 1738q0 60 34 88t84 28t82 -31t31 -85q0 -54 -32 -86t-82 -32
q-49 0 -83 29t-34 89z" />
    <glyph glyph-name="uni04E5" unicode="&#x4e5;" horiz-adv-x="1386" 
d="M393 1106v-567q0 -99 -16 -291l555 858h287v-1106h-226v557q0 123 15 299l-553 -856h-287v1106h225zM774 1400q0 60 34 88t84 28t82 -31t32 -85t-33 -86t-83 -32t-82 29q-34 29 -34 89zM381 1400q-1 60 33 88t84 28t82 -31t32 -85t-32 -86t-82 -32t-84 29t-33 89z" />
    <glyph glyph-name="uni04E6" unicode="&#x4e6;" horiz-adv-x="1612" 
d="M807 184q430 0 430 548t-429 548q-214 0 -324 -139t-109 -409q0 -270 109 -408q109 -140 323 -140zM1491 734q-1 -358 -179 -556t-507 -198t-507 196t-177 559q1 362 179 556t506 194t507 -197q178 -196 178 -554zM887 1738q-1 60 33 88t84 28t83 -31q32 -31 32 -85
t-33 -86q-32 -32 -82 -32t-84 29t-33 89zM494 1738q0 60 34 88t84 28t82 -31t31 -85q0 -54 -32 -86t-82 -32q-49 0 -83 29t-34 89z" />
    <glyph glyph-name="uni04E7" unicode="&#x4e7;" horiz-adv-x="1251" 
d="M344 555q0 -383 282 -383t281 381q0 381 -282 381q-149 0 -215 -98t-66 -281zM1149 550q0 -266 -139 -418t-387 -152q-155 0 -274 70t-183 201t-64 304q0 269 138 420t384 151t385 -154q140 -156 140 -422zM706 1400q0 60 34 88t84 28t82 -31t32 -85t-33 -86t-83 -32
t-82 29q-34 29 -34 89zM313 1400q-1 60 33 88t84 28t82 -31t32 -85t-32 -86t-82 -32t-84 29t-33 89z" />
    <glyph glyph-name="uni04E8" unicode="&#x4e8;" horiz-adv-x="1614" 
d="M809 1280q-189 0 -299 -108t-133 -324h856q-21 213 -128 322.5t-296 109.5zM806 184q396 0 431 461h-862q15 -227 125 -344t306 -117zM1491 734q0 -358 -178.5 -556t-507.5 -198t-506.5 196.5t-177.5 558.5t178.5 556t506.5 194t506.5 -196.5t178.5 -554.5z" />
    <glyph glyph-name="uni04E9" unicode="&#x4e9;" horiz-adv-x="1251" 
d="M624 934q-128 0 -195 -71.5t-81 -211.5h555q-15 141 -83 212t-196 71zM626 172q132 0 198.5 75.5t78.5 227.5h-557q12 -152 80 -227.5t200 -75.5zM1149 550q0 -266 -139 -418t-387 -152q-155 0 -274 70t-183 201t-64 304q0 269 138 420t384 151t385.5 -155t139.5 -421z
" />
    <glyph glyph-name="uni04EA" unicode="&#x4ea;" horiz-adv-x="1614" 
d="M809 1280q-189 0 -299 -108t-133 -324h856q-21 212 -128 322t-296 110zM806 184q396 0 431 461h-862q15 -227 125 -344t306 -117zM1491 734q-1 -358 -179 -556t-507 -198t-507 196t-177 559q1 362 179 556t506 194t507 -197q178 -196 178 -554zM889 1738q-1 60 33 88
t84 28t83 -31q32 -31 32 -85t-33 -86q-32 -32 -82 -32t-84 29t-33 89zM496 1738q0 60 34 88t84 28t82 -31t31 -85q0 -54 -32 -86t-82 -32q-49 0 -83 29t-34 89z" />
    <glyph glyph-name="uni04EB" unicode="&#x4eb;" horiz-adv-x="1251" 
d="M624 934q-128 0 -195 -72t-81 -211h555q-15 141 -83 212t-196 71zM626 172q132 0 198 76t79 227h-557q12 -151 80 -227t200 -76zM1149 550q0 -266 -139 -418t-387 -152q-155 0 -274 70t-183 201t-64 304q0 269 138 420t384 151t385 -154q140 -156 140 -422zM704 1400
q0 60 34 88t84 28t82 -31t32 -85t-33 -86t-83 -32t-82 29q-34 29 -34 89zM311 1400q-1 60 33 88t84 28t82 -31t32 -85t-32 -86t-82 -32t-84 29t-33 89z" />
    <glyph glyph-name="uni04EC" unicode="&#x4ec;" horiz-adv-x="1323" 
d="M270 651v203h674q-14 200 -130 312t-293 112t-369 -86l-86 197q201 94 448 94q326 -1 506 -197t180 -554t-182 -554q-182 -198 -526 -198q-228 0 -408 65v205q228 -66 385 -66q229 0 349 118t128 349h-676zM692 1738q0 60 34 88t84 28t82 -31t32 -85t-33 -86t-83 -32
t-82 29q-34 29 -34 89zM299 1738q-1 60 33 88t84 28t82 -31t32 -85t-32 -86t-82 -32t-84 29t-33 89z" />
    <glyph glyph-name="uni04ED" unicode="&#x4ed;" horiz-adv-x="1028" 
d="M403 1126q521 0 521 -567q0 -279 -140 -429t-405 -150q-185 0 -313 63v193q159 -70 309 -70q286 0 305 313h-487v172h487q-12 149 -81 219t-183 70t-275 -57l-65 174q149 69 327 69zM576 1400q0 60 34 88t84 28t82 -31t32 -85t-33 -86t-83 -32t-82 29q-34 29 -34 89z
M183 1400q-1 60 33 88t84 28t82 -31t32 -85t-32 -86t-82 -32t-84 29t-33 89z" />
    <glyph glyph-name="uni04EE" unicode="&#x4ee;" horiz-adv-x="1305" 
d="M306 -20q-124 0 -224 30v215q98 -39 197 -39t161 44t111 161l-539 1071h258l357 -733q48 -104 59 -139h10q6 26 30 83l329 789h250l-461 -1040q-85 -190 -156 -276q-70 -86 -164 -126t-218 -40zM338 1753h639v-174h-639v174z" />
    <glyph glyph-name="uni04EF" unicode="&#x4ef;" horiz-adv-x="1098" 
d="M195 -492q-78 0 -152 17v186q53 -12 121 -12q170 0 239 197l41 104l-444 1106h256l225 -627q51 -134 68 -252h8q9 55 33 133t254 746h254l-473 -1253q-129 -345 -430 -345zM233 1415h639v-174h-639v174z" />
    <glyph glyph-name="uni04F0" unicode="&#x4f0;" horiz-adv-x="1305" 
d="M306 -20q-124 0 -224 30v215q98 -39 197 -39t161 44t111 161l-539 1071h258l357 -733q48 -104 59 -139h10q6 26 30 83l329 789h250l-461 -1040q-85 -190 -156 -276q-70 -86 -164 -126t-218 -40zM739 1738q-1 60 33 88t84 28t83 -31q32 -31 32 -85t-33 -86
q-32 -32 -82 -32t-84 29t-33 89zM346 1738q0 60 34 88t84 28t82 -31t31 -85q0 -54 -32 -86t-82 -32q-49 0 -83 29t-34 89z" />
    <glyph glyph-name="uni04F1" unicode="&#x4f1;" horiz-adv-x="1098" 
d="M195 -492q-78 0 -152 17v186q53 -12 121 -12q170 0 239 197l41 104l-444 1106h256l225 -627q51 -134 68 -252h8q9 55 33 133t254 746h254l-473 -1253q-129 -345 -430 -345zM632 1400q0 60 34 88t84 28t82 -31t32 -85t-33 -86t-83 -32t-82 29q-34 29 -34 89zM239 1400
q-1 60 33 88t84 28t82 -31t32 -85t-32 -86t-82 -32t-84 29t-33 89z" />
    <glyph glyph-name="uni04F2" unicode="&#x4f2;" horiz-adv-x="1305" 
d="M306 -20q-124 0 -224 30v215q98 -39 197 -39t161 44t111 161l-539 1071h258l357 -733q48 -104 59 -139h10q6 26 30 83l329 789h250l-461 -1040q-85 -190 -156 -276q-70 -86 -164 -126t-218 -40zM1161 1907v-21q-29 -49 -126 -148t-175 -159h-129v25q116 153 187 303h243z
M355 1579v25q104 144 186 303h244v-21q-29 -49 -126 -148t-175 -159h-129z" />
    <glyph glyph-name="uni04F3" unicode="&#x4f3;" horiz-adv-x="1098" 
d="M195 -492q-78 0 -152 17v186q53 -12 121 -12q170 0 239 197l41 104l-444 1106h256l225 -627q51 -134 68 -252h8q9 55 33 133t254 746h254l-473 -1253q-129 -345 -430 -345zM1042 1569v-21q-29 -49 -126 -148t-175 -159h-129v25q116 153 187 303h243zM236 1241v25
q104 144 186 303h244v-21q-29 -49 -126 -148t-175 -159h-129z" />
    <glyph glyph-name="uni04F4" unicode="&#x4f4;" horiz-adv-x="1456" 
d="M642 698q150 0 382 78v686h240v-1462h-240v584q-253 -90 -457 -90q-203 0 -315 98t-113 276v594h240v-538q1 -114 57 -170t206 -56zM782 1738q0 60 34 88t84 28t82 -31t32 -85t-33 -86t-83 -32t-82 29q-34 29 -34 89zM389 1738q-1 60 33 88t84 28t82 -31t32 -85t-32 -86
t-82 -32t-84 29t-33 89z" />
    <glyph glyph-name="uni04F5" unicode="&#x4f5;" horiz-adv-x="1294" 
d="M517 352q-184 0 -281 90t-97 250v414h236v-404q0 -170 176 -170q163 0 340 99v475h235v-1106h-235v469q-190 -117 -374 -117zM715 1400q-1 60 33 88t84 28t83 -31q32 -31 32 -85t-33 -86q-32 -32 -82 -32t-84 29t-33 89zM322 1400q0 60 34 88t84 28t82 -31t31 -85
q0 -54 -32 -86t-82 -32q-49 0 -83 29t-34 89z" />
    <glyph glyph-name="uni04F6" unicode="&#x4f6;" horiz-adv-x="1114" 
d="M193 1462h876v-205h-637v-1048h230v-612h-230v403h-239v1462z" />
    <glyph glyph-name="uni04F7" unicode="&#x4f7;" horiz-adv-x="928" 
d="M168 1106h715v-184h-480v-740h211v-571h-219v389h-227v1106z" />
    <glyph glyph-name="uni04F8" unicode="&#x4f8;" horiz-adv-x="1800" 
d="M1608 0h-240v1462h240v-1462zM596 199q324 -1 324 237q0 122 -78 176t-267 54h-143v-467h164zM1163 436q-1 -212 -141 -324t-412 -112h-417v1462h239v-594h170q274 0 418 -110t143 -322zM981 1738q-1 60 33 88t84 28t83 -31q32 -31 32 -85t-33 -86q-32 -32 -82 -32
t-84 29t-33 89zM588 1738q0 60 34 88t84 28t82 -31t31 -85q0 -54 -32 -86t-82 -32q-49 0 -83 29t-34 89z" />
    <glyph glyph-name="uni04F9" unicode="&#x4f9;" horiz-adv-x="1659" 
d="M1491 0h-236v1106h236v-1106zM848 338q0 84 -62 116q-62 33 -176 33h-207v-313h177q142 0 205 40t63 124zM627 664q454 0 454 -320q1 -172 -115 -258t-339 -86h-459v1106h235v-442h224zM909 1400q-1 60 33 88t84 28t83 -31q32 -31 32 -85t-33 -86q-32 -32 -82 -32t-84 29
t-33 89zM516 1400q0 60 34 88t84 28t82 -31t31 -85q0 -54 -32 -86t-82 -32q-49 0 -83 29t-34 89z" />
    <glyph glyph-name="uni04FA" unicode="&#x4fa;" horiz-adv-x="1112" 
d="M432 823h412v-200h-412v-396h219v-356q0 -155 -75 -235t-216 -80q-81 0 -150 24v189q55 -19 111 -19q109 0 109 135v115h-237v623h-146v200h146v639h874v-205h-635v-434z" />
    <glyph glyph-name="uni04FB" unicode="&#x4fb;" horiz-adv-x="940" 
d="M895 913h-502v-280h340v-182h-340v-248h220v-332q0 -155 -75 -235t-216 -80q-81 0 -150 24v189q55 -19 111 -19q109 0 109 135v115h-234v451h-148v182h148v473h737v-193z" />
    <glyph glyph-name="uni04FC" unicode="&#x4fc;" horiz-adv-x="1384" 
d="M1051 -444q-81 0 -150 24v189q55 -19 111 -19q109 0 109 135v115h-126l-366 598l-369 -598h-256l485 758l-454 704h266l338 -553l338 553h258l-457 -708l344 -527h220v-356q0 -155 -75 -235t-216 -80z" />
    <glyph glyph-name="uni04FD" unicode="&#x4fd;" horiz-adv-x="1212" 
d="M963 203h221v-332q0 -155 -75 -235t-216 -80q-81 0 -150 24v189q55 -19 111 -19q109 0 109 135v115h-127l-273 414l-272 -414h-266l389 565l-371 541h268l252 -387l254 387h266l-372 -541l252 -364v2z" />
    <glyph glyph-name="uni04FE" unicode="&#x4fe;" horiz-adv-x="1274" 
d="M119 862h303l-387 600h266l338 -555l338 555h258l-387 -600h305v-203h-313l430 -659h-275l-366 598l-369 -598h-258l422 659h-305v203z" />
    <glyph glyph-name="uni04FF" unicode="&#x4ff;" horiz-adv-x="1128" 
d="M109 655h245l-311 451h268l252 -387l254 387h266l-313 -451h250v-180h-248l330 -475h-266l-273 414l-272 -414h-266l327 475h-243v180z" />
    <glyph glyph-name="uni0500" unicode="&#x500;" horiz-adv-x="1280" 
d="M860 668h-133q-200 0 -285.5 -55t-85.5 -177t84.5 -178.5t259.5 -56.5h160v467zM860 1462h240v-1462h-420q-282 0 -425.5 110.5t-143.5 324.5t150 323.5t439 109.5h160v594z" />
    <glyph glyph-name="uni0501" unicode="&#x501;" horiz-adv-x="1276" 
d="M344 547q0 -377 260 -377q145 0 211 82t68 264v33q0 209 -68 297q-69 88 -203 88t-201 -100t-67 -287zM546 -20q-212 0 -328 150t-116 422t118 422q118 152 330 152q213 0 327 -161h12q-17 119 -17 188v403h236v-1556h-184l-41 145h-11q-114 -165 -326 -165z" />
    <glyph glyph-name="uni0502" unicode="&#x502;" horiz-adv-x="1868" 
d="M817 666h-110q-186 0 -268.5 -61t-82.5 -189q0 -234 236 -234q106 0 165.5 47.5t59.5 130.5v306zM581 -18q-236 0 -353 112t-117 326t149.5 331t427.5 117h129v594h240v-1097q5 -183 199 -183t194 224v442h238v-477q0 -185 -113 -288t-322 -103q-115 0 -202.5 41.5
t-130.5 113.5q-103 -153 -339 -153z" />
    <glyph glyph-name="uni0503" unicode="&#x503;" horiz-adv-x="1862" 
d="M593 170q131 0 194 80.5t65 265.5v33q0 210 -63.5 297.5t-200.5 87.5q-244 0 -244 -387q0 -189 59 -283t190 -94zM580 -20q-230 0 -354 148.5t-124 420.5t112.5 424.5t317.5 152.5t314 -161h12q-16 112 -16 188v403h235v-1159q0 -119 46.5 -170t150.5 -51t149 59t45 183
v282h236v-321q0 -196 -106.5 -296.5t-317.5 -100.5q-121 0 -198.5 35.5t-141.5 132.5q-58 -80 -152 -125t-208 -45z" />
    <glyph glyph-name="uni0504" unicode="&#x504;" horiz-adv-x="1860" 
d="M516 1286q-177 0 -346 -112l-119 161q201 148 477 148q220 0 350 -95.5t130 -247.5t-85.5 -245.5t-238.5 -124.5v-8q354 -47 358 -346q2 -126 50 -180t152 -54t152 56t48 180v430h235v-469q0 -196 -111.5 -297.5t-325.5 -101.5t-327.5 109.5t-115.5 318.5q0 254 -402 254
h-186v180h182q183 0 279 64t96 170t-66.5 158t-185.5 52z" />
    <glyph glyph-name="uni0505" unicode="&#x505;" horiz-adv-x="1712" 
d="M458 1126q211 0 325 -78t114 -214q0 -187 -201 -244v-8q106 -20 168.5 -78.5t65.5 -159.5q4 -168 196 -168q101 0 147 59t46 183v282h233v-321q0 -399 -424 -399q-205 0 -317.5 81t-114.5 232q-3 103 -77 148.5t-211 45.5h-148v177h129q291 0 291 145q0 135 -209 135
q-167 0 -330 -72l-73 175q179 79 390 79z" />
    <glyph glyph-name="uni0506" unicode="&#x506;" horiz-adv-x="1358" 
d="M547 1483q229 0 362 -96.5t133 -246.5q0 -300 -333 -370v-6q180 -23 274 -111.5t94 -234.5v-209h236v-612h-230v403h-241v418q0 130 -122.5 187t-363.5 57h-145v180h195q194 0 297.5 62.5t103.5 169.5t-70.5 159.5t-197.5 52.5q-188 0 -369 -112l-119 161
q203 148 496 148z" />
    <glyph glyph-name="uni0507" unicode="&#x507;" horiz-adv-x="1212" 
d="M739 313q0 174 -311 174h-158v177h138q313 0 313 145q0 135 -225 135q-182 0 -342 -72l-76 175q189 79 405 79t333.5 -78.5t117.5 -213.5q0 -187 -207 -244v-10q126 -33 183 -98.5t57 -170.5v-129h215v-571h-219v389h-224v313z" />
    <glyph glyph-name="uni0508" unicode="&#x508;" horiz-adv-x="2062" 
d="M1450 -20q-436 0 -436 397v880h-379l-29 -223q-47 -372 -82 -567t-80 -295t-116.5 -147.5t-162.5 -47.5t-157 25v199q57 -25 120 -25t120 123t188 1163h817v-1081q0 -105 47.5 -152t149.5 -47t149.5 57t47.5 179v430h235v-469q0 -194 -111 -296.5t-321 -102.5z" />
    <glyph glyph-name="uni0509" unicode="&#x509;" horiz-adv-x="1829" 
d="M1669 379q0 -399 -426 -399t-426 397v543h-282q-28 -356 -75.5 -555.5t-123.5 -290t-199 -90.5q-82 0 -129 20v186q37 -14 74 -14q97 0 156 213t94 717h721v-725q0 -105 45.5 -155t145.5 -50t146 59t46 183v282h233v-321z" />
    <glyph glyph-name="uni050A" unicode="&#x50a;" horiz-adv-x="2103" 
d="M1495 -20q-426 0 -430 397v282h-633v-659h-239v1462h239v-598h633v598h240v-1077q0 -106 45 -154.5t146 -48.5t146.5 57t45.5 179v430h235v-469q0 -195 -110 -297t-318 -102z" />
    <glyph glyph-name="uni050B" unicode="&#x50b;" horiz-adv-x="1909" 
d="M403 1106v-444h498v444h236v-725q0 -105 47 -155t144 -50t142.5 59t45.5 183v282h233v-321q0 -399 -418 -399q-211 0 -319.5 101t-110.5 296v100h-498v-477h-235v1106h235z" />
    <glyph glyph-name="uni050C" unicode="&#x50c;" horiz-adv-x="1593" 
d="M846 786h631v-104q0 -702 -641 -702q-341 0 -528 199t-187 554q0 229 88.5 398.5t256.5 260.5t416 91t455 -99l-86 -198q-199 92 -413 92t-340.5 -144.5t-126.5 -406.5t123 -403.5t348 -141.5q185 0 284 100t99 292v8h-379v204z" />
    <glyph glyph-name="uni050D" unicode="&#x50d;" horiz-adv-x="1333" 
d="M712 936q-178 0 -273 -98t-95 -287q0 -383 338 -383q150 0 230.5 69t80.5 197h-317v184h557v-79q0 -559 -547 -559q-279 0 -431.5 149t-152.5 423t163.5 424t455.5 150q226 0 405 -82l-75 -182q-161 74 -339 74z" />
    <glyph glyph-name="uni050E" unicode="&#x50e;" horiz-adv-x="1503" 
d="M690 385q0 -106 49.5 -154.5t149.5 -48.5t148 57.5t48 178.5v430h238v-469q0 -196 -113.5 -297.5t-324.5 -101.5t-322.5 100t-111.5 297v878h-422v207h1093v-207h-432v-870z" />
    <glyph glyph-name="uni050F" unicode="&#x50f;" horiz-adv-x="1413" 
d="M1253 379q0 -399 -316.5 -399t-427 100t-110.5 297v545h-356v184h948v-184h-356v-539q0 -106 47 -156.5t149 -50.5q189 0 189 242v282h233v-321z" />
    <glyph glyph-name="uni0510" unicode="&#x510;" horiz-adv-x="1260" 
d="M805 662q-463 0 -463 -241t360 -241q265 0 461 94v-217q-184 -77 -469 -77t-440.5 114t-155.5 312q0 147 102 241.5t289 114.5v8q-165 26 -255.5 116t-90.5 214t63 207t181.5 129.5t273.5 46.5t276 -35t234 -111l-114 -174q-185 119 -391 119q-137 0 -210 -50.5
t-73 -146.5q0 -231 426 -231h170v-192h-174z" />
    <glyph glyph-name="uni0511" unicode="&#x511;" horiz-adv-x="1055" 
d="M776 664v-177h-158q-301 0 -301 -168q0 -153 275 -153q199 0 387 86v-197q-151 -75 -395 -75t-372 84.5t-128 238.5q0 105 61.5 170.5t194.5 97.5v11q-209 54 -209 254q0 135 121.5 212.5t335.5 77.5t393 -79l-72 -175q-165 72 -323 72q-238 0 -238 -133
q0 -76 72.5 -111.5t224.5 -35.5h131z" />
    <glyph glyph-name="uni0512" unicode="&#x512;" horiz-adv-x="1554" 
d="M1219 -444q-81 0 -150 24v189q55 -19 111 -19q109 0 109 135v115h-238v1257h-416q-79 -640 -127 -871q-48 -232 -133 -322q-86 -90 -228 -87q-73 0 -139 25v199q57 -25 120 -25q64 0 104 86t88 383q48 296 116 817h854v-1235h220v-356q0 -155 -75 -235t-216 -80z" />
    <glyph glyph-name="uni0513" unicode="&#x513;" horiz-adv-x="1325" 
d="M1006 -444q-81 0 -150 24v189q55 -19 111 -19q109 0 109 135v115h-236v922h-305q-27 -356 -75 -556t-124 -292t-199 -92q-77 0 -129 22v184q37 -14 74 -14q102 0 160 230t92 702h743v-903h220v-332q0 -155 -75 -235t-216 -80z" />
    </font>
</defs>
</svg>
